SplineFontDB: 3.2
FontName: ingsmall5m
FullName: ingsmall5m
FamilyName: ingsmall5m
Weight: Regular
Copyright: Copyright 2022 The Noto Project Authors (https://github.com/notofonts/latin-greek-cyrillic)
Version: 2.013
ItalicAngle: 0
UnderlinePosition: -125
UnderlineWidth: 50
Ascent: 800
Descent: 200
InvalidEm: 0
sfntRevision: 0x00020354
LayerCount: 2
Layer: 0 1 "Back" 1
Layer: 1 1 "Fore" 0
XUID: [1021 426 849761687 13685114]
StyleMap: 0x0040
FSType: 0
OS2Version: 4
OS2_WeightWidthSlopeOnly: 0
OS2_UseTypoMetrics: 1
CreationTime: 1633362791
ModificationTime: 1717078967
PfmFamily: 17
TTFWeight: 400
TTFWidth: 5
LineGap: 0
VLineGap: 0
Panose: 2 11 5 2 4 5 4 2 2 4
OS2TypoAscent: 1069
OS2TypoAOffset: 0
OS2TypoDescent: -293
OS2TypoDOffset: 0
OS2TypoLinegap: 0
OS2WinAscent: 1124
OS2WinAOffset: 0
OS2WinDescent: 395
OS2WinDOffset: 0
HheadAscent: 1069
HheadAOffset: 0
HheadDescent: -293
HheadDOffset: 0
OS2SubXSize: 650
OS2SubYSize: 600
OS2SubXOff: 0
OS2SubYOff: 75
OS2SupXSize: 650
OS2SupYSize: 600
OS2SupXOff: 0
OS2SupYOff: 350
OS2StrikeYSize: 50
OS2StrikeYPos: 322
OS2CapHeight: 714
OS2XHeight: 536
OS2Vendor: 'GOOG'
OS2CodePages: 0000019f.00000000
OS2UnicodeRanges: e00002ff.4000201f.08000029.00100000
Lookup: 1 0 0 "'aalt' Access All Alternates lookup 0" { "'aalt' Access All Alternates lookup 0 subtable"  } ['aalt' ('DFLT' <'dflt' > 'cyrl' <'MKD ' 'SRB ' 'dflt' > 'dev2' <'MAR ' 'NEP ' 'dflt' > 'grek' <'APPH' 'IPPH' 'dflt' > 'latn' <'APPH' 'CAT ' 'IPPH' 'MAH ' 'MOL ' 'NAV ' 'ROM ' 'dflt' > ) ]
Lookup: 3 0 0 "'aalt' Access All Alternates lookup 1" { "'aalt' Access All Alternates lookup 1 subtable"  } ['aalt' ('DFLT' <'dflt' > 'cyrl' <'MKD ' 'SRB ' 'dflt' > 'dev2' <'MAR ' 'NEP ' 'dflt' > 'grek' <'APPH' 'IPPH' 'dflt' > 'latn' <'APPH' 'CAT ' 'IPPH' 'MAH ' 'MOL ' 'NAV ' 'ROM ' 'dflt' > ) ]

StartChar: exclam
Encoding: 33 33 3
Width: 600
Flags: W
LayerCount: 2
Fore
SplineSet
262 202 m 1,0,-1
 246 714 l 1,1,-1
 355 714 l 1,2,-1
 339 202 l 1,3,-1
 262 202 l 1,0,-1
300 -10 m 256,4,5
 274 -10 274 -10 256 6 c 128,-1,6
 238 22 238 22 238 58 c 0,7,8
 238 96 238 96 256 111 c 128,-1,9
 274 126 274 126 300 126 c 256,10,11
 326 126 326 126 344 111 c 128,-1,12
 362 96 362 96 362 58 c 0,13,14
 362 22 362 22 344 6 c 128,-1,15
 326 -10 326 -10 300 -10 c 256,4,5
EndSplineSet
Substitution2: "'smcp' Lowercase to Small Capitals lookup 39 subtable" exclam.sc
Substitution2: "'c2sc' Capitals to Small Capitals lookup 38 subtable" exclam.sc
Substitution2: "'aalt' Access All Alternates lookup 0 subtable" exclam.sc
EndChar

StartChar: quotedbl
Encoding: 34 34 4
Width: 600
Flags: W
LayerCount: 2
Fore
SplineSet
365 456 m 1,0,-1
 345 714 l 1,1,-1
 440 714 l 1,2,-1
 420 456 l 1,3,-1
 365 456 l 1,0,-1
180 456 m 1,4,-1
 160 714 l 1,5,-1
 255 714 l 1,6,-1
 235 456 l 1,7,-1
 180 456 l 1,4,-1
EndSplineSet
EndChar

StartChar: numbersign
Encoding: 35 35 5
Width: 600
Flags: W
LayerCount: 2
Fore
SplineSet
101 0 m 1,0,-1
 139 209 l 1,1,-1
 20 209 l 1,2,-1
 20 276 l 1,3,-1
 152 276 l 1,4,-1
 184 436 l 1,5,-1
 57 436 l 1,6,-1
 57 502 l 1,7,-1
 196 502 l 1,8,-1
 236 714 l 1,9,-1
 308 714 l 1,10,-1
 268 502 l 1,11,-1
 392 502 l 1,12,-1
 432 714 l 1,13,-1
 501 714 l 1,14,-1
 461 502 l 1,15,-1
 580 502 l 1,16,-1
 580 436 l 1,17,-1
 448 436 l 1,18,-1
 417 276 l 1,19,-1
 546 276 l 1,20,-1
 546 209 l 1,21,-1
 404 209 l 1,22,-1
 363 0 l 1,23,-1
 292 0 l 1,24,-1
 333 209 l 1,25,-1
 210 209 l 1,26,-1
 171 0 l 1,27,-1
 101 0 l 1,0,-1
223 276 m 1,28,-1
 346 276 l 1,29,-1
 377 436 l 1,30,-1
 254 436 l 1,31,-1
 223 276 l 1,28,-1
EndSplineSet
EndChar

StartChar: dollar
Encoding: 36 36 6
Width: 600
Flags: W
LayerCount: 2
Fore
SplineSet
263 34 m 1,0,1
 213 35 213 35 167.5 43.5 c 128,-1,2
 122 52 122 52 90 67 c 1,3,-1
 90 152 l 1,4,5
 124 136 124 136 170.5 124 c 128,-1,6
 217 112 217 112 263 111 c 1,7,-1
 263 328 l 1,8,9
 203 348 203 348 162 371.5 c 128,-1,10
 121 395 121 395 100.5 429.5 c 128,-1,11
 80 464 80 464 80 515 c 0,12,13
 80 565 80 565 102.5 602 c 128,-1,14
 125 639 125 639 166 660.5 c 128,-1,15
 207 682 207 682 263 686 c 1,16,-1
 263 759 l 1,17,-1
 327 759 l 1,18,-1
 327 687 l 1,19,20
 377 686 377 686 417 675.5 c 128,-1,21
 457 665 457 665 493 650 c 1,22,-1
 466 576 l 1,23,24
 434 589 434 589 399 598.5 c 128,-1,25
 364 608 364 608 327 611 c 1,26,-1
 327 395 l 1,27,28
 391 376 391 376 434 354.5 c 128,-1,29
 477 333 477 333 498.5 299.5 c 128,-1,30
 520 266 520 266 520 212 c 0,31,32
 520 142 520 142 469.5 95.5 c 128,-1,33
 419 49 419 49 327 38 c 1,34,-1
 327 -58 l 1,35,-1
 263 -58 l 1,36,-1
 263 34 l 1,0,1
327 116 m 1,37,38
 383 123 383 123 408.5 148.5 c 128,-1,39
 434 174 434 174 434 214 c 0,40,41
 434 239 434 239 424.5 255.5 c 128,-1,42
 415 272 415 272 392 284 c 128,-1,43
 369 296 369 296 327 307 c 1,44,-1
 327 116 l 1,37,38
263 609 m 1,45,46
 230 606 230 606 208.5 593.5 c 128,-1,47
 187 581 187 581 176.5 561 c 128,-1,48
 166 541 166 541 166 515 c 0,49,50
 166 490 166 490 175 471.5 c 128,-1,51
 184 453 184 453 205 440 c 128,-1,52
 226 427 226 427 263 417 c 1,53,-1
 263 609 l 1,45,46
EndSplineSet
EndChar

StartChar: percent
Encoding: 37 37 7
Width: 600
Flags: W
LayerCount: 2
Fore
SplineSet
83 0 m 1,0,-1
 439 714 l 1,1,-1
 516 714 l 1,2,-1
 160 0 l 1,3,-1
 83 0 l 1,0,-1
456 -9 m 0,4,5
 395 -9 395 -9 354.5 35.5 c 128,-1,6
 314 80 314 80 314 161 c 256,7,8
 314 242 314 242 352.5 286 c 128,-1,9
 391 330 391 330 458 330 c 0,10,11
 519 330 519 330 559.5 286 c 128,-1,12
 600 242 600 242 600 161 c 256,13,14
 600 80 600 80 561 35.5 c 128,-1,15
 522 -9 522 -9 456 -9 c 0,4,5
457 49 m 256,16,17
 491 49 491 49 508 76 c 128,-1,18
 525 103 525 103 525 161 c 0,19,20
 525 220 525 220 508 245.5 c 128,-1,21
 491 271 491 271 457 271 c 256,22,23
 423 271 423 271 405.5 245.5 c 128,-1,24
 388 220 388 220 388 161 c 0,25,26
 388 103 388 103 405.5 76 c 128,-1,27
 423 49 423 49 457 49 c 256,16,17
142 383 m 0,28,29
 81 383 81 383 40.5 427.5 c 128,-1,30
 0 472 0 472 0 553 c 256,31,32
 0 634 0 634 38.5 678 c 128,-1,33
 77 722 77 722 144 722 c 0,34,35
 205 722 205 722 245.5 678 c 128,-1,36
 286 634 286 634 286 553 c 256,37,38
 286 472 286 472 247 427.5 c 128,-1,39
 208 383 208 383 142 383 c 0,28,29
143 441 m 256,40,41
 177 441 177 441 194 468 c 128,-1,42
 211 495 211 495 211 553 c 0,43,44
 211 612 211 612 194 637.5 c 128,-1,45
 177 663 177 663 143 663 c 256,46,47
 109 663 109 663 91.5 637.5 c 128,-1,48
 74 612 74 612 74 553 c 0,49,50
 74 495 74 495 91.5 468 c 128,-1,51
 109 441 109 441 143 441 c 256,40,41
EndSplineSet
EndChar

StartChar: ampersand
Encoding: 38 38 8
Width: 600
Flags: W
LayerCount: 2
Fore
SplineSet
214 -10 m 0,0,1
 155 -10 155 -10 113.5 14 c 128,-1,2
 72 38 72 38 50.5 80.5 c 128,-1,3
 29 123 29 123 29 176 c 0,4,5
 29 233 29 233 51.5 275.5 c 128,-1,6
 74 318 74 318 110 351.5 c 128,-1,7
 146 385 146 385 187 414 c 0,8,9
 210 430 210 430 238 454 c 128,-1,10
 266 478 266 478 287 509.5 c 128,-1,11
 308 541 308 541 308 580 c 0,12,13
 308 616 308 616 289 636 c 128,-1,14
 270 656 270 656 239 656 c 256,15,16
 208 656 208 656 189.5 635 c 128,-1,17
 171 614 171 614 171 576 c 0,18,19
 171 550 171 550 179.5 522 c 128,-1,20
 188 494 188 494 202.5 468 c 128,-1,21
 217 442 217 442 234 420 c 2,22,-1
 571 0 l 1,23,-1
 464 0 l 1,24,-1
 182 364 l 2,25,26
 160 393 160 393 138.5 427 c 128,-1,27
 117 461 117 461 103 499.5 c 128,-1,28
 89 538 89 538 89 578 c 0,29,30
 89 644 89 644 129 684.5 c 128,-1,31
 169 725 169 725 239 725 c 256,32,33
 309 725 309 725 349 684.5 c 128,-1,34
 389 644 389 644 389 580 c 0,35,36
 389 530 389 530 366 490 c 128,-1,37
 343 450 343 450 308 418.5 c 128,-1,38
 273 387 273 387 238 359 c 0,39,40
 209 336 209 336 180.5 310.5 c 128,-1,41
 152 285 152 285 133.5 253.5 c 128,-1,42
 115 222 115 222 115 181 c 0,43,44
 115 133 115 133 144 100 c 128,-1,45
 173 67 173 67 224 67 c 0,46,47
 261 67 261 67 293.5 84.5 c 128,-1,48
 326 102 326 102 353 132 c 128,-1,49
 380 162 380 162 400.5 198.5 c 128,-1,50
 421 235 421 235 434.5 274 c 128,-1,51
 448 313 448 313 454 349 c 1,52,-1
 537 349 l 1,53,54
 527 292 527 292 507.5 239 c 128,-1,55
 488 186 488 186 459 140.5 c 128,-1,56
 430 95 430 95 393 61.5 c 128,-1,57
 356 28 356 28 311 9 c 128,-1,58
 266 -10 266 -10 214 -10 c 0,0,1
EndSplineSet
Substitution2: "'smcp' Lowercase to Small Capitals lookup 39 subtable" ampersand.sc
Substitution2: "'c2sc' Capitals to Small Capitals lookup 38 subtable" ampersand.sc
Substitution2: "'aalt' Access All Alternates lookup 0 subtable" ampersand.sc
EndChar

StartChar: quotesingle
Encoding: 39 39 9
Width: 600
Flags: W
LayerCount: 2
Fore
SplineSet
272.5 456 m 1,0,-1
 252.5 714 l 1,1,-1
 347.5 714 l 1,2,-1
 327.5 456 l 1,3,-1
 272.5 456 l 1,0,-1
EndSplineSet
EndChar

StartChar: parenleft
Encoding: 40 40 10
Width: 600
Flags: W
LayerCount: 2
Fore
SplineSet
332 -158 m 1,0,1
 256 -70 256 -70 220.5 41.5 c 128,-1,2
 185 153 185 153 185 274 c 0,3,4
 185 396 185 396 220.5 509.5 c 128,-1,5
 256 623 256 623 332 714 c 1,6,-1
 415 714 l 1,7,8
 345 620 345 620 309.5 507 c 128,-1,9
 274 394 274 394 274 275 c 0,10,11
 274 159 274 159 309.5 47.5 c 128,-1,12
 345 -64 345 -64 414 -158 c 1,13,-1
 332 -158 l 1,0,1
EndSplineSet
Substitution2: "'smcp' Lowercase to Small Capitals lookup 39 subtable" parenleft.sc
Substitution2: "'c2sc' Capitals to Small Capitals lookup 38 subtable" parenleft.sc
Substitution2: "'sups' Superscript lookup 25 subtable" uni207D
Substitution2: "'sinf' Scientific Inferiors lookup 24 subtable" uni208D
Substitution2: "'subs' Subscript lookup 23 subtable" uni208D
AlternateSubs2: "'aalt' Access All Alternates lookup 1 subtable" uni208D uni207D parenleft.sc
EndChar

StartChar: parenright
Encoding: 41 41 11
Width: 600
Flags: W
LayerCount: 2
Fore
SplineSet
268 714 m 1,0,1
 344 626 344 626 379.5 514.5 c 128,-1,2
 415 403 415 403 415 282 c 0,3,4
 415 160 415 160 379.5 46.5 c 128,-1,5
 344 -67 344 -67 268 -158 c 1,6,-1
 185 -158 l 1,7,8
 255 -64 255 -64 290.5 49.5 c 128,-1,9
 326 163 326 163 326 281 c 0,10,11
 326 397 326 397 290.5 508.5 c 128,-1,12
 255 620 255 620 186 714 c 1,13,-1
 268 714 l 1,0,1
EndSplineSet
Substitution2: "'smcp' Lowercase to Small Capitals lookup 39 subtable" parenright.sc
Substitution2: "'c2sc' Capitals to Small Capitals lookup 38 subtable" parenright.sc
Substitution2: "'sups' Superscript lookup 25 subtable" uni207E
Substitution2: "'sinf' Scientific Inferiors lookup 24 subtable" uni208E
Substitution2: "'subs' Subscript lookup 23 subtable" uni208E
AlternateSubs2: "'aalt' Access All Alternates lookup 1 subtable" uni208E uni207E parenright.sc
EndChar

StartChar: asterisk
Encoding: 42 42 12
Width: 600
Flags: W
LayerCount: 2
Fore
SplineSet
379.5 334 m 1,0,-1
 298.5 489 l 1,1,-1
 218.5 335 l 1,2,-1
 144.5 382 l 1,3,-1
 250.5 516 l 1,4,-1
 88.5 537 l 1,5,-1
 102.5 612 l 1,6,-1
 272.5 569 l 1,7,-1
 258.5 746 l 1,8,-1
 337.5 746 l 1,9,-1
 325.5 569 l 1,10,-1
 496.5 616 l 1,11,-1
 511.5 534 l 1,12,-1
 350.5 514 l 1,13,-1
 456.5 381 l 1,14,-1
 379.5 334 l 1,0,-1
EndSplineSet
EndChar

StartChar: plus
Encoding: 43 43 13
Width: 600
Flags: W
LayerCount: 2
Fore
SplineSet
265 121 m 1,0,-1
 265 317 l 1,1,-1
 80 317 l 1,2,-1
 80 388 l 1,3,-1
 265 388 l 1,4,-1
 265 585 l 1,5,-1
 337 585 l 1,6,-1
 337 388 l 1,7,-1
 520 388 l 1,8,-1
 520 317 l 1,9,-1
 337 317 l 1,10,-1
 337 121 l 1,11,-1
 265 121 l 1,0,-1
EndSplineSet
Substitution2: "'sups' Superscript lookup 25 subtable" uni207A
Substitution2: "'sinf' Scientific Inferiors lookup 24 subtable" uni208A
Substitution2: "'subs' Subscript lookup 23 subtable" uni208A
AlternateSubs2: "'aalt' Access All Alternates lookup 1 subtable" uni208A uni207A
EndChar

StartChar: comma
Encoding: 44 44 14
Width: 600
Flags: W
LayerCount: 2
Fore
SplineSet
215.5 -140 m 1,0,1
 226.5 -96 226.5 -96 236.5 -48.5 c 128,-1,2
 246.5 -1 246.5 -1 255.5 45 c 128,-1,3
 264.5 91 264.5 91 269.5 129 c 1,4,-1
 376.5 129 l 1,5,-1
 384.5 117 l 1,6,7
 377.5 88 377.5 88 366.5 55.5 c 128,-1,8
 355.5 23 355.5 23 343 -10.5 c 128,-1,9
 330.5 -44 330.5 -44 317 -77 c 128,-1,10
 303.5 -110 303.5 -110 289.5 -140 c 1,11,-1
 215.5 -140 l 1,0,1
EndSplineSet
EndChar

StartChar: hyphen
Encoding: 45 45 15
Width: 600
Flags: W
LayerCount: 2
Fore
SplineSet
150 230 m 1,0,-1
 150 310 l 1,1,-1
 450 310 l 1,2,-1
 450 230 l 1,3,-1
 150 230 l 1,0,-1
EndSplineSet
EndChar

StartChar: period
Encoding: 46 46 16
Width: 600
Flags: W
LayerCount: 2
Fore
SplineSet
300 -10 m 256,0,1
 274 -10 274 -10 256 6 c 128,-1,2
 238 22 238 22 238 58 c 0,3,4
 238 96 238 96 256 111 c 128,-1,5
 274 126 274 126 300 126 c 256,6,7
 326 126 326 126 344 111 c 128,-1,8
 362 96 362 96 362 58 c 0,9,10
 362 22 362 22 344 6 c 128,-1,11
 326 -10 326 -10 300 -10 c 256,0,1
EndSplineSet
EndChar

StartChar: slash
Encoding: 47 47 17
Width: 600
Flags: W
LayerCount: 2
Fore
SplineSet
120 0 m 1,0,-1
 394 714 l 1,1,-1
 480 714 l 1,2,-1
 206 0 l 1,3,-1
 120 0 l 1,0,-1
EndSplineSet
Substitution2: "'frac' Diagonal Fractions lookup 28 subtable" fraction
Substitution2: "'aalt' Access All Alternates lookup 0 subtable" fraction
EndChar

StartChar: zero
Encoding: 48 48 18
Width: 600
Flags: W
LayerCount: 2
Fore
SplineSet
299 -10 m 0,0,1
 216 -10 216 -10 163 34 c 128,-1,2
 110 78 110 78 85 160.5 c 128,-1,3
 60 243 60 243 60 358 c 0,4,5
 60 474 60 474 84 555.5 c 128,-1,6
 108 637 108 637 160.5 680.5 c 128,-1,7
 213 724 213 724 299 724 c 0,8,9
 383 724 383 724 436.5 681 c 128,-1,10
 490 638 490 638 515 556 c 128,-1,11
 540 474 540 474 540 358 c 0,12,13
 540 271 540 271 526.5 203 c 128,-1,14
 513 135 513 135 484.5 87.5 c 128,-1,15
 456 40 456 40 410 15 c 128,-1,16
 364 -10 364 -10 299 -10 c 0,0,1
185 100 m 1,17,-1
 126 152 l 1,18,-1
 406 626 l 1,19,-1
 458 560 l 1,20,-1
 185 100 l 1,17,-1
299 69 m 0,21,22
 381 69 381 69 420 139.5 c 128,-1,23
 459 210 459 210 459 358 c 0,24,25
 459 453 459 453 442 516.5 c 128,-1,26
 425 580 425 580 389.5 612.5 c 128,-1,27
 354 645 354 645 299 645 c 0,28,29
 245 645 245 645 211 614 c 128,-1,30
 177 583 177 583 160.5 519.5 c 128,-1,31
 144 456 144 456 144 358 c 0,32,33
 144 219 144 219 179.5 144 c 128,-1,34
 215 69 215 69 299 69 c 0,21,22
EndSplineSet
Substitution2: "'zero' Slashed Zero lookup 43 subtable" zero.slash
Substitution2: "'case' Case-Sensitive Forms lookup 40 subtable" zero.lf
Substitution2: "'onum' Oldstyle Figures lookup 37 subtable" zero.tosf
Substitution2: "'pnum' Proportional Numbers lookup 35 subtable" zero.lf
Substitution2: "'frac' Diagonal Fractions lookup 29 subtable" zero.numr
Substitution2: "'dnom' Denominators lookup 27 subtable" zero.dnom
Substitution2: "'numr' Numerators lookup 26 subtable" zero.numr
Substitution2: "'sups' Superscript lookup 25 subtable" uni2070
Substitution2: "'sinf' Scientific Inferiors lookup 24 subtable" uni2080
Substitution2: "'subs' Subscript lookup 23 subtable" uni2080
AlternateSubs2: "'aalt' Access All Alternates lookup 1 subtable" uni2070 zero.tosf zero.lf zero.slash uni2080 zero.dnom zero.numr
EndChar

StartChar: one
Encoding: 49 49 19
Width: 600
Flags: W
LayerCount: 2
Fore
SplineSet
274.5 446 m 2,0,1
 274.5 474 274.5 474 275 506.5 c 128,-1,2
 275.5 539 275.5 539 276.5 569.5 c 128,-1,3
 277.5 600 277.5 600 278.5 622 c 1,4,5
 262.5 613 262.5 613 249.5 607 c 128,-1,6
 236.5 601 236.5 601 210.5 588 c 2,7,-1
 127.5 545 l 1,8,-1
 88.5 613 l 1,9,-1
 287.5 714 l 1,10,-1
 360.5 714 l 1,11,-1
 360.5 0 l 1,12,-1
 274.5 0 l 1,13,-1
 274.5 446 l 2,0,1
124.5 0 m 1,14,-1
 124.5 60 l 1,15,-1
 274.5 70 l 1,16,-1
 360.5 70 l 1,17,-1
 511.5 60 l 1,18,-1
 511.5 0 l 1,19,-1
 124.5 0 l 1,14,-1
EndSplineSet
Substitution2: "'case' Case-Sensitive Forms lookup 40 subtable" one.lf
Substitution2: "'onum' Oldstyle Figures lookup 37 subtable" one.tosf
Substitution2: "'pnum' Proportional Numbers lookup 35 subtable" one.lf
Substitution2: "'frac' Diagonal Fractions lookup 29 subtable" one.numr
Substitution2: "'dnom' Denominators lookup 27 subtable" one.dnom
Substitution2: "'numr' Numerators lookup 26 subtable" one.numr
Substitution2: "'sups' Superscript lookup 25 subtable" uni00B9
Substitution2: "'sinf' Scientific Inferiors lookup 24 subtable" uni2081
Substitution2: "'subs' Subscript lookup 23 subtable" uni2081
AlternateSubs2: "'aalt' Access All Alternates lookup 1 subtable" uni00B9 one.tosf one.lf uni2081 one.dnom one.numr
EndChar

StartChar: two
Encoding: 50 50 20
Width: 600
Flags: W
LayerCount: 2
Fore
SplineSet
62.5 0 m 1,0,-1
 62.5 76 l 1,1,-1
 252.5 263 l 2,2,3
 302.5 312 302.5 312 337.5 354.5 c 128,-1,4
 372.5 397 372.5 397 391 438 c 128,-1,5
 409.5 479 409.5 479 409.5 524 c 0,6,7
 409.5 588 409.5 588 374.5 616.5 c 128,-1,8
 339.5 645 339.5 645 285.5 645 c 0,9,10
 238.5 645 238.5 645 197 626 c 128,-1,11
 155.5 607 155.5 607 119.5 578 c 1,12,-1
 69.5 640 l 1,13,14
 96.5 664 96.5 664 129.5 683 c 128,-1,15
 162.5 702 162.5 702 202.5 713 c 128,-1,16
 242.5 724 242.5 724 288.5 724 c 0,17,18
 352.5 724 352.5 724 400 701 c 128,-1,19
 447.5 678 447.5 678 473.5 634.5 c 128,-1,20
 499.5 591 499.5 591 499.5 527 c 0,21,22
 499.5 473 499.5 473 480 424.5 c 128,-1,23
 460.5 376 460.5 376 424 329.5 c 128,-1,24
 387.5 283 387.5 283 336.5 233 c 2,25,-1
 183.5 84 l 1,26,-1
 183.5 80 l 1,27,-1
 537.5 80 l 1,28,-1
 537.5 0 l 1,29,-1
 62.5 0 l 1,0,-1
EndSplineSet
Substitution2: "'case' Case-Sensitive Forms lookup 40 subtable" two.lf
Substitution2: "'onum' Oldstyle Figures lookup 37 subtable" two.tosf
Substitution2: "'pnum' Proportional Numbers lookup 35 subtable" two.lf
Substitution2: "'frac' Diagonal Fractions lookup 29 subtable" two.numr
Substitution2: "'dnom' Denominators lookup 27 subtable" two.dnom
Substitution2: "'numr' Numerators lookup 26 subtable" two.numr
Substitution2: "'sups' Superscript lookup 25 subtable" uni00B2
Substitution2: "'sinf' Scientific Inferiors lookup 24 subtable" uni2082
Substitution2: "'subs' Subscript lookup 23 subtable" uni2082
AlternateSubs2: "'aalt' Access All Alternates lookup 1 subtable" uni00B2 two.tosf two.lf uni2082 two.dnom two.numr
EndChar

StartChar: three
Encoding: 51 51 21
Width: 600
Flags: W
LayerCount: 2
Fore
SplineSet
261.5 -10 m 0,0,1
 218.5 -10 218.5 -10 168.5 -1.5 c 128,-1,2
 118.5 7 118.5 7 74.5 29 c 1,3,-1
 74.5 114 l 1,4,5
 118.5 92 118.5 92 169.5 80.5 c 128,-1,6
 220.5 69 220.5 69 267.5 69 c 0,7,8
 354.5 69 354.5 69 394.5 106 c 128,-1,9
 434.5 143 434.5 143 434.5 203 c 0,10,11
 434.5 249 434.5 249 413 276.5 c 128,-1,12
 391.5 304 391.5 304 351.5 316.5 c 128,-1,13
 311.5 329 311.5 329 253.5 329 c 2,14,-1
 179.5 329 l 1,15,-1
 179.5 409 l 1,16,-1
 253.5 409 l 2,17,18
 305.5 409 305.5 409 340.5 425.5 c 128,-1,19
 375.5 442 375.5 442 394 471.5 c 128,-1,20
 412.5 501 412.5 501 412.5 539 c 0,21,22
 412.5 589 412.5 589 381 617 c 128,-1,23
 349.5 645 349.5 645 288.5 645 c 0,24,25
 237.5 645 237.5 645 195 627.5 c 128,-1,26
 152.5 610 152.5 610 122.5 590 c 1,27,-1
 77.5 651 l 1,28,29
 115.5 681 115.5 681 170.5 702.5 c 128,-1,30
 225.5 724 225.5 724 294.5 724 c 256,31,32
 363.5 724 363.5 724 410 701 c 128,-1,33
 456.5 678 456.5 678 480 638.5 c 128,-1,34
 503.5 599 503.5 599 503.5 547 c 0,35,36
 503.5 499 503.5 499 485 463.5 c 128,-1,37
 466.5 428 466.5 428 433 406 c 128,-1,38
 399.5 384 399.5 384 354.5 376 c 1,39,-1
 354.5 373 l 1,40,41
 410.5 366 410.5 366 448.5 344 c 128,-1,42
 486.5 322 486.5 322 506 285.5 c 128,-1,43
 525.5 249 525.5 249 525.5 198 c 0,44,45
 525.5 138 525.5 138 497.5 91 c 128,-1,46
 469.5 44 469.5 44 411.5 17 c 128,-1,47
 353.5 -10 353.5 -10 261.5 -10 c 0,0,1
EndSplineSet
Substitution2: "'case' Case-Sensitive Forms lookup 40 subtable" three.lf
Substitution2: "'onum' Oldstyle Figures lookup 37 subtable" three.tosf
Substitution2: "'pnum' Proportional Numbers lookup 35 subtable" three.lf
Substitution2: "'frac' Diagonal Fractions lookup 29 subtable" three.numr
Substitution2: "'dnom' Denominators lookup 27 subtable" three.dnom
Substitution2: "'numr' Numerators lookup 26 subtable" three.numr
Substitution2: "'sups' Superscript lookup 25 subtable" uni00B3
Substitution2: "'sinf' Scientific Inferiors lookup 24 subtable" uni2083
Substitution2: "'subs' Subscript lookup 23 subtable" uni2083
AlternateSubs2: "'aalt' Access All Alternates lookup 1 subtable" uni00B3 three.tosf three.lf uni2083 three.dnom three.numr
EndChar

StartChar: four
Encoding: 52 52 22
Width: 600
Flags: W
LayerCount: 2
Fore
SplineSet
360 0 m 1,0,-1
 360 160 l 1,1,-1
 50 160 l 1,2,-1
 50 234 l 1,3,-1
 344 718 l 1,4,-1
 446 718 l 1,5,-1
 446 237 l 1,6,-1
 550 237 l 1,7,-1
 550 160 l 1,8,-1
 446 160 l 1,9,-1
 446 0 l 1,10,-1
 360 0 l 1,0,-1
137 237 m 1,11,-1
 360 237 l 1,12,-1
 360 415 l 2,13,14
 360 442 360 442 360.5 472 c 128,-1,15
 361 502 361 502 362 531 c 128,-1,16
 363 560 363 560 364 584.5 c 128,-1,17
 365 609 365 609 366 626 c 1,18,-1
 362 626 l 1,19,20
 355 607 355 607 341.5 581 c 128,-1,21
 328 555 328 555 318 538 c 2,22,-1
 137 237 l 1,11,-1
EndSplineSet
Substitution2: "'case' Case-Sensitive Forms lookup 40 subtable" four.lf
Substitution2: "'onum' Oldstyle Figures lookup 37 subtable" four.tosf
Substitution2: "'pnum' Proportional Numbers lookup 35 subtable" four.lf
Substitution2: "'frac' Diagonal Fractions lookup 29 subtable" four.numr
Substitution2: "'dnom' Denominators lookup 27 subtable" four.dnom
Substitution2: "'numr' Numerators lookup 26 subtable" four.numr
Substitution2: "'sups' Superscript lookup 25 subtable" uni2074
Substitution2: "'sinf' Scientific Inferiors lookup 24 subtable" uni2084
Substitution2: "'subs' Subscript lookup 23 subtable" uni2084
AlternateSubs2: "'aalt' Access All Alternates lookup 1 subtable" uni2074 four.tosf four.lf uni2084 four.dnom four.numr
EndChar

StartChar: five
Encoding: 53 53 23
Width: 600
Flags: W
LayerCount: 2
Fore
SplineSet
257.5 -10 m 0,0,1
 210.5 -10 210.5 -10 162.5 0 c 128,-1,2
 114.5 10 114.5 10 80.5 29 c 1,3,-1
 80.5 114 l 1,4,5
 114.5 92 114.5 92 158.5 80.5 c 128,-1,6
 202.5 69 202.5 69 249.5 69 c 0,7,8
 333.5 69 333.5 69 380.5 104.5 c 128,-1,9
 427.5 140 427.5 140 427.5 214 c 0,10,11
 427.5 264 427.5 264 406.5 297.5 c 128,-1,12
 385.5 331 385.5 331 347 348 c 128,-1,13
 308.5 365 308.5 365 256.5 365 c 0,14,15
 228.5 365 228.5 365 196.5 360.5 c 128,-1,16
 164.5 356 164.5 356 139.5 350 c 1,17,-1
 95.5 378 l 1,18,-1
 122.5 714 l 1,19,-1
 478.5 714 l 1,20,-1
 478.5 634 l 1,21,-1
 199.5 634 l 1,22,-1
 180.5 428 l 1,23,24
 201.5 433 201.5 433 232 435.5 c 128,-1,25
 262.5 438 262.5 438 285.5 438 c 0,26,27
 350.5 438 350.5 438 403.5 414 c 128,-1,28
 456.5 390 456.5 390 488 341.5 c 128,-1,29
 519.5 293 519.5 293 519.5 220 c 0,30,31
 519.5 150 519.5 150 489 98.5 c 128,-1,32
 458.5 47 458.5 47 400 18.5 c 128,-1,33
 341.5 -10 341.5 -10 257.5 -10 c 0,0,1
EndSplineSet
Substitution2: "'case' Case-Sensitive Forms lookup 40 subtable" five.lf
Substitution2: "'onum' Oldstyle Figures lookup 37 subtable" five.tosf
Substitution2: "'pnum' Proportional Numbers lookup 35 subtable" five.lf
Substitution2: "'frac' Diagonal Fractions lookup 29 subtable" five.numr
Substitution2: "'dnom' Denominators lookup 27 subtable" five.dnom
Substitution2: "'numr' Numerators lookup 26 subtable" five.numr
Substitution2: "'sups' Superscript lookup 25 subtable" uni2075
Substitution2: "'sinf' Scientific Inferiors lookup 24 subtable" uni2085
Substitution2: "'subs' Subscript lookup 23 subtable" uni2085
AlternateSubs2: "'aalt' Access All Alternates lookup 1 subtable" uni2075 five.tosf five.lf uni2085 five.dnom five.numr
EndChar

StartChar: six
Encoding: 54 54 24
Width: 600
Flags: W
LayerCount: 2
Fore
SplineSet
308 -10 m 0,0,1
 251 -10 251 -10 205 9.5 c 128,-1,2
 159 29 159 29 127 68.5 c 128,-1,3
 95 108 95 108 77.5 168 c 128,-1,4
 60 228 60 228 60 308 c 0,5,6
 60 385 60 385 73.5 459 c 128,-1,7
 87 533 87 533 123 593 c 128,-1,8
 159 653 159 653 224 688.5 c 128,-1,9
 289 724 289 724 392 724 c 0,10,11
 412 724 412 724 438.5 722 c 128,-1,12
 465 720 465 720 481 715 c 1,13,-1
 481 636 l 1,14,15
 464 642 464 642 441 645 c 128,-1,16
 418 648 418 648 395 648 c 0,17,18
 323 648 323 648 276 625.5 c 128,-1,19
 229 603 229 603 202 564 c 128,-1,20
 175 525 175 525 163 473.5 c 128,-1,21
 151 422 151 422 149 364 c 1,22,-1
 155 364 l 1,23,24
 168 389 168 389 191 409 c 128,-1,25
 214 429 214 429 247 440.5 c 128,-1,26
 280 452 280 452 322 452 c 0,27,28
 422 452 422 452 481 394 c 128,-1,29
 540 336 540 336 540 230 c 0,30,31
 540 156 540 156 511.5 102 c 128,-1,32
 483 48 483 48 431 19 c 128,-1,33
 379 -10 379 -10 308 -10 c 0,0,1
307 65 m 0,34,35
 372 65 372 65 413 103.5 c 128,-1,36
 454 142 454 142 454 230 c 0,37,38
 454 304 454 304 417.5 343 c 128,-1,39
 381 382 381 382 310 382 c 0,40,41
 262 382 262 382 225.5 362 c 128,-1,42
 189 342 189 342 169 311 c 128,-1,43
 149 280 149 280 149 247 c 0,44,45
 149 221 149 221 155.5 195 c 128,-1,46
 162 169 162 169 174.5 145.5 c 128,-1,47
 187 122 187 122 206 104 c 128,-1,48
 225 86 225 86 250.5 75.5 c 128,-1,49
 276 65 276 65 307 65 c 0,34,35
EndSplineSet
Substitution2: "'case' Case-Sensitive Forms lookup 40 subtable" six.lf
Substitution2: "'onum' Oldstyle Figures lookup 37 subtable" six.tosf
Substitution2: "'pnum' Proportional Numbers lookup 35 subtable" six.lf
Substitution2: "'frac' Diagonal Fractions lookup 29 subtable" six.numr
Substitution2: "'dnom' Denominators lookup 27 subtable" six.dnom
Substitution2: "'numr' Numerators lookup 26 subtable" six.numr
Substitution2: "'sups' Superscript lookup 25 subtable" uni2076
Substitution2: "'sinf' Scientific Inferiors lookup 24 subtable" uni2086
Substitution2: "'subs' Subscript lookup 23 subtable" uni2086
AlternateSubs2: "'aalt' Access All Alternates lookup 1 subtable" uni2076 six.tosf six.lf uni2086 six.dnom six.numr
EndChar

StartChar: seven
Encoding: 55 55 25
Width: 600
Flags: W
LayerCount: 2
Fore
SplineSet
174 0 m 1,0,-1
 449 634 l 1,1,-1
 60 634 l 1,2,-1
 60 714 l 1,3,-1
 540 714 l 1,4,-1
 540 643 l 1,5,-1
 269 0 l 1,6,-1
 174 0 l 1,0,-1
EndSplineSet
Substitution2: "'case' Case-Sensitive Forms lookup 40 subtable" seven.lf
Substitution2: "'onum' Oldstyle Figures lookup 37 subtable" seven.tosf
Substitution2: "'pnum' Proportional Numbers lookup 35 subtable" seven.lf
Substitution2: "'frac' Diagonal Fractions lookup 29 subtable" seven.numr
Substitution2: "'dnom' Denominators lookup 27 subtable" seven.dnom
Substitution2: "'numr' Numerators lookup 26 subtable" seven.numr
Substitution2: "'sups' Superscript lookup 25 subtable" uni2077
Substitution2: "'sinf' Scientific Inferiors lookup 24 subtable" uni2087
Substitution2: "'subs' Subscript lookup 23 subtable" uni2087
AlternateSubs2: "'aalt' Access All Alternates lookup 1 subtable" uni2077 seven.tosf seven.lf uni2087 seven.dnom seven.numr
EndChar

StartChar: eight
Encoding: 56 56 26
Width: 600
Flags: W
LayerCount: 2
Fore
SplineSet
295.5 -10 m 0,0,1
 226.5 -10 226.5 -10 175.5 13 c 128,-1,2
 124.5 36 124.5 36 96.5 78.5 c 128,-1,3
 68.5 121 68.5 121 68.5 179 c 0,4,5
 68.5 230 68.5 230 88.5 266.5 c 128,-1,6
 108.5 303 108.5 303 141.5 329.5 c 128,-1,7
 174.5 356 174.5 356 214.5 374 c 1,8,9
 182.5 393 182.5 393 154 418.5 c 128,-1,10
 125.5 444 125.5 444 108.5 477.5 c 128,-1,11
 91.5 511 91.5 511 91.5 554 c 0,12,13
 91.5 610 91.5 610 120.5 648 c 128,-1,14
 149.5 686 149.5 686 197.5 705 c 128,-1,15
 245.5 724 245.5 724 301.5 724 c 256,16,17
 357.5 724 357.5 724 404.5 705 c 128,-1,18
 451.5 686 451.5 686 480 648 c 128,-1,19
 508.5 610 508.5 610 508.5 554 c 0,20,21
 508.5 488 508.5 488 470 446.5 c 128,-1,22
 431.5 405 431.5 405 373.5 378 c 1,23,24
 417.5 356 417.5 356 453.5 328.5 c 128,-1,25
 489.5 301 489.5 301 510.5 265 c 128,-1,26
 531.5 229 531.5 229 531.5 180 c 0,27,28
 531.5 125 531.5 125 502.5 82 c 128,-1,29
 473.5 39 473.5 39 421 14.5 c 128,-1,30
 368.5 -10 368.5 -10 295.5 -10 c 0,0,1
298.5 63 m 0,31,32
 369.5 63 369.5 63 407 97.5 c 128,-1,33
 444.5 132 444.5 132 444.5 185 c 0,34,35
 444.5 221 444.5 221 427 246 c 128,-1,36
 409.5 271 409.5 271 375 293 c 128,-1,37
 340.5 315 340.5 315 287.5 340 c 1,38,39
 247.5 322 247.5 322 218 299.5 c 128,-1,40
 188.5 277 188.5 277 172.5 247.5 c 128,-1,41
 156.5 218 156.5 218 156.5 180 c 0,42,43
 156.5 129 156.5 129 190.5 96 c 128,-1,44
 224.5 63 224.5 63 298.5 63 c 0,31,32
301.5 414 m 1,45,46
 335.5 429 335.5 429 362.5 447 c 128,-1,47
 389.5 465 389.5 465 405.5 490 c 128,-1,48
 421.5 515 421.5 515 421.5 549 c 0,49,50
 421.5 598 421.5 598 388.5 623.5 c 128,-1,51
 355.5 649 355.5 649 299.5 649 c 0,52,53
 244.5 649 244.5 649 211.5 624 c 128,-1,54
 178.5 599 178.5 599 178.5 549 c 0,55,56
 178.5 512 178.5 512 196.5 487 c 128,-1,57
 214.5 462 214.5 462 242.5 445 c 128,-1,58
 270.5 428 270.5 428 301.5 414 c 1,45,46
EndSplineSet
Substitution2: "'case' Case-Sensitive Forms lookup 40 subtable" eight.lf
Substitution2: "'onum' Oldstyle Figures lookup 37 subtable" eight.tosf
Substitution2: "'pnum' Proportional Numbers lookup 35 subtable" eight.lf
Substitution2: "'frac' Diagonal Fractions lookup 29 subtable" eight.numr
Substitution2: "'dnom' Denominators lookup 27 subtable" eight.dnom
Substitution2: "'numr' Numerators lookup 26 subtable" eight.numr
Substitution2: "'sups' Superscript lookup 25 subtable" uni2078
Substitution2: "'sinf' Scientific Inferiors lookup 24 subtable" uni2088
Substitution2: "'subs' Subscript lookup 23 subtable" uni2088
AlternateSubs2: "'aalt' Access All Alternates lookup 1 subtable" uni2078 eight.tosf eight.lf uni2088 eight.dnom eight.numr
EndChar

StartChar: nine
Encoding: 57 57 27
Width: 600
Flags: W
LayerCount: 2
Fore
SplineSet
217 -10 m 0,0,1
 194 -10 194 -10 170 -7.5 c 128,-1,2
 146 -5 146 -5 129 -1 c 1,3,-1
 129 78 l 1,4,5
 146 72 146 72 167.5 69 c 128,-1,6
 189 66 189 66 213 66 c 0,7,8
 281 66 281 66 326 88.5 c 128,-1,9
 371 111 371 111 397.5 150.5 c 128,-1,10
 424 190 424 190 436.5 241 c 128,-1,11
 449 292 449 292 451 350 c 1,12,-1
 445 350 l 1,13,14
 432 325 432 325 408.5 305 c 128,-1,15
 385 285 385 285 352.5 273.5 c 128,-1,16
 320 262 320 262 278 262 c 0,17,18
 178 262 178 262 119 320.5 c 128,-1,19
 60 379 60 379 60 488 c 0,20,21
 60 561 60 561 88.5 613.5 c 128,-1,22
 117 666 117 666 169.5 695 c 128,-1,23
 222 724 222 724 294 724 c 0,24,25
 349 724 349 724 394.5 705 c 128,-1,26
 440 686 440 686 472.5 645.5 c 128,-1,27
 505 605 505 605 522.5 542 c 128,-1,28
 540 479 540 479 540 391 c 0,29,30
 540 337 540 337 532 280.5 c 128,-1,31
 524 224 524 224 503.5 172 c 128,-1,32
 483 120 483 120 446.5 79 c 128,-1,33
 410 38 410 38 353.5 14 c 128,-1,34
 297 -10 297 -10 217 -10 c 0,0,1
287 332 m 0,35,36
 334 332 334 332 371 350.5 c 128,-1,37
 408 369 408 369 429.5 402 c 128,-1,38
 451 435 451 435 451 477 c 0,39,40
 451 503 451 503 441.5 532.5 c 128,-1,41
 432 562 432 562 413 588.5 c 128,-1,42
 394 615 394 615 364 632 c 128,-1,43
 334 649 334 649 293 649 c 0,44,45
 226 649 226 649 186 609 c 128,-1,46
 146 569 146 569 146 487 c 0,47,48
 146 406 146 406 183.5 369 c 128,-1,49
 221 332 221 332 287 332 c 0,35,36
EndSplineSet
Substitution2: "'case' Case-Sensitive Forms lookup 40 subtable" nine.lf
Substitution2: "'onum' Oldstyle Figures lookup 37 subtable" nine.tosf
Substitution2: "'pnum' Proportional Numbers lookup 35 subtable" nine.lf
Substitution2: "'frac' Diagonal Fractions lookup 29 subtable" nine.numr
Substitution2: "'dnom' Denominators lookup 27 subtable" nine.dnom
Substitution2: "'numr' Numerators lookup 26 subtable" nine.numr
Substitution2: "'sups' Superscript lookup 25 subtable" uni2079
Substitution2: "'sinf' Scientific Inferiors lookup 24 subtable" uni2089
Substitution2: "'subs' Subscript lookup 23 subtable" uni2089
AlternateSubs2: "'aalt' Access All Alternates lookup 1 subtable" uni2079 nine.tosf nine.lf uni2089 nine.dnom nine.numr
EndChar

StartChar: colon
Encoding: 58 58 28
Width: 600
Flags: W
LayerCount: 2
Fore
SplineSet
301 410 m 256,0,1
 275 410 275 410 257 426 c 128,-1,2
 239 442 239 442 239 478 c 0,3,4
 239 516 239 516 257 531 c 128,-1,5
 275 546 275 546 301 546 c 256,6,7
 327 546 327 546 344.5 531 c 128,-1,8
 362 516 362 516 362 478 c 0,9,10
 362 442 362 442 344.5 426 c 128,-1,11
 327 410 327 410 301 410 c 256,0,1
300 -10 m 256,12,13
 274 -10 274 -10 256 6 c 128,-1,14
 238 22 238 22 238 58 c 0,15,16
 238 96 238 96 256 111 c 128,-1,17
 274 126 274 126 300 126 c 256,18,19
 326 126 326 126 343.5 111 c 128,-1,20
 361 96 361 96 361 58 c 0,21,22
 361 22 361 22 343.5 6 c 128,-1,23
 326 -10 326 -10 300 -10 c 256,12,13
EndSplineSet
EndChar

StartChar: semicolon
Encoding: 59 59 29
Width: 600
Flags: W
LayerCount: 2
Fore
SplineSet
213 -140 m 1,0,1
 224 -96 224 -96 234 -48.5 c 128,-1,2
 244 -1 244 -1 253 45 c 128,-1,3
 262 91 262 91 267 129 c 1,4,-1
 374 129 l 1,5,-1
 382 117 l 1,6,7
 375 88 375 88 364 55.5 c 128,-1,8
 353 23 353 23 340.5 -10.5 c 128,-1,9
 328 -44 328 -44 314.5 -77 c 128,-1,10
 301 -110 301 -110 287 -140 c 1,11,-1
 213 -140 l 1,0,1
325 410 m 256,12,13
 299 410 299 410 281 426 c 128,-1,14
 263 442 263 442 263 478 c 0,15,16
 263 516 263 516 281 531 c 128,-1,17
 299 546 299 546 325 546 c 256,18,19
 351 546 351 546 369 531 c 128,-1,20
 387 516 387 516 387 478 c 0,21,22
 387 442 387 442 369 426 c 128,-1,23
 351 410 351 410 325 410 c 256,12,13
EndSplineSet
EndChar

StartChar: less
Encoding: 60 60 30
Width: 600
Flags: W
LayerCount: 2
Fore
SplineSet
510 116 m 1,0,-1
 90 323 l 1,1,-1
 90 373 l 1,2,-1
 510 608 l 1,3,-1
 510 530 l 1,4,-1
 184 351 l 1,5,-1
 510 194 l 1,6,-1
 510 116 l 1,0,-1
EndSplineSet
EndChar

StartChar: equal
Encoding: 61 61 31
Width: 600
Flags: W
LayerCount: 2
Fore
SplineSet
70 407 m 1,0,-1
 70 487 l 1,1,-1
 530 487 l 1,2,-1
 530 407 l 1,3,-1
 70 407 l 1,0,-1
70 217 m 1,4,-1
 70 297 l 1,5,-1
 530 297 l 1,6,-1
 530 217 l 1,7,-1
 70 217 l 1,4,-1
EndSplineSet
Substitution2: "'sups' Superscript lookup 25 subtable" uni207C
Substitution2: "'sinf' Scientific Inferiors lookup 24 subtable" uni208C
Substitution2: "'subs' Subscript lookup 23 subtable" uni208C
AlternateSubs2: "'aalt' Access All Alternates lookup 1 subtable" uni208C uni207C
EndChar

StartChar: greater
Encoding: 62 62 32
Width: 600
Flags: W
LayerCount: 2
Fore
SplineSet
90 116 m 1,0,-1
 90 194 l 1,1,-1
 416 351 l 1,2,-1
 90 530 l 1,3,-1
 90 608 l 1,4,-1
 510 373 l 1,5,-1
 510 323 l 1,6,-1
 90 116 l 1,0,-1
EndSplineSet
EndChar

StartChar: question
Encoding: 63 63 33
Width: 600
Flags: W
LayerCount: 2
Fore
SplineSet
230 220 m 2,0,1
 230 258 230 258 239 286 c 128,-1,2
 248 314 248 314 270.5 339.5 c 128,-1,3
 293 365 293 365 331 392 c 0,4,5
 365 416 365 416 385.5 437 c 128,-1,6
 406 458 406 458 415.5 483 c 128,-1,7
 425 508 425 508 425 545 c 0,8,9
 425 589 425 589 392.5 617.5 c 128,-1,10
 360 646 360 646 298 646 c 0,11,12
 246 646 246 646 204.5 633.5 c 128,-1,13
 163 621 163 621 122 602 c 1,14,-1
 90 677 l 1,15,16
 131 695 131 695 178.5 709.5 c 128,-1,17
 226 724 226 724 293 724 c 256,18,19
 360 724 360 724 408.5 702.5 c 128,-1,20
 457 681 457 681 483.5 642 c 128,-1,21
 510 603 510 603 510 549 c 0,22,23
 510 502 510 502 498 468 c 128,-1,24
 486 434 486 434 461.5 406.5 c 128,-1,25
 437 379 437 379 398 350 c 256,26,27
 359 321 359 321 339.5 300.5 c 128,-1,28
 320 280 320 280 314 260 c 128,-1,29
 308 240 308 240 308 211 c 2,30,-1
 308 202 l 1,31,-1
 230 202 l 1,32,-1
 230 220 l 2,0,1
273 -10 m 256,33,34
 247 -10 247 -10 229 6 c 128,-1,35
 211 22 211 22 211 58 c 0,36,37
 211 96 211 96 229 111 c 128,-1,38
 247 126 247 126 273 126 c 256,39,40
 299 126 299 126 317 111 c 128,-1,41
 335 96 335 96 335 58 c 0,42,43
 335 22 335 22 317 6 c 128,-1,44
 299 -10 299 -10 273 -10 c 256,33,34
EndSplineSet
Substitution2: "'smcp' Lowercase to Small Capitals lookup 39 subtable" question.sc
Substitution2: "'c2sc' Capitals to Small Capitals lookup 38 subtable" question.sc
Substitution2: "'aalt' Access All Alternates lookup 0 subtable" question.sc
EndChar

StartChar: at
Encoding: 64 64 34
Width: 600
Flags: W
LayerCount: 2
Fore
SplineSet
324 -89 m 0,0,1
 224 -89 224 -89 155 -42 c 128,-1,2
 86 5 86 5 50.5 91.5 c 128,-1,3
 15 178 15 178 15 294 c 0,4,5
 15 386 15 386 34.5 463 c 128,-1,6
 54 540 54 540 92.5 596 c 128,-1,7
 131 652 131 652 188 683 c 128,-1,8
 245 714 245 714 319 714 c 0,9,10
 400 714 400 714 459.5 671 c 128,-1,11
 519 628 519 628 552 548 c 128,-1,12
 585 468 585 468 585 357 c 0,13,14
 585 311 585 311 578.5 267 c 128,-1,15
 572 223 572 223 558.5 187 c 128,-1,16
 545 151 545 151 522.5 129.5 c 128,-1,17
 500 108 500 108 467 108 c 0,18,19
 433 108 433 108 414 135 c 128,-1,20
 395 162 395 162 390 196 c 1,21,-1
 388 196 l 1,22,23
 374 159 374 159 346 133.5 c 128,-1,24
 318 108 318 108 276 108 c 0,25,26
 215 108 215 108 182 160 c 128,-1,27
 149 212 149 212 149 296 c 0,28,29
 149 362 149 362 170 412.5 c 128,-1,30
 191 463 191 463 229.5 491.5 c 128,-1,31
 268 520 268 520 321 520 c 0,32,33
 357 520 357 520 392 512.5 c 128,-1,34
 427 505 427 505 446 497 c 1,35,-1
 435 294 l 2,36,37
 434 286 434 286 434 275.5 c 128,-1,38
 434 265 434 265 434 257 c 0,39,40
 434 205 434 205 445 188 c 128,-1,41
 456 171 456 171 469 171 c 0,42,43
 487 171 487 171 498 196.5 c 128,-1,44
 509 222 509 222 513.5 264.5 c 128,-1,45
 518 307 518 307 518 358 c 0,46,47
 518 497 518 497 462.5 572.5 c 128,-1,48
 407 648 407 648 318 648 c 0,49,50
 242 648 242 648 189.5 604 c 128,-1,51
 137 560 137 560 110.5 481.5 c 128,-1,52
 84 403 84 403 84 297 c 0,53,54
 84 199 84 199 111 127 c 128,-1,55
 138 55 138 55 192 16.5 c 128,-1,56
 246 -22 246 -22 327 -22 c 0,57,58
 377 -22 377 -22 419 -11 c 128,-1,59
 461 0 461 0 496 16 c 1,60,-1
 496 -49 l 1,61,62
 460 -67 460 -67 419 -78 c 128,-1,63
 378 -89 378 -89 324 -89 c 0,0,1
289 171 m 0,64,65
 326 171 326 171 341 213.5 c 128,-1,66
 356 256 356 256 360 323 c 2,67,-1
 367 447 l 1,68,69
 357 451 357 451 344 454 c 128,-1,70
 331 457 331 457 317 457 c 0,71,72
 284 457 284 457 264.5 433 c 128,-1,73
 245 409 245 409 236 372 c 128,-1,74
 227 335 227 335 227 294 c 0,75,76
 227 229 227 229 244 200 c 128,-1,77
 261 171 261 171 289 171 c 0,64,65
EndSplineSet
EndChar

StartChar: A
Encoding: 65 65 35
Width: 600
GlyphClass: 2
Flags: W
AnchorPoint: "Anchor-3" 590 536 basechar 0
AnchorPoint: "Anchor-2" 315 536 basechar 0
AnchorPoint: "Anchor-1" 310 0 basechar 0
AnchorPoint: "Anchor-0" 550 10 basechar 0
LayerCount: 2
Fore
SplineSet
341.5 606 m 5,0,1
 324.5 620 324.5 620 303.5 639.5 c 132,-1,2
 282.5 659 282.5 659 262 680.5 c 132,-1,3
 241.5 702 241.5 702 225 722 c 132,-1,4
 208.5 742 208.5 742 199.5 756 c 5,5,-1
 199.5 766 l 5,6,-1
 304.5 766 l 5,7,8
 315.5 744 315.5 744 332 716.5 c 132,-1,9
 348.5 689 348.5 689 367 663 c 132,-1,10
 385.5 637 385.5 637 400.5 618 c 5,11,-1
 400.5 606 l 5,12,-1
 341.5 606 l 5,0,1
256 -10 m 0,13,14
 177 -10 177 -10 128.5 29 c 128,-1,15
 80 68 80 68 80 147 c 0,16,17
 80 205 80 205 108 243.5 c 128,-1,18
 136 282 136 282 190.5 301.5 c 128,-1,19
 245 321 245 321 323 323 c 2,20,-1
 438 326 l 1,21,-1
 438 348 l 2,22,23
 438 420 438 420 402 446.5 c 128,-1,24
 366 473 366 473 305 473 c 0,25,26
 262 473 262 473 223 462 c 128,-1,27
 184 451 184 451 149 431 c 1,28,-1
 118 499 l 1,29,30
 156 518 156 518 202.5 532 c 128,-1,31
 249 546 249 546 310 546 c 0,32,33
 411 546 411 546 465.5 500.5 c 128,-1,34
 520 455 520 455 520 359 c 2,35,-1
 520 0 l 1,36,-1
 448 0 l 1,37,-1
 438 74 l 1,38,-1
 434 74 l 1,39,40
 412 46 412 46 385.5 27.5 c 128,-1,41
 359 9 359 9 327 -0.5 c 128,-1,42
 295 -10 295 -10 256 -10 c 0,13,14
271 63 m 0,43,44
 316 63 316 63 354 79.5 c 128,-1,45
 392 96 392 96 415 129.5 c 128,-1,46
 438 163 438 163 438 214 c 2,47,-1
 438 262 l 1,48,-1
 342 259 l 2,49,50
 278 257 278 257 239 243.5 c 128,-1,51
 200 230 200 230 182.5 206.5 c 128,-1,52
 165 183 165 183 165 150 c 0,53,54
 165 104 165 104 194 83.5 c 128,-1,55
 223 63 223 63 271 63 c 0,43,44
EndSplineSet
Substitution2: "'c2sc' Capitals to Small Capitals lookup 38 subtable" a.sc
Substitution2: "Single Substitution lookup 33 subtable" ordfeminine
AlternateSubs2: "'aalt' Access All Alternates lookup 1 subtable" ordfeminine a.sc
EndChar

StartChar: B
Encoding: 66 66 36
Width: 600
GlyphClass: 2
Flags: W
AnchorPoint: "Anchor-2" 275 765 basechar 0
AnchorPoint: "Anchor-1" 275 0 basechar 0
LayerCount: 2
Fore
SplineSet
360 -10 m 0,0,1
 317 -10 317 -10 281 -1 c 128,-1,2
 245 8 245 8 219 24 c 1,3,-1
 219 105 l 1,4,5
 245 89 245 89 283 76 c 128,-1,6
 321 63 321 63 363 63 c 0,7,8
 416 63 416 63 439 86.5 c 128,-1,9
 462 110 462 110 462 153 c 0,10,11
 462 178 462 178 453.5 194 c 128,-1,12
 445 210 445 210 425 226 c 128,-1,13
 405 242 405 242 368 267 c 0,14,15
 331 293 331 293 307 313 c 128,-1,16
 283 333 283 333 271.5 354 c 128,-1,17
 260 375 260 375 260 403 c 0,18,19
 260 437 260 437 273.5 460 c 128,-1,20
 287 483 287 483 307.5 499.5 c 128,-1,21
 328 516 328 516 348 531.5 c 128,-1,22
 368 547 368 547 381.5 565.5 c 128,-1,23
 395 584 395 584 395 610 c 0,24,25
 395 651 395 651 360.5 670 c 128,-1,26
 326 689 326 689 270 689 c 0,27,28
 235 689 235 689 205 679.5 c 128,-1,29
 175 670 175 670 156.5 647 c 128,-1,30
 138 624 138 624 138 581 c 2,31,-1
 138 0 l 1,32,-1
 50 0 l 1,33,-1
 50 584 l 2,34,35
 50 651 50 651 79 690.5 c 128,-1,36
 108 730 108 730 157.5 747.5 c 128,-1,37
 207 765 207 765 270 765 c 0,38,39
 335 765 335 765 383.5 748.5 c 128,-1,40
 432 732 432 732 459 700 c 128,-1,41
 486 668 486 668 486 620 c 0,42,43
 486 584 486 584 472 558 c 128,-1,44
 458 532 458 532 437 512.5 c 128,-1,45
 416 493 416 493 395 477 c 128,-1,46
 374 461 374 461 360 444.5 c 128,-1,47
 346 428 346 428 346 407 c 0,48,49
 346 394 346 394 354 383.5 c 128,-1,50
 362 373 362 373 381.5 360 c 128,-1,51
 401 347 401 347 434 323 c 0,52,53
 469 299 469 299 495 276 c 128,-1,54
 521 253 521 253 535.5 223.5 c 128,-1,55
 550 194 550 194 550 150 c 0,56,57
 550 95 550 95 526 59.5 c 128,-1,58
 502 24 502 24 459.5 7 c 128,-1,59
 417 -10 417 -10 360 -10 c 0,0,1
EndSplineSet
Substitution2: "'c2sc' Capitals to Small Capitals lookup 38 subtable" b.sc
Substitution2: "'aalt' Access All Alternates lookup 0 subtable" b.sc
EndChar

StartChar: C
Encoding: 67 67 37
Width: 600
GlyphClass: 2
Flags: W
AnchorPoint: "Anchor-2" 300 536 basechar 0
AnchorPoint: "Anchor-1" 300 0 basechar 0
LayerCount: 2
Fore
SplineSet
324 622 m 260,0,1
 302 622 302 622 286 636.5 c 132,-1,2
 270 651 270 651 270 681 c 4,3,4
 270 712 270 712 286 725 c 132,-1,5
 302 738 302 738 324 738 c 260,6,7
 346 738 346 738 362.5 725 c 132,-1,8
 379 712 379 712 379 681 c 4,9,10
 379 651 379 651 362.5 636.5 c 132,-1,11
 346 622 346 622 324 622 c 260,0,1
357 -10 m 0,12,13
 277 -10 277 -10 221 20 c 128,-1,14
 165 50 165 50 135.5 107.5 c 128,-1,15
 106 165 106 165 106 245 c 0,16,17
 106 328 106 328 137 384 c 128,-1,18
 168 440 168 440 226.5 468.5 c 128,-1,19
 285 497 285 497 366 497 c 1,20,-1
 401 465 l 1,21,22
 338 465 338 465 292.5 441 c 128,-1,23
 247 417 247 417 222.5 370 c 128,-1,24
 198 323 198 323 198 252 c 0,25,26
 198 194 198 194 217.5 152 c 128,-1,27
 237 110 237 110 274.5 87 c 128,-1,28
 312 64 312 64 366 64 c 0,29,30
 403 64 403 64 437 73.5 c 128,-1,31
 471 83 471 83 504 99 c 1,32,-1
 504 21 l 1,33,34
 479 8 479 8 437.5 -1 c 128,-1,35
 396 -10 396 -10 357 -10 c 0,12,13
85 465 m 1,36,-1
 85 537 l 1,37,-1
 515 537 l 1,38,-1
 515 465 l 1,39,-1
 85 465 l 1,36,-1
EndSplineSet
Substitution2: "'c2sc' Capitals to Small Capitals lookup 38 subtable" c.sc
Substitution2: "'aalt' Access All Alternates lookup 0 subtable" c.sc
EndChar

StartChar: D
Encoding: 68 68 38
Width: 600
GlyphClass: 2
Flags: W
AnchorPoint: "Anchor-4" 312.5 268 basechar 0
AnchorPoint: "Anchor-3" 592.5 760 basechar 0
AnchorPoint: "Anchor-2" 312.5 760 basechar 0
AnchorPoint: "Anchor-1" 312.5 0 basechar 0
LayerCount: 2
Fore
SplineSet
116.5 238 m 1,0,-1
 116.5 303 l 1,1,-1
 492.5 303 l 1,2,-1
 492.5 238 l 1,3,-1
 116.5 238 l 1,0,-1
286.5 -10 m 0,4,5
 237.5 -10 237.5 -10 197 7 c 128,-1,6
 156.5 24 156.5 24 127.5 59 c 128,-1,7
 98.5 94 98.5 94 83 147 c 128,-1,8
 67.5 200 67.5 200 67.5 271 c 0,9,10
 67.5 360 67.5 360 93 421.5 c 128,-1,11
 118.5 483 118.5 483 169.5 514.5 c 128,-1,12
 220.5 546 220.5 546 296.5 546 c 0,13,14
 333.5 546 333.5 546 362 536 c 128,-1,15
 390.5 526 390.5 526 411 508.5 c 128,-1,16
 431.5 491 431.5 491 443.5 468 c 1,17,-1
 449.5 468 l 1,18,19
 448.5 478 448.5 478 447 491.5 c 128,-1,20
 445.5 505 445.5 505 444.5 519.5 c 128,-1,21
 443.5 534 443.5 534 443.5 547 c 2,22,-1
 443.5 760 l 1,23,-1
 532.5 760 l 1,24,-1
 532.5 0 l 1,25,-1
 458.5 0 l 1,26,-1
 448.5 72 l 1,27,-1
 444.5 72 l 1,28,29
 429.5 48 429.5 48 408 29.5 c 128,-1,30
 386.5 11 386.5 11 357 0.5 c 128,-1,31
 327.5 -10 327.5 -10 286.5 -10 c 0,4,5
303.5 63 m 0,32,33
 374.5 63 374.5 63 409 112.5 c 128,-1,34
 443.5 162 443.5 162 443.5 247 c 2,35,-1
 443.5 267 l 2,36,37
 443.5 326 443.5 326 430.5 372.5 c 128,-1,38
 417.5 419 417.5 419 387.5 446 c 128,-1,39
 357.5 473 357.5 473 306.5 473 c 0,40,41
 236.5 473 236.5 473 198 421 c 128,-1,42
 159.5 369 159.5 369 159.5 262 c 0,43,44
 159.5 163 159.5 163 195 113 c 128,-1,45
 230.5 63 230.5 63 303.5 63 c 0,32,33
EndSplineSet
Substitution2: "'c2sc' Capitals to Small Capitals lookup 38 subtable" d.sc
Substitution2: "'aalt' Access All Alternates lookup 0 subtable" d.sc
EndChar

StartChar: E
Encoding: 69 69 39
Width: 600
GlyphClass: 2
Flags: W
AnchorPoint: "Anchor-3" 575 714 basechar 0
AnchorPoint: "Anchor-2" 301 714 basechar 0
AnchorPoint: "Anchor-1" 299 0 basechar 0
AnchorPoint: "Anchor-0" 452 10 basechar 0
LayerCount: 2
Fore
SplineSet
90 0 m 1,0,-1
 90 714 l 1,1,-1
 510 714 l 1,2,-1
 510 634 l 1,3,-1
 180 634 l 1,4,-1
 180 413 l 1,5,-1
 491 413 l 1,6,-1
 491 333 l 1,7,-1
 180 333 l 1,8,-1
 180 80 l 1,9,-1
 510 80 l 1,10,-1
 510 0 l 1,11,-1
 90 0 l 1,0,-1
EndSplineSet
Substitution2: "'c2sc' Capitals to Small Capitals lookup 38 subtable" e.sc
Substitution2: "'aalt' Access All Alternates lookup 0 subtable" e.sc
EndChar

StartChar: F
Encoding: 70 70 40
Width: 600
GlyphClass: 2
Flags: W
AnchorPoint: "Anchor-3" 575 714 basechar 0
AnchorPoint: "Anchor-2" 312 714 basechar 0
AnchorPoint: "Anchor-1" 312 0 basechar 0
LayerCount: 2
Fore
SplineSet
90 0 m 1,0,-1
 90 714 l 1,1,-1
 510 714 l 1,2,-1
 510 634 l 1,3,-1
 180 634 l 1,4,-1
 180 382 l 1,5,-1
 491 382 l 1,6,-1
 491 302 l 1,7,-1
 180 302 l 1,8,-1
 180 0 l 1,9,-1
 90 0 l 1,0,-1
EndSplineSet
Substitution2: "'c2sc' Capitals to Small Capitals lookup 38 subtable" f.sc
Substitution2: "'aalt' Access All Alternates lookup 0 subtable" f.sc
EndChar

StartChar: G
Encoding: 71 71 41
Width: 600
GlyphClass: 2
Flags: W
AnchorPoint: "Anchor-3" 592.5 536 basechar 0
AnchorPoint: "Anchor-2" 312.5 737 basechar 0
AnchorPoint: "Anchor-1" 312.5 -245 basechar 0
LayerCount: 2
Fore
SplineSet
288.5 -245 m 0,0,1
 233.5 -245 233.5 -245 185 -234.5 c 128,-1,2
 136.5 -224 136.5 -224 95.5 -207 c 1,3,-1
 95.5 -127 l 1,4,5
 135.5 -150 135.5 -150 188 -161.5 c 128,-1,6
 240.5 -173 240.5 -173 285.5 -173 c 0,7,8
 376.5 -173 376.5 -173 412.5 -130.5 c 128,-1,9
 448.5 -88 448.5 -88 448.5 -14 c 2,10,-1
 448.5 5 l 2,11,12
 448.5 17 448.5 17 449 28 c 128,-1,13
 449.5 39 449.5 39 451.5 62 c 1,14,-1
 447.5 62 l 1,15,16
 419.5 21 419.5 21 382 5.5 c 128,-1,17
 344.5 -10 344.5 -10 291.5 -10 c 0,18,19
 185.5 -10 185.5 -10 126.5 62.5 c 128,-1,20
 67.5 135 67.5 135 67.5 265 c 0,21,22
 67.5 396 67.5 396 126 471 c 128,-1,23
 184.5 546 184.5 546 286.5 546 c 0,24,25
 340.5 546 340.5 546 377.5 528.5 c 128,-1,26
 414.5 511 414.5 511 443.5 470 c 1,27,-1
 448.5 470 l 1,28,-1
 460.5 536 l 1,29,-1
 532.5 536 l 1,30,-1
 532.5 -14 l 2,31,32
 532.5 -90 532.5 -90 506.5 -141.5 c 128,-1,33
 480.5 -193 480.5 -193 426.5 -219 c 128,-1,34
 372.5 -245 372.5 -245 288.5 -245 c 0,0,1
308.5 63 m 0,35,36
 341.5 63 341.5 63 368 73.5 c 128,-1,37
 394.5 84 394.5 84 413 106.5 c 128,-1,38
 431.5 129 431.5 129 441.5 163.5 c 128,-1,39
 451.5 198 451.5 198 451.5 246 c 2,40,-1
 451.5 267 l 2,41,42
 451.5 340 451.5 340 434 385.5 c 128,-1,43
 416.5 431 416.5 431 383.5 452 c 128,-1,44
 350.5 473 350.5 473 305.5 473 c 0,45,46
 229.5 473 229.5 473 194.5 419.5 c 128,-1,47
 159.5 366 159.5 366 159.5 268 c 0,48,49
 159.5 168 159.5 168 196 115.5 c 128,-1,50
 232.5 63 232.5 63 308.5 63 c 0,35,36
311.5 633 m 256,51,52
 285.5 633 285.5 633 267 649 c 128,-1,53
 248.5 665 248.5 665 248.5 696 c 0,54,55
 248.5 729 248.5 729 267 744.5 c 128,-1,56
 285.5 760 285.5 760 311.5 760 c 256,57,58
 337.5 760 337.5 760 356 744.5 c 128,-1,59
 374.5 729 374.5 729 374.5 696 c 0,60,61
 374.5 665 374.5 665 356 649 c 128,-1,62
 337.5 633 337.5 633 311.5 633 c 256,51,52
EndSplineSet
Substitution2: "'c2sc' Capitals to Small Capitals lookup 38 subtable" g.sc
Substitution2: "'aalt' Access All Alternates lookup 0 subtable" g.sc
EndChar

StartChar: H
Encoding: 72 72 42
Width: 600
GlyphClass: 2
Flags: W
LayerCount: 2
Fore
SplineSet
77.5 611 m 2,0,1
 77.5 665 77.5 665 95 699 c 128,-1,2
 112.5 733 112.5 733 146 749 c 128,-1,3
 179.5 765 179.5 765 225.5 765 c 0,4,5
 254.5 765 254.5 765 279 760.5 c 128,-1,6
 303.5 756 303.5 756 319.5 749 c 1,7,-1
 304.5 680 l 1,8,9
 288.5 685 288.5 685 271.5 688.5 c 128,-1,10
 254.5 692 254.5 692 235.5 692 c 0,11,12
 199.5 692 199.5 692 183.5 671.5 c 128,-1,13
 167.5 651 167.5 651 167.5 613 c 2,14,-1
 167.5 544 l 2,15,16
 167.5 525 167.5 525 166 496 c 128,-1,17
 164.5 467 164.5 467 163.5 450 c 1,18,-1
 168.5 450 l 1,19,20
 185.5 483 185.5 483 211 504 c 128,-1,21
 236.5 525 236.5 525 268.5 535.5 c 128,-1,22
 300.5 546 300.5 546 336.5 546 c 0,23,24
 419.5 546 419.5 546 471 499.5 c 128,-1,25
 522.5 453 522.5 453 522.5 350 c 2,26,-1
 522.5 0 l 1,27,-1
 432.5 0 l 1,28,-1
 432.5 332 l 2,29,30
 432.5 405 432.5 405 401.5 439 c 128,-1,31
 370.5 473 370.5 473 313.5 473 c 0,32,33
 269.5 473 269.5 473 236.5 450 c 128,-1,34
 203.5 427 203.5 427 185.5 383.5 c 128,-1,35
 167.5 340 167.5 340 167.5 278 c 2,36,-1
 167.5 0 l 1,37,-1
 77.5 0 l 1,38,-1
 77.5 611 l 2,0,1
EndSplineSet
Substitution2: "'c2sc' Capitals to Small Capitals lookup 38 subtable" h.sc
Substitution2: "'aalt' Access All Alternates lookup 0 subtable" h.sc
EndChar

StartChar: I
Encoding: 73 73 43
Width: 600
GlyphClass: 2
Flags: W
AnchorPoint: "Anchor-4" 310 283 basechar 0
AnchorPoint: "Anchor-2" 290 766 basechar 0
AnchorPoint: "Anchor-1" 290 0 basechar 0
LayerCount: 2
Fore
SplineSet
70 0 m 1,0,-1
 70 60 l 1,1,-1
 261 75 l 1,2,-1
 261 461 l 1,3,-1
 86 474 l 1,4,-1
 86 536 l 1,5,-1
 351 536 l 1,6,-1
 351 75 l 1,7,-1
 530 60 l 1,8,-1
 530 0 l 1,9,-1
 70 0 l 1,0,-1
249 618 m 1,10,11
 264 637 264 637 281.5 663 c 128,-1,12
 299 689 299 689 316 716.5 c 128,-1,13
 333 744 333 744 344 766 c 1,14,-1
 450 766 l 1,15,-1
 450 756 l 1,16,17
 438 738 438 738 413 709.5 c 128,-1,18
 388 681 388 681 359.5 652.5 c 128,-1,19
 331 624 331 624 307 606 c 1,20,-1
 249 606 l 1,21,-1
 249 618 l 1,10,11
EndSplineSet
Substitution2: "'ss04' Style Set 4 lookup 45 subtable" I.salt
Substitution2: "'c2sc' Capitals to Small Capitals lookup 38 subtable" i.sc
AlternateSubs2: "'aalt' Access All Alternates lookup 1 subtable" I.salt i.sc
EndChar

StartChar: J
Encoding: 74 74 44
Width: 600
GlyphClass: 2
Flags: W
LayerCount: 2
Fore
SplineSet
517.5 647 m 5,0,1
 490.5 640 490.5 640 469.5 623.5 c 132,-1,2
 448.5 607 448.5 607 436.5 578.5 c 132,-1,3
 424.5 550 424.5 550 424.5 506 c 6,4,-1
 424.5 401 l 5,5,-1
 514.5 401 l 5,6,-1
 514.5 335 l 5,7,-1
 424.5 335 l 5,8,-1
 424.5 187 l 6,9,10
 424.5 98 424.5 98 374 48 c 132,-1,11
 323.5 -2 323.5 -2 240.5 -2 c 4,12,13
 194.5 -2 194.5 -2 159.5 8.5 c 132,-1,14
 124.5 19 124.5 19 91.5 39 c 5,15,-1
 122.5 107 l 5,16,17
 150.5 89 150.5 89 177.5 81 c 132,-1,18
 204.5 73 204.5 73 232.5 73 c 4,19,20
 284.5 73 284.5 73 310.5 101.5 c 132,-1,21
 336.5 130 336.5 130 336.5 196 c 6,22,-1
 336.5 335 l 5,23,-1
 159.5 335 l 5,24,-1
 159.5 401 l 5,25,-1
 336.5 401 l 5,26,-1
 336.5 505 l 6,27,28
 336.5 532 336.5 532 345.5 559.5 c 132,-1,29
 354.5 587 354.5 587 368.5 608.5 c 132,-1,30
 382.5 630 382.5 630 398.5 641 c 5,31,-1
 82.5 641 l 5,32,-1
 82.5 721 l 5,33,-1
 517.5 721 l 5,34,-1
 517.5 647 l 5,0,1
EndSplineSet
Substitution2: "'ss04' Style Set 4 lookup 45 subtable" J.salt
Substitution2: "'c2sc' Capitals to Small Capitals lookup 38 subtable" j.sc
AlternateSubs2: "'aalt' Access All Alternates lookup 1 subtable" J.salt j.sc
EndChar

StartChar: K
Encoding: 75 75 45
Width: 600
GlyphClass: 2
Flags: W
AnchorPoint: "Anchor-2" 260 536 basechar 0
AnchorPoint: "Anchor-1" 260 0 basechar 0
LayerCount: 2
Fore
SplineSet
258.5 633 m 260,0,1
 232.5 633 232.5 633 214 649 c 132,-1,2
 195.5 665 195.5 665 195.5 696 c 4,3,4
 195.5 729 195.5 729 214 744.5 c 132,-1,5
 232.5 760 232.5 760 258.5 760 c 260,6,7
 284.5 760 284.5 760 303 744.5 c 132,-1,8
 321.5 729 321.5 729 321.5 696 c 4,9,10
 321.5 665 321.5 665 303 649 c 132,-1,11
 284.5 633 284.5 633 258.5 633 c 260,0,1
90 0 m 1,12,-1
 90 536 l 1,13,-1
 179 536 l 1,14,-1
 179 291 l 1,15,16
 199 317 199 317 215 334 c 128,-1,17
 231 351 231 351 238 359 c 2,18,-1
 400 536 l 1,19,-1
 503 536 l 1,20,-1
 284 301 l 1,21,-1
 510 0 l 1,22,-1
 407 0 l 1,23,-1
 222 244 l 1,24,-1
 179 207 l 1,25,-1
 179 0 l 1,26,-1
 90 0 l 1,12,-1
EndSplineSet
Substitution2: "'c2sc' Capitals to Small Capitals lookup 38 subtable" k.sc
Substitution2: "'aalt' Access All Alternates lookup 0 subtable" k.sc
EndChar

StartChar: L
Encoding: 76 76 46
Width: 600
GlyphClass: 2
Flags: W
LayerCount: 2
Fore
SplineSet
82.5 74 m 1,0,1
 109.5 81 109.5 81 130.5 97.5 c 128,-1,2
 151.5 114 151.5 114 163.5 142.5 c 128,-1,3
 175.5 171 175.5 171 175.5 215 c 2,4,-1
 175.5 320 l 1,5,-1
 85.5 320 l 1,6,-1
 85.5 386 l 1,7,-1
 175.5 386 l 1,8,-1
 175.5 534 l 2,9,10
 175.5 623 175.5 623 226 673 c 128,-1,11
 276.5 723 276.5 723 359.5 723 c 0,12,13
 405.5 723 405.5 723 440.5 712.5 c 128,-1,14
 475.5 702 475.5 702 508.5 682 c 1,15,-1
 477.5 614 l 1,16,17
 449.5 632 449.5 632 422.5 640 c 128,-1,18
 395.5 648 395.5 648 367.5 648 c 0,19,20
 315.5 648 315.5 648 289.5 619.5 c 128,-1,21
 263.5 591 263.5 591 263.5 525 c 2,22,-1
 263.5 386 l 1,23,-1
 440.5 386 l 1,24,-1
 440.5 320 l 1,25,-1
 263.5 320 l 1,26,-1
 263.5 216 l 2,27,28
 263.5 189 263.5 189 254.5 161.5 c 128,-1,29
 245.5 134 245.5 134 231.5 112.5 c 128,-1,30
 217.5 91 217.5 91 201.5 80 c 1,31,-1
 517.5 80 l 1,32,-1
 517.5 0 l 1,33,-1
 82.5 0 l 1,34,-1
 82.5 74 l 1,0,1
EndSplineSet
Substitution2: "'c2sc' Capitals to Small Capitals lookup 38 subtable" l.sc
Substitution2: "'aalt' Access All Alternates lookup 0 subtable" l.sc
EndChar

StartChar: M
Encoding: 77 77 47
Width: 600
GlyphClass: 2
Flags: W
AnchorPoint: "Anchor-3" 579.5 536 basechar 0
AnchorPoint: "Anchor-2" 325.5 536 basechar 0
AnchorPoint: "Anchor-1" 304.5 0 basechar 0
LayerCount: 2
Fore
SplineSet
309.5 633 m 260,0,1
 283.5 633 283.5 633 265 649 c 132,-1,2
 246.5 665 246.5 665 246.5 696 c 4,3,4
 246.5 729 246.5 729 265 744.5 c 132,-1,5
 283.5 760 283.5 760 309.5 760 c 260,6,7
 335.5 760 335.5 760 354 744.5 c 132,-1,8
 372.5 729 372.5 729 372.5 696 c 4,9,10
 372.5 665 372.5 665 354 649 c 132,-1,11
 335.5 633 335.5 633 309.5 633 c 260,0,1
49.5 0 m 1,12,-1
 49.5 536 l 1,13,-1
 111.5 536 l 1,14,-1
 124.5 477 l 1,15,-1
 129.5 477 l 1,16,17
 142.5 504 142.5 504 157.5 519 c 128,-1,18
 172.5 534 172.5 534 190 540 c 128,-1,19
 207.5 546 207.5 546 228.5 546 c 0,20,21
 269.5 546 269.5 546 292 526.5 c 128,-1,22
 314.5 507 314.5 507 326.5 469 c 1,23,-1
 329.5 469 l 1,24,25
 346.5 506 346.5 506 372 526 c 128,-1,26
 397.5 546 397.5 546 439.5 546 c 0,27,28
 480.5 546 480.5 546 505 525 c 128,-1,29
 529.5 504 529.5 504 540 461 c 128,-1,30
 550.5 418 550.5 418 550.5 350 c 2,31,-1
 550.5 0 l 1,32,-1
 470.5 0 l 1,33,-1
 470.5 335 l 2,34,35
 470.5 377 470.5 377 467 406.5 c 128,-1,36
 463.5 436 463.5 436 452.5 452 c 128,-1,37
 441.5 468 441.5 468 416.5 468 c 0,38,39
 392.5 468 392.5 468 375.5 445.5 c 128,-1,40
 358.5 423 358.5 423 349.5 379 c 128,-1,41
 340.5 335 340.5 335 340.5 268 c 2,42,-1
 340.5 0 l 1,43,-1
 260.5 0 l 1,44,-1
 260.5 335 l 2,45,46
 260.5 378 260.5 378 255.5 407.5 c 128,-1,47
 250.5 437 250.5 437 238 452.5 c 128,-1,48
 225.5 468 225.5 468 200.5 468 c 0,49,50
 174.5 468 174.5 468 158.5 443.5 c 128,-1,51
 142.5 419 142.5 419 136 374.5 c 128,-1,52
 129.5 330 129.5 330 129.5 268 c 2,53,-1
 129.5 0 l 1,54,-1
 49.5 0 l 1,12,-1
EndSplineSet
Substitution2: "'c2sc' Capitals to Small Capitals lookup 38 subtable" m.sc
Substitution2: "'aalt' Access All Alternates lookup 0 subtable" m.sc
EndChar

StartChar: N
Encoding: 78 78 48
Width: 600
GlyphClass: 2
Flags: W
AnchorPoint: "Anchor-3" 577.5 536 basechar 0
AnchorPoint: "Anchor-2" 309.5 536 basechar 0
AnchorPoint: "Anchor-1" 303.5 0 basechar 0
LayerCount: 2
Fore
SplineSet
309.5 633 m 260,0,1
 283.5 633 283.5 633 265 649 c 132,-1,2
 246.5 665 246.5 665 246.5 696 c 4,3,4
 246.5 729 246.5 729 265 744.5 c 132,-1,5
 283.5 760 283.5 760 309.5 760 c 260,6,7
 335.5 760 335.5 760 354 744.5 c 132,-1,8
 372.5 729 372.5 729 372.5 696 c 4,9,10
 372.5 665 372.5 665 354 649 c 132,-1,11
 335.5 633 335.5 633 309.5 633 c 260,0,1
77.5 0 m 1,12,-1
 77.5 536 l 1,13,-1
 149.5 536 l 1,14,-1
 162.5 457 l 1,15,-1
 167.5 457 l 1,16,17
 183.5 488 183.5 488 209 507.5 c 128,-1,18
 234.5 527 234.5 527 268.5 536.5 c 128,-1,19
 302.5 546 302.5 546 342.5 546 c 0,20,21
 423.5 546 423.5 546 473 500.5 c 128,-1,22
 522.5 455 522.5 455 522.5 358 c 2,23,-1
 522.5 0 l 1,24,-1
 432.5 0 l 1,25,-1
 432.5 342 l 2,26,27
 432.5 410 432.5 410 405 441.5 c 128,-1,28
 377.5 473 377.5 473 316.5 473 c 0,29,30
 234.5 473 234.5 473 201 421 c 128,-1,31
 167.5 369 167.5 369 167.5 275 c 2,32,-1
 167.5 0 l 1,33,-1
 77.5 0 l 1,12,-1
EndSplineSet
Substitution2: "'c2sc' Capitals to Small Capitals lookup 38 subtable" n.sc
Substitution2: "'aalt' Access All Alternates lookup 0 subtable" n.sc
EndChar

StartChar: O
Encoding: 79 79 49
Width: 600
GlyphClass: 2
Flags: W
AnchorPoint: "Anchor-4" 300 268 basechar 0
AnchorPoint: "Anchor-3" 580 536 basechar 0
AnchorPoint: "Anchor-2" 300 536 basechar 0
AnchorPoint: "Anchor-1" 300 0 basechar 0
AnchorPoint: "Anchor-0" 301 10 basechar 0
LayerCount: 2
Fore
SplineSet
309.5 633 m 260,0,1
 283.5 633 283.5 633 265 649 c 132,-1,2
 246.5 665 246.5 665 246.5 696 c 4,3,4
 246.5 729 246.5 729 265 744.5 c 132,-1,5
 283.5 760 283.5 760 309.5 760 c 260,6,7
 335.5 760 335.5 760 354 744.5 c 132,-1,8
 372.5 729 372.5 729 372.5 696 c 4,9,10
 372.5 665 372.5 665 354 649 c 132,-1,11
 335.5 633 335.5 633 309.5 633 c 260,0,1
94 233 m 1,12,-1
 94 311 l 1,13,-1
 512 311 l 1,14,-1
 512 233 l 1,15,-1
 94 233 l 1,12,-1
301 -10 m 0,16,17
 249 -10 249 -10 204 7 c 128,-1,18
 159 24 159 24 125.5 59 c 128,-1,19
 92 94 92 94 73.5 146.5 c 128,-1,20
 55 199 55 199 55 270 c 0,21,22
 55 363 55 363 86.5 424 c 128,-1,23
 118 485 118 485 173 515.5 c 128,-1,24
 228 546 228 546 298 546 c 256,25,26
 368 546 368 546 424 515.5 c 128,-1,27
 480 485 480 485 512.5 423.5 c 128,-1,28
 545 362 545 362 545 267 c 0,29,30
 545 197 545 197 526.5 145 c 128,-1,31
 508 93 508 93 475.5 58.5 c 128,-1,32
 443 24 443 24 398.5 7 c 128,-1,33
 354 -10 354 -10 301 -10 c 0,16,17
300 63 m 256,34,35
 352 63 352 63 386 88 c 128,-1,36
 420 113 420 113 437 159.5 c 128,-1,37
 454 206 454 206 454 269 c 0,38,39
 454 333 454 333 437 378.5 c 128,-1,40
 420 424 420 424 385.5 448.5 c 128,-1,41
 351 473 351 473 299 473 c 0,42,43
 221 473 221 473 182.5 418.5 c 128,-1,44
 144 364 144 364 144 269 c 0,45,46
 144 206 144 206 161.5 159.5 c 128,-1,47
 179 113 179 113 213.5 88 c 128,-1,48
 248 63 248 63 300 63 c 256,34,35
EndSplineSet
Substitution2: "'c2sc' Capitals to Small Capitals lookup 38 subtable" o.sc
Substitution2: "Single Substitution lookup 33 subtable" ordmasculine
AlternateSubs2: "'aalt' Access All Alternates lookup 1 subtable" ordmasculine o.sc
EndChar

StartChar: P
Encoding: 80 80 50
Width: 600
GlyphClass: 2
Flags: W
AnchorPoint: "Anchor-2" 297 553 basechar 0
AnchorPoint: "Anchor-1" 297 -240 basechar 0
LayerCount: 2
Fore
SplineSet
264.5 633 m 260,0,1
 238.5 633 238.5 633 220 649 c 132,-1,2
 201.5 665 201.5 665 201.5 696 c 4,3,4
 201.5 729 201.5 729 220 744.5 c 132,-1,5
 238.5 760 238.5 760 264.5 760 c 260,6,7
 290.5 760 290.5 760 309 744.5 c 132,-1,8
 327.5 729 327.5 729 327.5 696 c 4,9,10
 327.5 665 327.5 665 309 649 c 132,-1,11
 290.5 633 290.5 633 264.5 633 c 260,0,1
73 -240 m 1,12,-1
 73 536 l 1,13,-1
 145 536 l 1,14,-1
 157 463 l 1,15,-1
 161 463 l 1,16,17
 176 486 176 486 197 505 c 128,-1,18
 218 524 218 524 248 535 c 128,-1,19
 278 546 278 546 319 546 c 0,20,21
 379 546 379 546 426 521 c 128,-1,22
 473 496 473 496 500 446.5 c 128,-1,23
 527 397 527 397 527 323 c 0,24,25
 527 252 527 252 500 193 c 128,-1,26
 473 134 473 134 424 90.5 c 128,-1,27
 375 47 375 47 308 21 c 128,-1,28
 241 -5 241 -5 161 -10 c 1,29,-1
 161 -240 l 1,30,-1
 73 -240 l 1,12,-1
161 62 m 1,31,32
 226 70 226 70 276.5 91.5 c 128,-1,33
 327 113 327 113 363 146.5 c 128,-1,34
 399 180 399 180 417.5 224 c 128,-1,35
 436 268 436 268 436 321 c 0,36,37
 436 367 436 367 420 400.5 c 128,-1,38
 404 434 404 434 374 453 c 128,-1,39
 344 472 344 472 301 472 c 0,40,41
 251 472 251 472 220 451.5 c 128,-1,42
 189 431 189 431 175 390 c 128,-1,43
 161 349 161 349 161 286 c 2,44,-1
 161 62 l 1,31,32
EndSplineSet
Substitution2: "'c2sc' Capitals to Small Capitals lookup 38 subtable" p.sc
Substitution2: "'aalt' Access All Alternates lookup 0 subtable" p.sc
EndChar

StartChar: Q
Encoding: 81 81 51
Width: 600
GlyphClass: 2
Flags: W
LayerCount: 2
Fore
SplineSet
551 -5 m 1,0,1
 531 -5 531 -5 512 2 c 128,-1,2
 493 9 493 9 479 26 c 1,3,-1
 479 291 l 5,4,5
 451 266 451 266 414 250.5 c 132,-1,6
 377 235 377 235 327 235 c 4,7,8
 285 235 285 235 236 258 c 132,-1,9
 187 281 187 281 145 318 c 132,-1,10
 103 355 103 355 75 401 c 132,-1,11
 47 447 47 447 47 493 c 4,12,13
 47 541 47 541 64.5 578 c 132,-1,14
 82 615 82 615 112 640.5 c 132,-1,15
 142 666 142 666 182.5 679 c 132,-1,16
 223 692 223 692 269 692 c 4,17,18
 303 692 303 692 333 684 c 4,19,20
 382 671 382 671 389 662.5 c 4,21,22
 424 622 424 622 437.5 631.5 c 4,23,24
 441 634 441 634 479 718 c 5,25,-1
 477 717 l 5,26,-1
 553 717 l 6,27,-1
 551 -5 l 1,0,1
270 292 m 4,28,29
 308 292 308 292 344 304.5 c 132,-1,30
 380 317 380 317 410 340 c 5,31,-1
 177 580 l 5,32,33
 150 556 150 556 135 521.5 c 132,-1,34
 120 487 120 487 120 442 c 4,35,36
 120 406 120 406 131.5 378 c 132,-1,37
 143 350 143 350 163 331 c 132,-1,38
 183 312 183 312 210.5 302 c 132,-1,39
 238 292 238 292 270 292 c 4,28,29
479 571 m 5,40,41
 444 598 444 598 406.5 613.5 c 132,-1,42
 369 629 369 629 320 629 c 4,43,44
 248 629 248 629 197 596 c 5,45,-1
 428 356 l 5,46,47
 444 371 444 371 457 389 c 132,-1,48
 470 407 470 407 479 427 c 5,49,-1
 479 571 l 5,40,41
EndSplineSet
Substitution2: "'c2sc' Capitals to Small Capitals lookup 38 subtable" q.sc
Substitution2: "'aalt' Access All Alternates lookup 0 subtable" q.sc
EndChar

StartChar: R
Encoding: 82 82 52
Width: 600
GlyphClass: 2
Flags: W
AnchorPoint: "Anchor-3" 563 536 basechar 0
AnchorPoint: "Anchor-2" 323 536 basechar 0
AnchorPoint: "Anchor-1" 254 0 basechar 0
LayerCount: 2
Fore
SplineSet
309.5 633 m 260,0,1
 283.5 633 283.5 633 265 649 c 132,-1,2
 246.5 665 246.5 665 246.5 696 c 4,3,4
 246.5 729 246.5 729 265 744.5 c 132,-1,5
 283.5 760 283.5 760 309.5 760 c 260,6,7
 335.5 760 335.5 760 354 744.5 c 132,-1,8
 372.5 729 372.5 729 372.5 696 c 4,9,10
 372.5 665 372.5 665 354 649 c 132,-1,11
 335.5 633 335.5 633 309.5 633 c 260,0,1
45 0 m 1,12,-1
 45 60 l 1,13,-1
 208 75 l 1,14,-1
 208 461 l 1,15,-1
 61 474 l 1,16,-1
 61 536 l 1,17,-1
 280 536 l 1,18,-1
 292 438 l 1,19,-1
 296 438 l 1,20,21
 324 491 324 491 357.5 518.5 c 128,-1,22
 391 546 391 546 446 546 c 0,23,24
 480 546 480 546 506.5 540 c 128,-1,25
 533 534 533 534 555 524 c 1,26,-1
 531 445 l 1,27,28
 515 454 515 454 493 460.5 c 128,-1,29
 471 467 471 467 446 467 c 0,30,31
 403 467 403 467 370 440 c 128,-1,32
 337 413 337 413 318 368 c 128,-1,33
 299 323 299 323 299 269 c 2,34,-1
 299 75 l 1,35,-1
 455 60 l 1,36,-1
 455 0 l 1,37,-1
 45 0 l 1,12,-1
EndSplineSet
Substitution2: "'c2sc' Capitals to Small Capitals lookup 38 subtable" r.sc
Substitution2: "'aalt' Access All Alternates lookup 0 subtable" r.sc
EndChar

StartChar: S
Encoding: 83 83 53
Width: 600
GlyphClass: 2
Flags: W
AnchorPoint: "Anchor-3" 580 536 basechar 0
AnchorPoint: "Anchor-2" 305 536 basechar 0
AnchorPoint: "Anchor-1" 305 0 basechar 0
LayerCount: 2
Fore
SplineSet
280.5 633 m 260,0,1
 254.5 633 254.5 633 236 649 c 132,-1,2
 217.5 665 217.5 665 217.5 696 c 4,3,4
 217.5 729 217.5 729 236 744.5 c 132,-1,5
 254.5 760 254.5 760 280.5 760 c 260,6,7
 306.5 760 306.5 760 325 744.5 c 132,-1,8
 343.5 729 343.5 729 343.5 696 c 4,9,10
 343.5 665 343.5 665 325 649 c 132,-1,11
 306.5 633 306.5 633 280.5 633 c 260,0,1
279 -10 m 0,12,13
 229 -10 229 -10 183.5 -1 c 128,-1,14
 138 8 138 8 105 24 c 1,15,-1
 105 107 l 1,16,17
 140 91 140 91 182.5 77.5 c 128,-1,18
 225 64 225 64 284 64 c 0,19,20
 350 64 350 64 377.5 84.5 c 128,-1,21
 405 105 405 105 405 144 c 0,22,23
 405 165 405 165 395.5 178.5 c 128,-1,24
 386 192 386 192 359 206 c 128,-1,25
 332 220 332 220 280 242 c 0,26,27
 228 265 228 265 191 285 c 128,-1,28
 154 305 154 305 134 332.5 c 128,-1,29
 114 360 114 360 114 403 c 0,30,31
 114 451 114 451 138.5 482.5 c 128,-1,32
 163 514 163 514 209.5 530 c 128,-1,33
 256 546 256 546 320 546 c 0,34,35
 364 546 364 546 404 538 c 128,-1,36
 444 530 444 530 487 512 c 1,37,-1
 460 442 l 1,38,39
 420 459 420 459 386.5 465 c 128,-1,40
 353 471 353 471 320 471 c 0,41,42
 258 471 258 471 229.5 455 c 128,-1,43
 201 439 201 439 201 405 c 0,44,45
 201 383 201 383 213.5 368 c 128,-1,46
 226 353 226 353 254.5 339 c 128,-1,47
 283 325 283 325 330 305 c 0,48,49
 383 283 383 283 420 264 c 128,-1,50
 457 245 457 245 476 218.5 c 128,-1,51
 495 192 495 192 495 146 c 0,52,53
 495 95 495 95 470.5 60.5 c 128,-1,54
 446 26 446 26 398 8 c 128,-1,55
 350 -10 350 -10 279 -10 c 0,12,13
EndSplineSet
Substitution2: "'c2sc' Capitals to Small Capitals lookup 38 subtable" s.sc
Substitution2: "'aalt' Access All Alternates lookup 0 subtable" s.sc
EndChar

StartChar: T
Encoding: 84 84 54
Width: 600
GlyphClass: 2
Flags: W
AnchorPoint: "Anchor-2" 305 536 basechar 0
AnchorPoint: "Anchor-1" 305 0 basechar 0
LayerCount: 2
Fore
SplineSet
427 -10 m 0,0,1
 372 -10 372 -10 332.5 8 c 128,-1,2
 293 26 293 26 272 64 c 128,-1,3
 251 102 251 102 251 160 c 2,4,-1
 251 467 l 1,5,-1
 40 467 l 1,6,-1
 40 536 l 1,7,-1
 560 536 l 1,8,-1
 560 467 l 1,9,-1
 339 467 l 1,10,-1
 339 157 l 2,11,12
 339 108 339 108 364.5 88 c 128,-1,13
 390 68 390 68 436 68 c 0,14,15
 453 68 453 68 469.5 71 c 128,-1,16
 486 74 486 74 502 78 c 1,17,-1
 502 2 l 1,18,19
 488 -4 488 -4 469.5 -7 c 128,-1,20
 451 -10 451 -10 427 -10 c 0,0,1
EndSplineSet
Substitution2: "'c2sc' Capitals to Small Capitals lookup 38 subtable" t.sc
Substitution2: "'aalt' Access All Alternates lookup 0 subtable" t.sc
EndChar

StartChar: U
Encoding: 85 85 55
Width: 600
GlyphClass: 2
Flags: W
AnchorPoint: "Anchor-3" 572.5 536 basechar 0
AnchorPoint: "Anchor-2" 292.5 536 basechar 0
AnchorPoint: "Anchor-1" 292.5 -220 basechar 0
AnchorPoint: "Anchor-0" 532.5 10 basechar 0
LayerCount: 2
Fore
SplineSet
253.5 -10 m 0,0,1
 158.5 -10 158.5 -10 113 37.5 c 0,2,3
 67.5 85 67.5 85 67.5 179 c 2,4,-1
 67.5 536 l 1,5,-1
 157.5 536 l 1,6,-1
 157.5 193 l 2,7,8
 157.5 129 157.5 129 184 96 c 0,9,10
 210.5 63 210.5 63 275.5 63 c 0,11,12
 331.5 63 331.5 63 363.5 86.5 c 0,13,14
 395.5 110 395.5 110 409 154 c 0,15,16
 422.5 198 422.5 198 422.5 260 c 2,17,-1
 422.5 536 l 1,18,-1
 512.5 536 l 1,19,-1
 512.5 0 l 1,20,-1
 440.5 0 l 1,21,-1
 427.5 72 l 1,22,-1
 422.5 72 l 1,23,24
 403.5 42 403.5 42 378.5 24 c 0,25,26
 353.5 6 353.5 6 322.5 -2 c 0,27,28
 291.5 -10 291.5 -10 253.5 -10 c 0,0,1
471.5 -220 m 0,29,30
 417.5 -220 417.5 -220 392.5 -195 c 0,31,32
 367.5 -170 367.5 -170 367.5 -131 c 0,33,34
 367.5 -98 367.5 -98 382 -70.5 c 0,35,36
 396.5 -43 396.5 -43 418 -21.5 c 0,37,38
 439.5 0 439.5 0 459.5 15 c 1,39,-1
 507.5 0 l 1,40,41
 474.5 -31 474.5 -31 457 -58 c 0,42,43
 439.5 -85 439.5 -85 439.5 -115 c 0,44,45
 439.5 -140 439.5 -140 452.5 -150.5 c 0,46,47
 465.5 -161 465.5 -161 490.5 -161 c 0,48,49
 501.5 -161 501.5 -161 513 -159.5 c 0,50,51
 524.5 -158 524.5 -158 532.5 -155 c 1,52,-1
 532.5 -211 l 1,53,54
 518.5 -215 518.5 -215 504 -217.5 c 0,55,56
 489.5 -220 489.5 -220 471.5 -220 c 0,29,30
EndSplineSet
Substitution2: "'c2sc' Capitals to Small Capitals lookup 38 subtable" u.sc
Substitution2: "'aalt' Access All Alternates lookup 0 subtable" u.sc
EndChar

StartChar: V
Encoding: 86 86 56
Width: 600
GlyphClass: 2
Flags: W
AnchorPoint: "Anchor-3" 580.5 536 basechar 0
AnchorPoint: "Anchor-2" 300.5 536 basechar 0
AnchorPoint: "Anchor-1" 300.5 0 basechar 0
LayerCount: 2
Fore
SplineSet
300.5 633 m 260,0,1
 274.5 633 274.5 633 256 649 c 132,-1,2
 237.5 665 237.5 665 237.5 696 c 4,3,4
 237.5 729 237.5 729 256 744.5 c 132,-1,5
 274.5 760 274.5 760 300.5 760 c 260,6,7
 326.5 760 326.5 760 345 744.5 c 132,-1,8
 363.5 729 363.5 729 363.5 696 c 4,9,10
 363.5 665 363.5 665 345 649 c 132,-1,11
 326.5 633 326.5 633 300.5 633 c 260,0,1
243.5 0 m 1,12,-1
 45.5 536 l 1,13,-1
 137.5 536 l 1,14,-1
 249.5 218 l 2,15,16
 260.5 186 260.5 186 273 151 c 128,-1,17
 285.5 116 285.5 116 298.5 76 c 1,18,-1
 301.5 76 l 1,19,20
 314.5 116 314.5 116 328 151.5 c 128,-1,21
 341.5 187 341.5 187 351.5 218 c 2,22,-1
 460.5 536 l 1,23,-1
 554.5 536 l 1,24,-1
 354.5 0 l 1,25,-1
 243.5 0 l 1,12,-1
EndSplineSet
Substitution2: "'c2sc' Capitals to Small Capitals lookup 38 subtable" v.sc
Substitution2: "'aalt' Access All Alternates lookup 0 subtable" v.sc
EndChar

StartChar: W
Encoding: 87 87 57
Width: 600
GlyphClass: 2
Flags: W
AnchorPoint: "Anchor-3" 580 714 basechar 0
AnchorPoint: "Anchor-2" 300 714 basechar 0
AnchorPoint: "Anchor-1" 300 0 basechar 0
LayerCount: 2
Fore
SplineSet
105 0 m 1,0,-1
 25 714 l 1,1,-1
 108 714 l 1,2,3
 112 675 112 675 115.5 635.5 c 128,-1,4
 119 596 119 596 123 556.5 c 128,-1,5
 127 517 127 517 130.5 477.5 c 128,-1,6
 134 438 134 438 138 399 c 0,7,8
 141 368 141 368 144 333 c 128,-1,9
 147 298 147 298 149.5 262.5 c 128,-1,10
 152 227 152 227 154 195 c 128,-1,11
 156 163 156 163 157.5 137.5 c 128,-1,12
 159 112 159 112 159 98 c 1,13,-1
 161 98 l 1,14,15
 164 115 164 115 169 140.5 c 128,-1,16
 174 166 174 166 180 195 c 128,-1,17
 186 224 186 224 192.5 252.5 c 128,-1,18
 199 281 199 281 204 304 c 2,19,-1
 258 536 l 1,20,-1
 344 536 l 1,21,-1
 400 302 l 2,22,23
 406 276 406 276 413 247.5 c 128,-1,24
 420 219 420 219 426 191.5 c 128,-1,25
 432 164 432 164 436.5 139.5 c 128,-1,26
 441 115 441 115 444 98 c 1,27,-1
 446 98 l 1,28,29
 447 112 447 112 448 135.5 c 128,-1,30
 449 159 449 159 450.5 188.5 c 128,-1,31
 452 218 452 218 454 253 c 128,-1,32
 456 288 456 288 459 325.5 c 128,-1,33
 462 363 462 363 465 402 c 0,34,35
 468 433 468 433 470.5 464.5 c 128,-1,36
 473 496 473 496 476 527 c 128,-1,37
 479 558 479 558 481.5 589 c 128,-1,38
 484 620 484 620 486.5 651.5 c 128,-1,39
 489 683 489 683 492 714 c 1,40,-1
 575 714 l 1,41,-1
 503 0 l 1,42,-1
 406 0 l 1,43,-1
 327 328 l 2,44,45
 320 358 320 358 315 382.5 c 128,-1,46
 310 407 310 407 307 424.5 c 128,-1,47
 304 442 304 442 302 450 c 1,48,-1
 300 450 l 1,49,50
 299 442 299 442 296.5 425 c 128,-1,51
 294 408 294 408 289 383.5 c 128,-1,52
 284 359 284 359 277 328 c 2,53,-1
 201 0 l 1,54,-1
 105 0 l 1,0,-1
EndSplineSet
Substitution2: "'c2sc' Capitals to Small Capitals lookup 38 subtable" w.sc
Substitution2: "'aalt' Access All Alternates lookup 0 subtable" w.sc
EndChar

StartChar: X
Encoding: 88 88 58
Width: 600
GlyphClass: 2
Flags: W
AnchorPoint: "Anchor-3" 580.5 536 basechar 0
AnchorPoint: "Anchor-2" 300.5 536 basechar 0
AnchorPoint: "Anchor-1" 300.5 0 basechar 0
LayerCount: 2
Fore
SplineSet
309.5 633 m 260,0,1
 283.5 633 283.5 633 265 649 c 132,-1,2
 246.5 665 246.5 665 246.5 696 c 4,3,4
 246.5 729 246.5 729 265 744.5 c 132,-1,5
 283.5 760 283.5 760 309.5 760 c 260,6,7
 335.5 760 335.5 760 354 744.5 c 132,-1,8
 372.5 729 372.5 729 372.5 696 c 4,9,10
 372.5 665 372.5 665 354 649 c 132,-1,11
 335.5 633 335.5 633 309.5 633 c 260,0,1
45.5 0 m 1,12,-1
 248.5 274 l 1,13,-1
 55.5 536 l 1,14,-1
 156.5 536 l 1,15,-1
 300.5 335 l 1,16,-1
 444.5 536 l 1,17,-1
 545.5 536 l 1,18,-1
 351.5 274 l 1,19,-1
 554.5 0 l 1,20,-1
 453.5 0 l 1,21,-1
 300.5 213 l 1,22,-1
 146.5 0 l 1,23,-1
 45.5 0 l 1,12,-1
EndSplineSet
Substitution2: "'c2sc' Capitals to Small Capitals lookup 38 subtable" x.sc
Substitution2: "'aalt' Access All Alternates lookup 0 subtable" x.sc
EndChar

StartChar: Y
Encoding: 89 89 59
Width: 600
GlyphClass: 2
Flags: W
AnchorPoint: "Anchor-3" 580.5 536 basechar 0
AnchorPoint: "Anchor-2" 300.5 536 basechar 0
AnchorPoint: "Anchor-1" 300.5 -245 basechar 0
LayerCount: 2
Fore
SplineSet
309.5 633 m 260,0,1
 283.5 633 283.5 633 265 649 c 132,-1,2
 246.5 665 246.5 665 246.5 696 c 4,3,4
 246.5 729 246.5 729 265 744.5 c 132,-1,5
 283.5 760 283.5 760 309.5 760 c 260,6,7
 335.5 760 335.5 760 354 744.5 c 132,-1,8
 372.5 729 372.5 729 372.5 696 c 4,9,10
 372.5 665 372.5 665 354 649 c 132,-1,11
 335.5 633 335.5 633 309.5 633 c 260,0,1
136.5 -245 m 0,12,13
 116.5 -245 116.5 -245 97.5 -242.5 c 128,-1,14
 78.5 -240 78.5 -240 64.5 -237 c 1,15,-1
 64.5 -168 l 1,16,17
 76.5 -170 76.5 -170 93 -172 c 128,-1,18
 109.5 -174 109.5 -174 125.5 -174 c 0,19,20
 156.5 -174 156.5 -174 177 -164 c 128,-1,21
 197.5 -154 197.5 -154 213 -133 c 128,-1,22
 228.5 -112 228.5 -112 241.5 -78 c 2,23,-1
 270.5 -5 l 1,24,-1
 45.5 536 l 1,25,-1
 133.5 536 l 1,26,-1
 261.5 221 l 2,27,28
 274.5 190 274.5 190 287 152 c 128,-1,29
 299.5 114 299.5 114 309.5 79 c 1,30,-1
 312.5 79 l 1,31,32
 319.5 104 319.5 104 327.5 128.5 c 128,-1,33
 335.5 153 335.5 153 343 177 c 128,-1,34
 350.5 201 350.5 201 357.5 222 c 2,35,-1
 462.5 536 l 1,36,-1
 554.5 536 l 1,37,-1
 329.5 -70 l 2,38,39
 310.5 -122 310.5 -122 288 -161.5 c 128,-1,40
 265.5 -201 265.5 -201 230 -223 c 128,-1,41
 194.5 -245 194.5 -245 136.5 -245 c 0,12,13
EndSplineSet
Substitution2: "'c2sc' Capitals to Small Capitals lookup 38 subtable" y.sc
Substitution2: "'aalt' Access All Alternates lookup 0 subtable" y.sc
EndChar

StartChar: Z
Encoding: 90 90 60
Width: 600
GlyphClass: 2
Flags: W
AnchorPoint: "Anchor-3" 580 536 basechar 0
AnchorPoint: "Anchor-2" 308 737 basechar 0
AnchorPoint: "Anchor-1" 300 0 basechar 0
LayerCount: 2
Fore
SplineSet
90 0 m 1,0,-1
 90 61 l 1,1,-1
 405 467 l 1,2,-1
 106 467 l 1,3,-1
 106 536 l 1,4,-1
 502 536 l 1,5,-1
 502 465 l 1,6,-1
 197 76 l 1,7,-1
 510 76 l 1,8,-1
 510 0 l 1,9,-1
 90 0 l 1,0,-1
309 633 m 260,10,11
 283 633 283 633 264.5 649 c 132,-1,12
 246 665 246 665 246 696 c 4,13,14
 246 729 246 729 264.5 744.5 c 132,-1,15
 283 760 283 760 309 760 c 260,16,17
 335 760 335 760 353.5 744.5 c 132,-1,18
 372 729 372 729 372 696 c 4,19,20
 372 665 372 665 353.5 649 c 132,-1,21
 335 633 335 633 309 633 c 260,10,11
EndSplineSet
Substitution2: "'c2sc' Capitals to Small Capitals lookup 38 subtable" z.sc
Substitution2: "'aalt' Access All Alternates lookup 0 subtable" z.sc
EndChar

StartChar: bracketleft
Encoding: 91 91 61
Width: 600
Flags: W
LayerCount: 2
Fore
SplineSet
187.5 -158 m 1,0,-1
 187.5 714 l 1,1,-1
 412.5 714 l 1,2,-1
 412.5 642 l 1,3,-1
 273.5 642 l 1,4,-1
 273.5 -86 l 1,5,-1
 412.5 -86 l 1,6,-1
 412.5 -158 l 1,7,-1
 187.5 -158 l 1,0,-1
EndSplineSet
Substitution2: "'smcp' Lowercase to Small Capitals lookup 39 subtable" bracketleft.sc
Substitution2: "'c2sc' Capitals to Small Capitals lookup 38 subtable" bracketleft.sc
Substitution2: "'aalt' Access All Alternates lookup 0 subtable" bracketleft.sc
EndChar

StartChar: backslash
Encoding: 92 92 62
Width: 600
Flags: W
LayerCount: 2
Fore
SplineSet
480 0 m 1,0,-1
 394 0 l 1,1,-1
 120 714 l 1,2,-1
 206 714 l 1,3,-1
 480 0 l 1,0,-1
EndSplineSet
EndChar

StartChar: bracketright
Encoding: 93 93 63
Width: 600
Flags: W
LayerCount: 2
Fore
SplineSet
412.5 714 m 1,0,-1
 412.5 -158 l 1,1,-1
 187.5 -158 l 1,2,-1
 187.5 -86 l 1,3,-1
 326.5 -86 l 1,4,-1
 326.5 642 l 1,5,-1
 187.5 642 l 1,6,-1
 187.5 714 l 1,7,-1
 412.5 714 l 1,0,-1
EndSplineSet
Substitution2: "'smcp' Lowercase to Small Capitals lookup 39 subtable" bracketright.sc
Substitution2: "'c2sc' Capitals to Small Capitals lookup 38 subtable" bracketright.sc
Substitution2: "'aalt' Access All Alternates lookup 0 subtable" bracketright.sc
EndChar

StartChar: asciicircum
Encoding: 94 94 64
Width: 600
Flags: W
LayerCount: 2
Fore
SplineSet
50 267 m 1,0,-1
 264 719 l 1,1,-1
 314 719 l 1,2,-1
 550 267 l 1,3,-1
 472 267 l 1,4,-1
 290 626 l 1,5,-1
 128 267 l 1,6,-1
 50 267 l 1,0,-1
EndSplineSet
EndChar

StartChar: underscore
Encoding: 95 95 65
Width: 600
Flags: W
LayerCount: 2
Fore
SplineSet
0 -154 m 1,0,-1
 0 -74 l 1,1,-1
 600 -74 l 1,2,-1
 600 -154 l 1,3,-1
 0 -154 l 1,0,-1
EndSplineSet
EndChar

StartChar: grave
Encoding: 96 96 66
Width: 600
Flags: W
LayerCount: 2
Fore
SplineSet
341.5 606 m 5,0,1
 324.5 620 324.5 620 303.5 639.5 c 132,-1,2
 282.5 659 282.5 659 262 680.5 c 132,-1,3
 241.5 702 241.5 702 225 722 c 132,-1,4
 208.5 742 208.5 742 199.5 756 c 5,5,-1
 199.5 766 l 5,6,-1
 304.5 766 l 5,7,8
 315.5 744 315.5 744 332 716.5 c 132,-1,9
 348.5 689 348.5 689 367 663 c 132,-1,10
 385.5 637 385.5 637 400.5 618 c 5,11,-1
 400.5 606 l 5,12,-1
 341.5 606 l 5,0,1
EndSplineSet
EndChar

StartChar: a
Encoding: 97 97 67
Width: 600
GlyphClass: 2
Flags: W
AnchorPoint: "Anchor-2" 277 536 basechar 0
AnchorPoint: "Anchor-1" 277 0 basechar 0
LayerCount: 2
Fore
SplineSet
248 -10 m 0,0,1
 183 -10 183 -10 134 21 c 128,-1,2
 85 52 85 52 58.5 113.5 c 128,-1,3
 32 175 32 175 32 267 c 0,4,5
 32 409 32 409 91.5 477.5 c 128,-1,6
 151 546 151 546 249 546 c 0,7,8
 287 546 287 546 316.5 535.5 c 128,-1,9
 346 525 346 525 368.5 507 c 128,-1,10
 391 489 391 489 407 467 c 1,11,-1
 411 467 l 1,12,-1
 425 536 l 1,13,-1
 497 536 l 1,14,-1
 497 118 l 2,15,16
 497 87 497 87 509 74.5 c 128,-1,17
 521 62 521 62 538 62 c 0,18,19
 546 62 546 62 555 64 c 128,-1,20
 564 66 564 66 568 67 c 1,21,-1
 568 3 l 1,22,23
 561 -1 561 -1 545 -5.5 c 128,-1,24
 529 -10 529 -10 509 -10 c 0,25,26
 478 -10 478 -10 453 7 c 128,-1,27
 428 24 428 24 417 72 c 1,28,-1
 410 72 l 1,29,30
 394 49 394 49 370.5 30.5 c 128,-1,31
 347 12 347 12 317 1 c 128,-1,32
 287 -10 287 -10 248 -10 c 0,0,1
262 63 m 0,33,34
 341 63 341 63 374.5 112 c 128,-1,35
 408 161 408 161 408 255 c 2,36,-1
 408 267 l 2,37,38
 408 334 408 334 393.5 379.5 c 128,-1,39
 379 425 379 425 347 449 c 128,-1,40
 315 473 315 473 261 473 c 0,41,42
 194 473 194 473 158.5 416.5 c 128,-1,43
 123 360 123 360 123 265 c 0,44,45
 123 201 123 201 138 156 c 128,-1,46
 153 111 153 111 184 87 c 128,-1,47
 215 63 215 63 262 63 c 0,33,34
EndSplineSet
Substitution2: "'smcp' Lowercase to Small Capitals lookup 39 subtable" a.sc
Substitution2: "Single Substitution lookup 33 subtable" ordfeminine
AlternateSubs2: "'aalt' Access All Alternates lookup 1 subtable" ordfeminine a.sc
EndChar

StartChar: b
Encoding: 98 98 68
Width: 600
GlyphClass: 2
Flags: W
AnchorPoint: "Anchor-3" 567.5 760 basechar 0
AnchorPoint: "Anchor-2" 287.5 760 basechar 0
AnchorPoint: "Anchor-1" 287.5 0 basechar 0
LayerCount: 2
Fore
SplineSet
316.5 -10 m 0,0,1
 257.5 -10 257.5 -10 217 13.5 c 128,-1,2
 176.5 37 176.5 37 153.5 68 c 1,3,-1
 147.5 68 l 1,4,-1
 139.5 0 l 1,5,-1
 67.5 0 l 1,6,-1
 67.5 760 l 1,7,-1
 154.5 760 l 1,8,-1
 154.5 576 l 2,9,10
 154.5 548 154.5 548 154 521 c 128,-1,11
 153.5 494 153.5 494 150.5 466 c 1,12,-1
 154.5 466 l 1,13,14
 175.5 498 175.5 498 215.5 522 c 128,-1,15
 255.5 546 255.5 546 316.5 546 c 0,16,17
 364.5 546 364.5 546 404.5 528.5 c 128,-1,18
 444.5 511 444.5 511 473 476 c 128,-1,19
 501.5 441 501.5 441 517 389 c 128,-1,20
 532.5 337 532.5 337 532.5 269 c 0,21,22
 532.5 200 532.5 200 517 148 c 128,-1,23
 501.5 96 501.5 96 472.5 60.5 c 128,-1,24
 443.5 25 443.5 25 404 7.5 c 128,-1,25
 364.5 -10 364.5 -10 316.5 -10 c 0,0,1
299.5 63 m 0,26,27
 372.5 63 372.5 63 406.5 116 c 128,-1,28
 440.5 169 440.5 169 440.5 269 c 0,29,30
 440.5 367 440.5 367 406.5 420 c 128,-1,31
 372.5 473 372.5 473 298.5 473 c 0,32,33
 229.5 473 229.5 473 192 420.5 c 128,-1,34
 154.5 368 154.5 368 154.5 271 c 0,35,36
 154.5 170 154.5 170 190 116.5 c 128,-1,37
 225.5 63 225.5 63 299.5 63 c 0,26,27
EndSplineSet
Substitution2: "'smcp' Lowercase to Small Capitals lookup 39 subtable" b.sc
Substitution2: "'aalt' Access All Alternates lookup 0 subtable" b.sc
EndChar

StartChar: c
Encoding: 99 99 69
Width: 600
GlyphClass: 2
Flags: W
AnchorPoint: "Anchor-2" 300 536 basechar 0
AnchorPoint: "Anchor-1" 300 0 basechar 0
LayerCount: 2
Fore
SplineSet
357 -10 m 0,0,1
 277 -10 277 -10 221 20 c 128,-1,2
 165 50 165 50 135.5 107.5 c 128,-1,3
 106 165 106 165 106 245 c 0,4,5
 106 328 106 328 137 384 c 128,-1,6
 168 440 168 440 226.5 468.5 c 128,-1,7
 285 497 285 497 366 497 c 1,8,-1
 401 465 l 1,9,10
 338 465 338 465 292.5 441 c 128,-1,11
 247 417 247 417 222.5 370 c 128,-1,12
 198 323 198 323 198 252 c 0,13,14
 198 194 198 194 217.5 152 c 128,-1,15
 237 110 237 110 274.5 87 c 128,-1,16
 312 64 312 64 366 64 c 0,17,18
 403 64 403 64 437 73.5 c 128,-1,19
 471 83 471 83 504 99 c 1,20,-1
 504 21 l 1,21,22
 479 8 479 8 437.5 -1 c 128,-1,23
 396 -10 396 -10 357 -10 c 0,0,1
-1 465 m 5,24,-1
 -1 537 l 5,25,-1
 515 537 l 1,26,-1
 515 465 l 1,27,-1
 -1 465 l 5,24,-1
EndSplineSet
Substitution2: "'smcp' Lowercase to Small Capitals lookup 39 subtable" c.sc
Substitution2: "'aalt' Access All Alternates lookup 0 subtable" c.sc
EndChar

StartChar: d
Encoding: 100 100 70
Width: 600
GlyphClass: 2
Flags: W
AnchorPoint: "Anchor-4" 312.5 268 basechar 0
AnchorPoint: "Anchor-3" 592.5 760 basechar 0
AnchorPoint: "Anchor-2" 312.5 760 basechar 0
AnchorPoint: "Anchor-1" 312.5 0 basechar 0
LayerCount: 2
Fore
SplineSet
286.5 -10 m 0,0,1
 237.5 -10 237.5 -10 197 7 c 128,-1,2
 156.5 24 156.5 24 127.5 59 c 128,-1,3
 98.5 94 98.5 94 83 147 c 128,-1,4
 67.5 200 67.5 200 67.5 271 c 0,5,6
 67.5 360 67.5 360 93 421.5 c 128,-1,7
 118.5 483 118.5 483 169.5 514.5 c 128,-1,8
 220.5 546 220.5 546 296.5 546 c 0,9,10
 333.5 546 333.5 546 362 536 c 128,-1,11
 390.5 526 390.5 526 411 508.5 c 128,-1,12
 431.5 491 431.5 491 443.5 468 c 1,13,-1
 449.5 468 l 1,14,15
 448.5 478 448.5 478 447 491.5 c 128,-1,16
 445.5 505 445.5 505 444.5 519.5 c 128,-1,17
 443.5 534 443.5 534 443.5 547 c 2,18,-1
 443.5 760 l 1,19,-1
 532.5 760 l 1,20,-1
 532.5 0 l 1,21,-1
 458.5 0 l 1,22,-1
 448.5 72 l 1,23,-1
 444.5 72 l 1,24,25
 429.5 48 429.5 48 408 29.5 c 128,-1,26
 386.5 11 386.5 11 357 0.5 c 128,-1,27
 327.5 -10 327.5 -10 286.5 -10 c 0,0,1
303.5 63 m 0,28,29
 374.5 63 374.5 63 409 112.5 c 128,-1,30
 443.5 162 443.5 162 443.5 247 c 2,31,-1
 443.5 267 l 2,32,33
 443.5 326 443.5 326 430.5 372.5 c 128,-1,34
 417.5 419 417.5 419 387.5 446 c 128,-1,35
 357.5 473 357.5 473 306.5 473 c 0,36,37
 236.5 473 236.5 473 198 421 c 128,-1,38
 159.5 369 159.5 369 159.5 262 c 0,39,40
 159.5 163 159.5 163 195 113 c 128,-1,41
 230.5 63 230.5 63 303.5 63 c 0,28,29
EndSplineSet
Substitution2: "'smcp' Lowercase to Small Capitals lookup 39 subtable" d.sc
Substitution2: "'aalt' Access All Alternates lookup 0 subtable" d.sc
EndChar

StartChar: e
Encoding: 101 101 71
Width: 600
GlyphClass: 2
Flags: W
AnchorPoint: "Anchor-3" 580 536 basechar 0
AnchorPoint: "Anchor-2" 304 536 basechar 0
AnchorPoint: "Anchor-1" 310 0 basechar 0
AnchorPoint: "Anchor-0" 306 10 basechar 0
LayerCount: 2
Fore
SplineSet
337 -10 m 0,0,1
 251 -10 251 -10 189 22 c 128,-1,2
 127 54 127 54 93.5 115.5 c 128,-1,3
 60 177 60 177 60 266 c 0,4,5
 60 354 60 354 92 416.5 c 128,-1,6
 124 479 124 479 181 512.5 c 128,-1,7
 238 546 238 546 314 546 c 0,8,9
 384 546 384 546 434.5 515 c 128,-1,10
 485 484 485 484 512.5 427.5 c 128,-1,11
 540 371 540 371 540 292 c 2,12,-1
 540 251 l 1,13,-1
 151 251 l 1,14,15
 153 181 153 181 177.5 140 c 128,-1,16
 202 99 202 99 244.5 81.5 c 128,-1,17
 287 64 287 64 343 64 c 0,18,19
 387 64 387 64 430 76 c 128,-1,20
 473 88 473 88 516 108 c 1,21,-1
 516 28 l 1,22,23
 470 8 470 8 424 -1 c 128,-1,24
 378 -10 378 -10 337 -10 c 0,0,1
450 323 m 1,25,26
 448 370 448 370 432 403.5 c 128,-1,27
 416 437 416 437 386.5 455 c 128,-1,28
 357 473 357 473 314 473 c 0,29,30
 247 473 247 473 205.5 432.5 c 128,-1,31
 164 392 164 392 153 323 c 1,32,-1
 450 323 l 1,25,26
EndSplineSet
Substitution2: "'smcp' Lowercase to Small Capitals lookup 39 subtable" e.sc
Substitution2: "'aalt' Access All Alternates lookup 0 subtable" e.sc
EndChar

StartChar: f
Encoding: 102 102 72
Width: 600
GlyphClass: 2
Flags: W
AnchorPoint: "Anchor-3" 602 765 basechar 0
AnchorPoint: "Anchor-2" 388 765 basechar 0
AnchorPoint: "Anchor-1" 282 0 basechar 0
LayerCount: 2
Fore
SplineSet
223 0 m 1,0,-1
 223 461 l 1,1,-1
 48 461 l 1,2,-1
 48 523 l 1,3,-1
 223 536 l 1,4,-1
 223 597 l 2,5,6
 223 661 223 661 247.5 697.5 c 128,-1,7
 272 734 272 734 316 749.5 c 128,-1,8
 360 765 360 765 418 765 c 0,9,10
 462 765 462 765 495 759 c 128,-1,11
 528 753 528 753 552 745 c 1,12,-1
 532 676 l 1,13,14
 512 682 512 682 482 686.5 c 128,-1,15
 452 691 452 691 423 691 c 0,16,17
 371 691 371 691 342 669 c 128,-1,18
 313 647 313 647 313 585 c 2,19,-1
 313 536 l 1,20,-1
 515 536 l 1,21,-1
 515 461 l 1,22,-1
 313 461 l 1,23,-1
 313 0 l 1,24,-1
 223 0 l 1,0,-1
EndSplineSet
Substitution2: "'smcp' Lowercase to Small Capitals lookup 39 subtable" f.sc
Substitution2: "'aalt' Access All Alternates lookup 0 subtable" f.sc
EndChar

StartChar: g
Encoding: 103 103 73
Width: 600
GlyphClass: 2
Flags: W
AnchorPoint: "Anchor-3" 592.5 536 basechar 0
AnchorPoint: "Anchor-2" 312.5 536 basechar 0
AnchorPoint: "Anchor-1" 312.5 -245 basechar 0
LayerCount: 2
Fore
SplineSet
288.5 -245 m 0,0,1
 233.5 -245 233.5 -245 185 -234.5 c 128,-1,2
 136.5 -224 136.5 -224 95.5 -207 c 1,3,-1
 95.5 -127 l 1,4,5
 135.5 -150 135.5 -150 188 -161.5 c 128,-1,6
 240.5 -173 240.5 -173 285.5 -173 c 0,7,8
 376.5 -173 376.5 -173 412.5 -130.5 c 128,-1,9
 448.5 -88 448.5 -88 448.5 -14 c 2,10,-1
 448.5 5 l 2,11,12
 448.5 17 448.5 17 449 28 c 128,-1,13
 449.5 39 449.5 39 451.5 62 c 1,14,-1
 447.5 62 l 1,15,16
 419.5 21 419.5 21 382 5.5 c 128,-1,17
 344.5 -10 344.5 -10 291.5 -10 c 0,18,19
 185.5 -10 185.5 -10 126.5 62.5 c 128,-1,20
 67.5 135 67.5 135 67.5 265 c 0,21,22
 67.5 396 67.5 396 126 471 c 128,-1,23
 184.5 546 184.5 546 286.5 546 c 0,24,25
 340.5 546 340.5 546 377.5 528.5 c 128,-1,26
 414.5 511 414.5 511 443.5 470 c 1,27,-1
 448.5 470 l 1,28,-1
 460.5 536 l 1,29,-1
 532.5 536 l 1,30,-1
 532.5 -14 l 2,31,32
 532.5 -90 532.5 -90 506.5 -141.5 c 128,-1,33
 480.5 -193 480.5 -193 426.5 -219 c 128,-1,34
 372.5 -245 372.5 -245 288.5 -245 c 0,0,1
308.5 63 m 0,35,36
 341.5 63 341.5 63 368 73.5 c 128,-1,37
 394.5 84 394.5 84 413 106.5 c 128,-1,38
 431.5 129 431.5 129 441.5 163.5 c 128,-1,39
 451.5 198 451.5 198 451.5 246 c 2,40,-1
 451.5 267 l 2,41,42
 451.5 340 451.5 340 434 385.5 c 128,-1,43
 416.5 431 416.5 431 383.5 452 c 128,-1,44
 350.5 473 350.5 473 305.5 473 c 0,45,46
 229.5 473 229.5 473 194.5 419.5 c 128,-1,47
 159.5 366 159.5 366 159.5 268 c 0,48,49
 159.5 168 159.5 168 196 115.5 c 128,-1,50
 232.5 63 232.5 63 308.5 63 c 0,35,36
EndSplineSet
Substitution2: "'smcp' Lowercase to Small Capitals lookup 39 subtable" g.sc
Substitution2: "'aalt' Access All Alternates lookup 0 subtable" g.sc
EndChar

StartChar: h
Encoding: 104 104 74
Width: 600
GlyphClass: 2
Flags: W
AnchorPoint: "Anchor-4" 297.5 268 basechar 0
AnchorPoint: "Anchor-3" 577.5 760 basechar 0
AnchorPoint: "Anchor-2" 123.5 760 basechar 0
AnchorPoint: "Anchor-1" 297.5 0 basechar 0
LayerCount: 2
Fore
SplineSet
77.5 0 m 1,0,-1
 77.5 760 l 1,1,-1
 167.5 760 l 1,2,-1
 167.5 544 l 2,3,4
 167.5 525 167.5 525 166 496 c 128,-1,5
 164.5 467 164.5 467 163.5 450 c 1,6,-1
 168.5 450 l 1,7,8
 185.5 483 185.5 483 211 504 c 128,-1,9
 236.5 525 236.5 525 268.5 535.5 c 128,-1,10
 300.5 546 300.5 546 336.5 546 c 0,11,12
 419.5 546 419.5 546 471 499.5 c 128,-1,13
 522.5 453 522.5 453 522.5 350 c 2,14,-1
 522.5 0 l 1,15,-1
 432.5 0 l 1,16,-1
 432.5 332 l 2,17,18
 432.5 405 432.5 405 401.5 439 c 128,-1,19
 370.5 473 370.5 473 313.5 473 c 0,20,21
 269.5 473 269.5 473 236.5 450 c 128,-1,22
 203.5 427 203.5 427 185.5 383.5 c 128,-1,23
 167.5 340 167.5 340 167.5 278 c 2,24,-1
 167.5 0 l 1,25,-1
 77.5 0 l 1,0,-1
EndSplineSet
Substitution2: "'smcp' Lowercase to Small Capitals lookup 39 subtable" h.sc
Substitution2: "'sinf' Scientific Inferiors lookup 24 subtable" uni2095
Substitution2: "'subs' Subscript lookup 23 subtable" uni2095
AlternateSubs2: "'aalt' Access All Alternates lookup 1 subtable" h.sc uni2095
EndChar

StartChar: i
Encoding: 105 105 75
Width: 600
GlyphClass: 2
Flags: W
AnchorPoint: "Anchor-4" 310 283 basechar 0
AnchorPoint: "Anchor-3" 488 760 basechar 0
AnchorPoint: "Anchor-2" 297 760 basechar 0
AnchorPoint: "Anchor-1" 311 0 basechar 0
LayerCount: 2
Fore
SplineSet
70 0 m 1,0,-1
 70 60 l 1,1,-1
 261 75 l 1,2,-1
 261 461 l 1,3,-1
 86 474 l 1,4,-1
 86 536 l 1,5,-1
 351 536 l 1,6,-1
 351 75 l 1,7,-1
 530 60 l 1,8,-1
 530 0 l 1,9,-1
 70 0 l 1,0,-1
297 633 m 256,10,11
 271 633 271 633 252.5 649 c 128,-1,12
 234 665 234 665 234 696 c 0,13,14
 234 729 234 729 252.5 744.5 c 128,-1,15
 271 760 271 760 297 760 c 256,16,17
 323 760 323 760 341.5 744.5 c 128,-1,18
 360 729 360 729 360 696 c 0,19,20
 360 665 360 665 341.5 649 c 128,-1,21
 323 633 323 633 297 633 c 256,10,11
EndSplineSet
Substitution2: "'smcp' Lowercase to Small Capitals lookup 39 subtable" i.sc
Substitution2: "Single Substitution lookup 4 subtable" dotlessi
AlternateSubs2: "'aalt' Access All Alternates lookup 1 subtable" dotlessi i.sc
EndChar

StartChar: j
Encoding: 106 106 76
Width: 600
GlyphClass: 2
Flags: W
AnchorPoint: "Anchor-1" 300 536 basechar 0
AnchorPoint: "Anchor-0" 300 0 basechar 0
LayerCount: 2
Fore
SplineSet
489 536 m 1,0,-1
 489 470 l 1,1,-1
 378 313 l 1,2,-1
 479 313 l 1,3,-1
 479 243 l 1,4,-1
 328 243 l 1,5,-1
 205 68 l 1,6,-1
 496 68 l 1,7,-1
 496 0 l 1,8,-1
 104 0 l 1,9,-1
 104 58 l 1,10,-1
 234 243 l 1,11,-1
 122 243 l 1,12,-1
 122 313 l 1,13,-1
 283 313 l 1,14,-1
 392 468 l 1,15,-1
 121 468 l 1,16,-1
 121 536 l 1,17,-1
 489 536 l 1,0,-1
EndSplineSet
Substitution2: "'smcp' Lowercase to Small Capitals lookup 39 subtable" j.sc
Substitution2: "Single Substitution lookup 4 subtable" uni0237
AlternateSubs2: "'aalt' Access All Alternates lookup 1 subtable" uni0237 j.sc
EndChar

StartChar: k
Encoding: 107 107 77
Width: 600
GlyphClass: 2
Flags: W
AnchorPoint: "Anchor-3" 462.5 860 basechar 0
AnchorPoint: "Anchor-2" 302.5 760 basechar 0
AnchorPoint: "Anchor-1" 301.5 0 basechar 0
LayerCount: 2
Fore
SplineSet
67.5 0 m 1,0,-1
 67.5 760 l 1,1,-1
 157.5 760 l 1,2,-1
 157.5 394 l 2,3,4
 157.5 373 157.5 373 156.5 347 c 128,-1,5
 155.5 321 155.5 321 154 294 c 128,-1,6
 152.5 267 152.5 267 150.5 243 c 1,7,-1
 152.5 243 l 1,8,9
 171.5 268 171.5 268 189 288.5 c 128,-1,10
 206.5 309 206.5 309 225.5 331 c 2,11,-1
 410.5 536 l 1,12,-1
 518.5 536 l 1,13,-1
 305.5 305 l 1,14,-1
 532.5 0 l 1,15,-1
 428.5 0 l 1,16,-1
 245.5 252 l 1,17,-1
 157.5 167 l 1,18,-1
 157.5 0 l 1,19,-1
 67.5 0 l 1,0,-1
EndSplineSet
Substitution2: "'smcp' Lowercase to Small Capitals lookup 39 subtable" k.sc
Substitution2: "'sinf' Scientific Inferiors lookup 24 subtable" uni2096
Substitution2: "'subs' Subscript lookup 23 subtable" uni2096
AlternateSubs2: "'aalt' Access All Alternates lookup 1 subtable" k.sc uni2096
EndChar

StartChar: l
Encoding: 108 108 78
Width: 600
GlyphClass: 2
Flags: W
AnchorPoint: "Anchor-4" 312 387 basechar 0
AnchorPoint: "Anchor-3" 483 760 basechar 0
AnchorPoint: "Anchor-2" 290 760 basechar 0
AnchorPoint: "Anchor-1" 312 0 basechar 0
LayerCount: 2
Fore
SplineSet
70 0 m 1,0,-1
 70 60 l 1,1,-1
 266 75 l 1,2,-1
 266 685 l 1,3,-1
 76 698 l 1,4,-1
 76 760 l 1,5,-1
 356 760 l 1,6,-1
 356 75 l 1,7,-1
 530 60 l 1,8,-1
 530 0 l 1,9,-1
 70 0 l 1,0,-1
EndSplineSet
Substitution2: "'smcp' Lowercase to Small Capitals lookup 39 subtable" l.sc
Substitution2: "'sinf' Scientific Inferiors lookup 24 subtable" uni2097
Substitution2: "'subs' Subscript lookup 23 subtable" uni2097
AlternateSubs2: "'aalt' Access All Alternates lookup 1 subtable" l.sc uni2097
EndChar

StartChar: m
Encoding: 109 109 79
Width: 600
GlyphClass: 2
Flags: W
AnchorPoint: "Anchor-3" 579.5 536 basechar 0
AnchorPoint: "Anchor-2" 325.5 536 basechar 0
AnchorPoint: "Anchor-1" 304.5 0 basechar 0
LayerCount: 2
Fore
SplineSet
49.5 0 m 1,0,-1
 49.5 536 l 1,1,-1
 111.5 536 l 1,2,-1
 124.5 477 l 1,3,-1
 129.5 477 l 1,4,5
 142.5 504 142.5 504 157.5 519 c 128,-1,6
 172.5 534 172.5 534 190 540 c 128,-1,7
 207.5 546 207.5 546 228.5 546 c 0,8,9
 269.5 546 269.5 546 292 526.5 c 128,-1,10
 314.5 507 314.5 507 326.5 469 c 1,11,-1
 329.5 469 l 1,12,13
 346.5 506 346.5 506 372 526 c 128,-1,14
 397.5 546 397.5 546 439.5 546 c 0,15,16
 480.5 546 480.5 546 505 525 c 128,-1,17
 529.5 504 529.5 504 540 461 c 128,-1,18
 550.5 418 550.5 418 550.5 350 c 2,19,-1
 550.5 0 l 1,20,-1
 470.5 0 l 1,21,-1
 470.5 335 l 2,22,23
 470.5 377 470.5 377 467 406.5 c 128,-1,24
 463.5 436 463.5 436 452.5 452 c 128,-1,25
 441.5 468 441.5 468 416.5 468 c 0,26,27
 392.5 468 392.5 468 375.5 445.5 c 128,-1,28
 358.5 423 358.5 423 349.5 379 c 128,-1,29
 340.5 335 340.5 335 340.5 268 c 2,30,-1
 340.5 0 l 1,31,-1
 260.5 0 l 1,32,-1
 260.5 335 l 2,33,34
 260.5 378 260.5 378 255.5 407.5 c 128,-1,35
 250.5 437 250.5 437 238 452.5 c 128,-1,36
 225.5 468 225.5 468 200.5 468 c 0,37,38
 174.5 468 174.5 468 158.5 443.5 c 128,-1,39
 142.5 419 142.5 419 136 374.5 c 128,-1,40
 129.5 330 129.5 330 129.5 268 c 2,41,-1
 129.5 0 l 1,42,-1
 49.5 0 l 1,0,-1
EndSplineSet
Substitution2: "'smcp' Lowercase to Small Capitals lookup 39 subtable" m.sc
Substitution2: "'sinf' Scientific Inferiors lookup 24 subtable" uni2098
Substitution2: "'subs' Subscript lookup 23 subtable" uni2098
AlternateSubs2: "'aalt' Access All Alternates lookup 1 subtable" m.sc uni2098
EndChar

StartChar: n
Encoding: 110 110 80
Width: 600
GlyphClass: 2
Flags: W
AnchorPoint: "Anchor-3" 577.5 536 basechar 0
AnchorPoint: "Anchor-2" 309.5 536 basechar 0
AnchorPoint: "Anchor-1" 303.5 0 basechar 0
LayerCount: 2
Fore
SplineSet
77.5 0 m 1,0,-1
 77.5 536 l 1,1,-1
 149.5 536 l 1,2,-1
 162.5 457 l 1,3,-1
 167.5 457 l 1,4,5
 183.5 488 183.5 488 209 507.5 c 128,-1,6
 234.5 527 234.5 527 268.5 536.5 c 128,-1,7
 302.5 546 302.5 546 342.5 546 c 0,8,9
 423.5 546 423.5 546 473 500.5 c 128,-1,10
 522.5 455 522.5 455 522.5 358 c 2,11,-1
 522.5 0 l 1,12,-1
 432.5 0 l 1,13,-1
 432.5 342 l 2,14,15
 432.5 410 432.5 410 405 441.5 c 128,-1,16
 377.5 473 377.5 473 316.5 473 c 0,17,18
 234.5 473 234.5 473 201 421 c 128,-1,19
 167.5 369 167.5 369 167.5 275 c 2,20,-1
 167.5 0 l 1,21,-1
 77.5 0 l 1,0,-1
EndSplineSet
Substitution2: "'smcp' Lowercase to Small Capitals lookup 39 subtable" n.sc
Substitution2: "'sups' Superscript lookup 25 subtable" uni207F
Substitution2: "'sinf' Scientific Inferiors lookup 24 subtable" uni2099
Substitution2: "'subs' Subscript lookup 23 subtable" uni2099
AlternateSubs2: "'aalt' Access All Alternates lookup 1 subtable" uni207F n.sc uni2099
EndChar

StartChar: o
Encoding: 111 111 81
Width: 600
GlyphClass: 2
Flags: W
AnchorPoint: "Anchor-4" 300 268 basechar 0
AnchorPoint: "Anchor-3" 580 536 basechar 0
AnchorPoint: "Anchor-2" 300 536 basechar 0
AnchorPoint: "Anchor-1" 300 0 basechar 0
AnchorPoint: "Anchor-0" 301 10 basechar 0
LayerCount: 2
Fore
SplineSet
301 -10 m 0,0,1
 249 -10 249 -10 204 7 c 128,-1,2
 159 24 159 24 125.5 59 c 128,-1,3
 92 94 92 94 73.5 146.5 c 128,-1,4
 55 199 55 199 55 270 c 0,5,6
 55 363 55 363 86.5 424 c 128,-1,7
 118 485 118 485 173 515.5 c 128,-1,8
 228 546 228 546 298 546 c 256,9,10
 368 546 368 546 424 515.5 c 128,-1,11
 480 485 480 485 512.5 423.5 c 128,-1,12
 545 362 545 362 545 267 c 0,13,14
 545 197 545 197 526.5 145 c 128,-1,15
 508 93 508 93 475.5 58.5 c 128,-1,16
 443 24 443 24 398.5 7 c 128,-1,17
 354 -10 354 -10 301 -10 c 0,0,1
300 63 m 256,18,19
 352 63 352 63 386 88 c 128,-1,20
 420 113 420 113 437 159.5 c 128,-1,21
 454 206 454 206 454 269 c 0,22,23
 454 333 454 333 437 378.5 c 128,-1,24
 420 424 420 424 385.5 448.5 c 128,-1,25
 351 473 351 473 299 473 c 0,26,27
 221 473 221 473 182.5 418.5 c 128,-1,28
 144 364 144 364 144 269 c 0,29,30
 144 206 144 206 161.5 159.5 c 128,-1,31
 179 113 179 113 213.5 88 c 128,-1,32
 248 63 248 63 300 63 c 256,18,19
EndSplineSet
Substitution2: "'smcp' Lowercase to Small Capitals lookup 39 subtable" o.sc
Substitution2: "Single Substitution lookup 33 subtable" ordmasculine
AlternateSubs2: "'aalt' Access All Alternates lookup 1 subtable" ordmasculine o.sc
EndChar

StartChar: p
Encoding: 112 112 82
Width: 600
GlyphClass: 2
Flags: W
AnchorPoint: "Anchor-3" 567.5 536 basechar 0
AnchorPoint: "Anchor-2" 297.5 536 basechar 0
AnchorPoint: "Anchor-1" 297.5 -240 basechar 0
LayerCount: 2
Fore
SplineSet
67.5 -240 m 1,0,-1
 67.5 536 l 1,1,-1
 141.5 536 l 1,2,-1
 152.5 463 l 1,3,-1
 156.5 463 l 1,4,5
 172.5 489 172.5 489 194.5 507.5 c 128,-1,6
 216.5 526 216.5 526 246.5 536 c 128,-1,7
 276.5 546 276.5 546 316.5 546 c 0,8,9
 365.5 546 365.5 546 405.5 528.5 c 128,-1,10
 445.5 511 445.5 511 474 476 c 128,-1,11
 502.5 441 502.5 441 517.5 389 c 128,-1,12
 532.5 337 532.5 337 532.5 269 c 0,13,14
 532.5 178 532.5 178 506 115.5 c 128,-1,15
 479.5 53 479.5 53 431 21.5 c 128,-1,16
 382.5 -10 382.5 -10 316.5 -10 c 0,17,18
 277.5 -10 277.5 -10 247 1 c 128,-1,19
 216.5 12 216.5 12 194.5 30 c 128,-1,20
 172.5 48 172.5 48 156.5 69 c 1,21,-1
 150.5 69 l 1,22,23
 153.5 50 153.5 50 155 29.5 c 128,-1,24
 156.5 9 156.5 9 156.5 -11 c 2,25,-1
 156.5 -240 l 1,26,-1
 67.5 -240 l 1,0,-1
297.5 63 m 0,27,28
 372.5 63 372.5 63 406.5 114.5 c 128,-1,29
 440.5 166 440.5 166 440.5 271 c 0,30,31
 440.5 374 440.5 374 407 423.5 c 128,-1,32
 373.5 473 373.5 473 296.5 473 c 0,33,34
 223.5 473 223.5 473 190 425.5 c 128,-1,35
 156.5 378 156.5 378 156.5 289 c 2,36,-1
 156.5 269 l 2,37,38
 156.5 174 156.5 174 187 118.5 c 128,-1,39
 217.5 63 217.5 63 297.5 63 c 0,27,28
EndSplineSet
Substitution2: "'smcp' Lowercase to Small Capitals lookup 39 subtable" p.sc
Substitution2: "'sinf' Scientific Inferiors lookup 24 subtable" uni209A
Substitution2: "'subs' Subscript lookup 23 subtable" uni209A
AlternateSubs2: "'aalt' Access All Alternates lookup 1 subtable" p.sc uni209A
EndChar

StartChar: q
Encoding: 113 113 83
Width: 600
GlyphClass: 2
Flags: W
AnchorPoint: "Anchor-3" 592.5 536 basechar 0
AnchorPoint: "Anchor-2" 292.5 536 basechar 0
AnchorPoint: "Anchor-1" 292.5 -240 basechar 0
LayerCount: 2
Fore
SplineSet
443.5 -11 m 2,0,1
 443.5 2 443.5 2 444 16 c 128,-1,2
 444.5 30 444.5 30 445.5 44 c 128,-1,3
 446.5 58 446.5 58 446.5 72 c 1,4,-1
 443.5 72 l 1,5,6
 421.5 38 421.5 38 384 14 c 128,-1,7
 346.5 -10 346.5 -10 286.5 -10 c 0,8,9
 238.5 -10 238.5 -10 198 7.5 c 128,-1,10
 157.5 25 157.5 25 128.5 60 c 128,-1,11
 99.5 95 99.5 95 83.5 147 c 128,-1,12
 67.5 199 67.5 199 67.5 267 c 0,13,14
 67.5 336 67.5 336 83.5 388 c 128,-1,15
 99.5 440 99.5 440 129.5 475 c 128,-1,16
 159.5 510 159.5 510 199.5 528 c 128,-1,17
 239.5 546 239.5 546 287.5 546 c 0,18,19
 346.5 546 346.5 546 384 522 c 128,-1,20
 421.5 498 421.5 498 443.5 464 c 1,21,-1
 447.5 464 l 1,22,-1
 460.5 536 l 1,23,-1
 532.5 536 l 1,24,-1
 532.5 -240 l 1,25,-1
 443.5 -240 l 1,26,-1
 443.5 -11 l 2,0,1
302.5 63 m 0,27,28
 372.5 63 372.5 63 408 109 c 128,-1,29
 443.5 155 443.5 155 443.5 247 c 2,30,-1
 443.5 267 l 2,31,32
 443.5 364 443.5 364 412 418.5 c 128,-1,33
 380.5 473 380.5 473 300.5 473 c 0,34,35
 227.5 473 227.5 473 193.5 420 c 128,-1,36
 159.5 367 159.5 367 159.5 266 c 0,37,38
 159.5 174 159.5 174 194 118.5 c 128,-1,39
 228.5 63 228.5 63 302.5 63 c 0,27,28
EndSplineSet
Substitution2: "'smcp' Lowercase to Small Capitals lookup 39 subtable" q.sc
Substitution2: "'aalt' Access All Alternates lookup 0 subtable" q.sc
EndChar

StartChar: r
Encoding: 114 114 84
Width: 600
GlyphClass: 2
Flags: W
AnchorPoint: "Anchor-3" 563 536 basechar 0
AnchorPoint: "Anchor-2" 323 536 basechar 0
AnchorPoint: "Anchor-1" 254 0 basechar 0
LayerCount: 2
Fore
SplineSet
45 0 m 1,0,-1
 45 60 l 1,1,-1
 208 75 l 1,2,-1
 208 461 l 1,3,-1
 61 474 l 1,4,-1
 61 536 l 1,5,-1
 280 536 l 1,6,-1
 292 438 l 1,7,-1
 296 438 l 1,8,9
 324 491 324 491 357.5 518.5 c 128,-1,10
 391 546 391 546 446 546 c 0,11,12
 480 546 480 546 506.5 540 c 128,-1,13
 533 534 533 534 555 524 c 1,14,-1
 531 445 l 1,15,16
 515 454 515 454 493 460.5 c 128,-1,17
 471 467 471 467 446 467 c 0,18,19
 403 467 403 467 370 440 c 128,-1,20
 337 413 337 413 318 368 c 128,-1,21
 299 323 299 323 299 269 c 2,22,-1
 299 75 l 1,23,-1
 455 60 l 1,24,-1
 455 0 l 1,25,-1
 45 0 l 1,0,-1
EndSplineSet
Substitution2: "'smcp' Lowercase to Small Capitals lookup 39 subtable" r.sc
Substitution2: "'aalt' Access All Alternates lookup 0 subtable" r.sc
EndChar

StartChar: s
Encoding: 115 115 85
Width: 600
GlyphClass: 2
Flags: W
AnchorPoint: "Anchor-3" 580 536 basechar 0
AnchorPoint: "Anchor-2" 305 536 basechar 0
AnchorPoint: "Anchor-1" 305 0 basechar 0
LayerCount: 2
Fore
SplineSet
279 -10 m 0,0,1
 229 -10 229 -10 183.5 -1 c 128,-1,2
 138 8 138 8 105 24 c 1,3,-1
 105 107 l 1,4,5
 140 91 140 91 182.5 77.5 c 128,-1,6
 225 64 225 64 284 64 c 0,7,8
 350 64 350 64 377.5 84.5 c 128,-1,9
 405 105 405 105 405 144 c 0,10,11
 405 165 405 165 395.5 178.5 c 128,-1,12
 386 192 386 192 359 206 c 128,-1,13
 332 220 332 220 280 242 c 0,14,15
 228 265 228 265 191 285 c 128,-1,16
 154 305 154 305 134 332.5 c 128,-1,17
 114 360 114 360 114 403 c 0,18,19
 114 451 114 451 138.5 482.5 c 128,-1,20
 163 514 163 514 209.5 530 c 128,-1,21
 256 546 256 546 320 546 c 0,22,23
 364 546 364 546 404 538 c 128,-1,24
 444 530 444 530 487 512 c 1,25,-1
 460 442 l 1,26,27
 420 459 420 459 386.5 465 c 128,-1,28
 353 471 353 471 320 471 c 0,29,30
 258 471 258 471 229.5 455 c 128,-1,31
 201 439 201 439 201 405 c 0,32,33
 201 383 201 383 213.5 368 c 128,-1,34
 226 353 226 353 254.5 339 c 128,-1,35
 283 325 283 325 330 305 c 0,36,37
 383 283 383 283 420 264 c 128,-1,38
 457 245 457 245 476 218.5 c 128,-1,39
 495 192 495 192 495 146 c 0,40,41
 495 95 495 95 470.5 60.5 c 128,-1,42
 446 26 446 26 398 8 c 128,-1,43
 350 -10 350 -10 279 -10 c 0,0,1
EndSplineSet
Substitution2: "'smcp' Lowercase to Small Capitals lookup 39 subtable" s.sc
Substitution2: "'sinf' Scientific Inferiors lookup 24 subtable" uni209B
Substitution2: "'subs' Subscript lookup 23 subtable" uni209B
AlternateSubs2: "'aalt' Access All Alternates lookup 1 subtable" s.sc uni209B
EndChar

StartChar: t
Encoding: 116 116 86
Width: 600
GlyphClass: 2
Flags: W
AnchorPoint: "Anchor-4" 266 268 basechar 0
AnchorPoint: "Anchor-3" 504 860 basechar 0
AnchorPoint: "Anchor-2" 269 679 basechar 0
AnchorPoint: "Anchor-1" 388 0 basechar 0
LayerCount: 2
Fore
SplineSet
416 -10 m 0,0,1
 359 -10 359 -10 314 5 c 128,-1,2
 269 20 269 20 242.5 58 c 128,-1,3
 216 96 216 96 216 163 c 2,4,-1
 216 461 l 1,5,-1
 70 461 l 1,6,-1
 70 523 l 1,7,-1
 216 539 l 1,8,-1
 234 679 l 1,9,-1
 306 679 l 1,10,-1
 306 536 l 1,11,-1
 515 536 l 1,12,-1
 515 461 l 1,13,-1
 306 461 l 1,14,-1
 306 180 l 2,15,16
 306 140 306 140 317.5 114 c 128,-1,17
 329 88 329 88 355 75.5 c 128,-1,18
 381 63 381 63 422 63 c 0,19,20
 448 63 448 63 478 68 c 128,-1,21
 508 73 508 73 530 78 c 1,22,-1
 530 6 l 1,23,24
 506 0 506 0 477 -5 c 128,-1,25
 448 -10 448 -10 416 -10 c 0,0,1
EndSplineSet
Substitution2: "'smcp' Lowercase to Small Capitals lookup 39 subtable" t.sc
Substitution2: "'sinf' Scientific Inferiors lookup 24 subtable" uni209C
Substitution2: "'subs' Subscript lookup 23 subtable" uni209C
AlternateSubs2: "'aalt' Access All Alternates lookup 1 subtable" t.sc uni209C
EndChar

StartChar: u
Encoding: 117 117 87
Width: 600
GlyphClass: 2
Flags: W
AnchorPoint: "Anchor-3" 582.5 536 basechar 0
AnchorPoint: "Anchor-2" 302.5 536 basechar 0
AnchorPoint: "Anchor-1" 302.5 0 basechar 0
AnchorPoint: "Anchor-0" 542.5 10 basechar 0
LayerCount: 2
Fore
SplineSet
263.5 -10 m 0,0,1
 168.5 -10 168.5 -10 123 37.5 c 128,-1,2
 77.5 85 77.5 85 77.5 179 c 2,3,-1
 77.5 536 l 1,4,-1
 167.5 536 l 1,5,-1
 167.5 193 l 2,6,7
 167.5 129 167.5 129 194 96 c 128,-1,8
 220.5 63 220.5 63 285.5 63 c 0,9,10
 341.5 63 341.5 63 373.5 86.5 c 128,-1,11
 405.5 110 405.5 110 419 154 c 128,-1,12
 432.5 198 432.5 198 432.5 260 c 2,13,-1
 432.5 536 l 1,14,-1
 522.5 536 l 1,15,-1
 522.5 0 l 1,16,-1
 450.5 0 l 1,17,-1
 437.5 72 l 1,18,-1
 432.5 72 l 1,19,20
 413.5 42 413.5 42 388.5 24 c 128,-1,21
 363.5 6 363.5 6 332.5 -2 c 128,-1,22
 301.5 -10 301.5 -10 263.5 -10 c 0,0,1
EndSplineSet
Substitution2: "'smcp' Lowercase to Small Capitals lookup 39 subtable" u.sc
Substitution2: "'aalt' Access All Alternates lookup 0 subtable" u.sc
EndChar

StartChar: v
Encoding: 118 118 88
Width: 600
GlyphClass: 2
Flags: W
AnchorPoint: "Anchor-3" 580.5 536 basechar 0
AnchorPoint: "Anchor-2" 300.5 536 basechar 0
AnchorPoint: "Anchor-1" 300.5 0 basechar 0
LayerCount: 2
Fore
SplineSet
243.5 0 m 1,0,-1
 45.5 536 l 1,1,-1
 137.5 536 l 1,2,-1
 249.5 218 l 2,3,4
 260.5 186 260.5 186 273 151 c 128,-1,5
 285.5 116 285.5 116 298.5 76 c 1,6,-1
 301.5 76 l 1,7,8
 314.5 116 314.5 116 328 151.5 c 128,-1,9
 341.5 187 341.5 187 351.5 218 c 2,10,-1
 460.5 536 l 1,11,-1
 554.5 536 l 1,12,-1
 354.5 0 l 1,13,-1
 243.5 0 l 1,0,-1
EndSplineSet
Substitution2: "'smcp' Lowercase to Small Capitals lookup 39 subtable" v.sc
Substitution2: "'aalt' Access All Alternates lookup 0 subtable" v.sc
EndChar

StartChar: w
Encoding: 119 119 89
Width: 600
GlyphClass: 2
Flags: W
AnchorPoint: "Anchor-1" 290.5 536 basechar 0
AnchorPoint: "Anchor-0" 289.5 0 basechar 0
LayerCount: 2
Fore
SplineSet
229.5 766 m 5,0,1
 240.5 744 240.5 744 257 716.5 c 132,-1,2
 273.5 689 273.5 689 292 663 c 132,-1,3
 310.5 637 310.5 637 325.5 618 c 5,4,-1
 325.5 606 l 5,5,-1
 266.5 606 l 5,6,7
 249.5 620 249.5 620 228.5 639.5 c 132,-1,8
 207.5 659 207.5 659 187 680.5 c 132,-1,9
 166.5 702 166.5 702 150 722 c 132,-1,10
 133.5 742 133.5 742 124.5 756 c 5,11,-1
 124.5 766 l 5,12,-1
 229.5 766 l 5,0,1
527.5 541 m 0,13,14
 539.5 541 539.5 541 549.5 539 c 128,-1,15
 559.5 537 559.5 537 568.5 535 c 1,16,-1
 568.5 467 l 1,17,18
 555.5 472 555.5 472 534.5 472 c 0,19,20
 512.5 472 512.5 472 498.5 452 c 128,-1,21
 484.5 432 484.5 432 470.5 390 c 2,22,-1
 347.5 0 l 1,23,-1
 230.5 0 l 1,24,-1
 31.5 536 l 1,25,-1
 123.5 536 l 1,26,-1
 250.5 181 l 2,27,28
 265.5 139 265.5 139 275.5 107.5 c 128,-1,29
 285.5 76 285.5 76 287.5 62 c 1,30,-1
 291.5 62 l 1,31,32
 295.5 83 295.5 83 303.5 119 c 128,-1,33
 311.5 155 311.5 155 322.5 189 c 2,34,-1
 392.5 407 l 2,35,36
 409.5 459 409.5 459 426 488 c 128,-1,37
 442.5 517 442.5 517 466 529 c 128,-1,38
 489.5 541 489.5 541 527.5 541 c 0,13,14
EndSplineSet
Substitution2: "'smcp' Lowercase to Small Capitals lookup 39 subtable" w.sc
Substitution2: "'aalt' Access All Alternates lookup 0 subtable" w.sc
EndChar

StartChar: x
Encoding: 120 120 90
Width: 600
GlyphClass: 2
Flags: W
AnchorPoint: "Anchor-3" 580.5 536 basechar 0
AnchorPoint: "Anchor-2" 300.5 536 basechar 0
AnchorPoint: "Anchor-1" 300.5 0 basechar 0
LayerCount: 2
Fore
SplineSet
45.5 0 m 1,0,-1
 248.5 274 l 1,1,-1
 55.5 536 l 1,2,-1
 156.5 536 l 1,3,-1
 300.5 335 l 1,4,-1
 444.5 536 l 1,5,-1
 545.5 536 l 1,6,-1
 351.5 274 l 1,7,-1
 554.5 0 l 1,8,-1
 453.5 0 l 1,9,-1
 300.5 213 l 1,10,-1
 146.5 0 l 1,11,-1
 45.5 0 l 1,0,-1
EndSplineSet
Substitution2: "'smcp' Lowercase to Small Capitals lookup 39 subtable" x.sc
Substitution2: "'aalt' Access All Alternates lookup 0 subtable" x.sc
EndChar

StartChar: y
Encoding: 121 121 91
Width: 600
GlyphClass: 2
Flags: W
AnchorPoint: "Anchor-3" 580.5 536 basechar 0
AnchorPoint: "Anchor-2" 300.5 536 basechar 0
AnchorPoint: "Anchor-1" 300.5 -245 basechar 0
LayerCount: 2
Fore
SplineSet
136.5 -245 m 0,0,1
 116.5 -245 116.5 -245 97.5 -242.5 c 128,-1,2
 78.5 -240 78.5 -240 64.5 -237 c 1,3,-1
 64.5 -168 l 1,4,5
 76.5 -170 76.5 -170 93 -172 c 128,-1,6
 109.5 -174 109.5 -174 125.5 -174 c 0,7,8
 156.5 -174 156.5 -174 177 -164 c 128,-1,9
 197.5 -154 197.5 -154 213 -133 c 128,-1,10
 228.5 -112 228.5 -112 241.5 -78 c 2,11,-1
 270.5 -5 l 1,12,-1
 45.5 536 l 1,13,-1
 133.5 536 l 1,14,-1
 261.5 221 l 2,15,16
 274.5 190 274.5 190 287 152 c 128,-1,17
 299.5 114 299.5 114 309.5 79 c 1,18,-1
 312.5 79 l 1,19,20
 319.5 104 319.5 104 327.5 128.5 c 128,-1,21
 335.5 153 335.5 153 343 177 c 128,-1,22
 350.5 201 350.5 201 357.5 222 c 2,23,-1
 462.5 536 l 1,24,-1
 554.5 536 l 1,25,-1
 329.5 -70 l 2,26,27
 310.5 -122 310.5 -122 288 -161.5 c 128,-1,28
 265.5 -201 265.5 -201 230 -223 c 128,-1,29
 194.5 -245 194.5 -245 136.5 -245 c 0,0,1
EndSplineSet
Substitution2: "'smcp' Lowercase to Small Capitals lookup 39 subtable" y.sc
Substitution2: "'aalt' Access All Alternates lookup 0 subtable" y.sc
EndChar

StartChar: z
Encoding: 122 122 92
Width: 600
GlyphClass: 2
Flags: W
AnchorPoint: "Anchor-3" 580 536 basechar 0
AnchorPoint: "Anchor-2" 310 536 basechar 0
AnchorPoint: "Anchor-1" 310 0 basechar 0
LayerCount: 2
Fore
SplineSet
90 0 m 1,0,-1
 90 61 l 1,1,-1
 405 467 l 1,2,-1
 106 467 l 1,3,-1
 106 536 l 1,4,-1
 502 536 l 1,5,-1
 502 465 l 1,6,-1
 197 76 l 1,7,-1
 510 76 l 1,8,-1
 510 0 l 1,9,-1
 90 0 l 1,0,-1
EndSplineSet
Substitution2: "'smcp' Lowercase to Small Capitals lookup 39 subtable" z.sc
Substitution2: "'aalt' Access All Alternates lookup 0 subtable" z.sc
EndChar

StartChar: braceleft
Encoding: 123 123 93
Width: 600
Flags: W
LayerCount: 2
Fore
SplineSet
460 -158 m 1,0,1
 399 -157 399 -157 354.5 -140 c 128,-1,2
 310 -123 310 -123 286 -87.5 c 128,-1,3
 262 -52 262 -52 262 1 c 2,4,-1
 262 148 l 2,5,6
 262 199 262 199 230.5 220.5 c 128,-1,7
 199 242 199 242 140 242 c 1,8,-1
 140 315 l 1,9,10
 199 316 199 316 230.5 337 c 128,-1,11
 262 358 262 358 262 408 c 2,12,-1
 262 556 l 2,13,14
 262 609 262 609 287 644 c 128,-1,15
 312 679 312 679 357 696.5 c 128,-1,16
 402 714 402 714 460 714 c 1,17,-1
 460 642 l 1,18,19
 426 641 426 641 401 631 c 128,-1,20
 376 621 376 621 362.5 601 c 128,-1,21
 349 581 349 581 349 548 c 2,22,-1
 349 404 l 2,23,24
 349 353 349 353 322 322.5 c 128,-1,25
 295 292 295 292 240 282 c 1,26,-1
 240 276 l 1,27,28
 296 266 296 266 322.5 235.5 c 128,-1,29
 349 205 349 205 349 154 c 2,30,-1
 349 7 l 2,31,32
 349 -42 349 -42 378 -63.5 c 128,-1,33
 407 -85 407 -85 460 -86 c 1,34,-1
 460 -158 l 1,0,1
EndSplineSet
Substitution2: "'smcp' Lowercase to Small Capitals lookup 39 subtable" braceleft.sc
Substitution2: "'c2sc' Capitals to Small Capitals lookup 38 subtable" braceleft.sc
Substitution2: "'aalt' Access All Alternates lookup 0 subtable" braceleft.sc
EndChar

StartChar: bar
Encoding: 124 124 94
Width: 600
Flags: W
LayerCount: 2
Fore
SplineSet
263.5 -240 m 1,0,-1
 263.5 760 l 1,1,-1
 336.5 760 l 1,2,-1
 336.5 -240 l 1,3,-1
 263.5 -240 l 1,0,-1
EndSplineSet
EndChar

StartChar: braceright
Encoding: 125 125 95
Width: 600
Flags: W
LayerCount: 2
Fore
SplineSet
140 714 m 1,0,1
 202 714 202 714 246 696.5 c 128,-1,2
 290 679 290 679 314 644 c 128,-1,3
 338 609 338 609 338 555 c 2,4,-1
 338 408 l 2,5,6
 338 357 338 357 369.5 335.5 c 128,-1,7
 401 314 401 314 460 314 c 1,8,-1
 460 241 l 1,9,10
 401 240 401 240 369.5 219 c 128,-1,11
 338 198 338 198 338 148 c 2,12,-1
 338 0 l 2,13,14
 338 -53 338 -53 313 -88 c 128,-1,15
 288 -123 288 -123 243.5 -140.5 c 128,-1,16
 199 -158 199 -158 140 -158 c 1,17,-1
 140 -86 l 1,18,19
 175 -85 175 -85 199.5 -75 c 128,-1,20
 224 -65 224 -65 237.5 -44.5 c 128,-1,21
 251 -24 251 -24 251 8 c 2,22,-1
 251 152 l 2,23,24
 251 203 251 203 278 233.5 c 128,-1,25
 305 264 305 264 360 274 c 1,26,-1
 360 280 l 1,27,28
 305 290 305 290 278 320.5 c 128,-1,29
 251 351 251 351 251 402 c 2,30,-1
 251 549 l 2,31,32
 251 598 251 598 222 619.5 c 128,-1,33
 193 641 193 641 140 642 c 1,34,-1
 140 714 l 1,0,1
EndSplineSet
Substitution2: "'smcp' Lowercase to Small Capitals lookup 39 subtable" braceright.sc
Substitution2: "'c2sc' Capitals to Small Capitals lookup 38 subtable" braceright.sc
Substitution2: "'aalt' Access All Alternates lookup 0 subtable" braceright.sc
EndChar

StartChar: asciitilde
Encoding: 126 126 96
Width: 600
Flags: W
LayerCount: 2
Fore
SplineSet
75 287 m 1,0,1
 78 316 78 316 84 346.5 c 128,-1,2
 90 377 90 377 103 403.5 c 128,-1,3
 116 430 116 430 138.5 446 c 128,-1,4
 161 462 161 462 197 462 c 0,5,6
 220 462 220 462 239.5 454.5 c 128,-1,7
 259 447 259 447 279 432.5 c 128,-1,8
 299 418 299 418 322 396 c 0,9,10
 343 377 343 377 363 361.5 c 128,-1,11
 383 346 383 346 404 346 c 0,12,13
 432 346 432 346 445 376.5 c 128,-1,14
 458 407 458 407 465 462 c 1,15,-1
 525 462 l 1,16,17
 522 436 522 436 515.5 406 c 128,-1,18
 509 376 509 376 496 349 c 128,-1,19
 483 322 483 322 460.5 304.5 c 128,-1,20
 438 287 438 287 403 287 c 0,21,22
 380 287 380 287 359.5 295 c 128,-1,23
 339 303 339 303 320.5 317.5 c 128,-1,24
 302 332 302 332 283 350 c 0,25,26
 260 373 260 373 240 388 c 128,-1,27
 220 403 220 403 197 403 c 0,28,29
 168 403 168 403 153.5 374.5 c 128,-1,30
 139 346 139 346 134 287 c 1,31,-1
 75 287 l 1,0,1
EndSplineSet
EndChar

StartChar: uni0080
Encoding: 128 128 98
Width: 600
Flags: W
LayerCount: 2
Fore
SplineSet
94.5 85 m 0,0,1
 94.5 103 94.5 103 110 118 c 128,-1,2
 125.5 133 125.5 133 153.5 144.5 c 128,-1,3
 181.5 156 181.5 156 219 162.5 c 128,-1,4
 256.5 169 256.5 169 299.5 169 c 0,5,6
 343.5 169 343.5 169 381 162.5 c 128,-1,7
 418.5 156 418.5 156 446 144.5 c 128,-1,8
 473.5 133 473.5 133 489.5 118 c 128,-1,9
 505.5 103 505.5 103 505.5 85 c 0,10,11
 505.5 68 505.5 68 489.5 53 c 128,-1,12
 473.5 38 473.5 38 446 27 c 128,-1,13
 418.5 16 418.5 16 381 9.5 c 128,-1,14
 343.5 3 343.5 3 299.5 3 c 0,15,16
 256.5 3 256.5 3 219 9.5 c 128,-1,17
 181.5 16 181.5 16 153.5 27 c 128,-1,18
 125.5 38 125.5 38 110 53 c 128,-1,19
 94.5 68 94.5 68 94.5 85 c 0,0,1
174.5 85 m 256,20,21
 174.5 74 174.5 74 184 64.5 c 128,-1,22
 193.5 55 193.5 55 210.5 48.5 c 128,-1,23
 227.5 42 227.5 42 250.5 38 c 128,-1,24
 273.5 34 273.5 34 299.5 34 c 0,25,26
 326.5 34 326.5 34 349 38 c 128,-1,27
 371.5 42 371.5 42 388.5 48.5 c 128,-1,28
 405.5 55 405.5 55 415 64.5 c 128,-1,29
 424.5 74 424.5 74 424.5 85 c 256,30,31
 424.5 96 424.5 96 415 105.5 c 128,-1,32
 405.5 115 405.5 115 388.5 122 c 128,-1,33
 371.5 129 371.5 129 349 133 c 128,-1,34
 326.5 137 326.5 137 299.5 137 c 0,35,36
 273.5 137 273.5 137 250.5 133 c 128,-1,37
 227.5 129 227.5 129 210.5 122 c 128,-1,38
 193.5 115 193.5 115 184 105.5 c 128,-1,39
 174.5 96 174.5 96 174.5 85 c 256,20,21
94.5 272 m 0,40,41
 94.5 290 94.5 290 110 305 c 128,-1,42
 125.5 320 125.5 320 153.5 331.5 c 128,-1,43
 181.5 343 181.5 343 219 349 c 128,-1,44
 256.5 355 256.5 355 299.5 355 c 0,45,46
 343.5 355 343.5 355 381 349 c 128,-1,47
 418.5 343 418.5 343 446 331.5 c 128,-1,48
 473.5 320 473.5 320 489.5 305 c 128,-1,49
 505.5 290 505.5 290 505.5 272 c 0,50,51
 505.5 255 505.5 255 489.5 240 c 128,-1,52
 473.5 225 473.5 225 446 214 c 128,-1,53
 418.5 203 418.5 203 381 196 c 128,-1,54
 343.5 189 343.5 189 299.5 189 c 0,55,56
 256.5 189 256.5 189 219 196 c 128,-1,57
 181.5 203 181.5 203 153.5 214 c 128,-1,58
 125.5 225 125.5 225 110 240 c 128,-1,59
 94.5 255 94.5 255 94.5 272 c 0,40,41
174.5 272 m 256,60,61
 174.5 261 174.5 261 184 251.5 c 128,-1,62
 193.5 242 193.5 242 210.5 235 c 128,-1,63
 227.5 228 227.5 228 250.5 224 c 128,-1,64
 273.5 220 273.5 220 299.5 220 c 0,65,66
 326.5 220 326.5 220 349 224 c 128,-1,67
 371.5 228 371.5 228 388.5 235 c 128,-1,68
 405.5 242 405.5 242 415 251.5 c 128,-1,69
 424.5 261 424.5 261 424.5 272 c 256,70,71
 424.5 283 424.5 283 415 292.5 c 128,-1,72
 405.5 302 405.5 302 388.5 309 c 128,-1,73
 371.5 316 371.5 316 349 320 c 128,-1,74
 326.5 324 326.5 324 299.5 324 c 0,75,76
 273.5 324 273.5 324 250.5 320 c 128,-1,77
 227.5 316 227.5 316 210.5 309 c 128,-1,78
 193.5 302 193.5 302 184 292.5 c 128,-1,79
 174.5 283 174.5 283 174.5 272 c 256,60,61
94.5 461 m 256,80,81
 94.5 478 94.5 478 110 493.5 c 128,-1,82
 125.5 509 125.5 509 153.5 520 c 128,-1,83
 181.5 531 181.5 531 219 537.5 c 128,-1,84
 256.5 544 256.5 544 299.5 544 c 0,85,86
 343.5 544 343.5 544 381 537.5 c 128,-1,87
 418.5 531 418.5 531 446 520 c 128,-1,88
 473.5 509 473.5 509 489.5 493.5 c 128,-1,89
 505.5 478 505.5 478 505.5 461 c 256,90,91
 505.5 444 505.5 444 489.5 429 c 128,-1,92
 473.5 414 473.5 414 446 402.5 c 128,-1,93
 418.5 391 418.5 391 381 384.5 c 128,-1,94
 343.5 378 343.5 378 299.5 378 c 0,95,96
 256.5 378 256.5 378 219 384.5 c 128,-1,97
 181.5 391 181.5 391 153.5 402.5 c 128,-1,98
 125.5 414 125.5 414 110 429 c 128,-1,99
 94.5 444 94.5 444 94.5 461 c 256,80,81
174.5 461 m 256,100,101
 174.5 450 174.5 450 184 440.5 c 128,-1,102
 193.5 431 193.5 431 210.5 424 c 128,-1,103
 227.5 417 227.5 417 250.5 413 c 128,-1,104
 273.5 409 273.5 409 299.5 409 c 0,105,106
 326.5 409 326.5 409 349 413 c 128,-1,107
 371.5 417 371.5 417 388.5 424 c 128,-1,108
 405.5 431 405.5 431 415 440.5 c 128,-1,109
 424.5 450 424.5 450 424.5 461 c 256,110,111
 424.5 472 424.5 472 415 481.5 c 128,-1,112
 405.5 491 405.5 491 388.5 498 c 128,-1,113
 371.5 505 371.5 505 349 509 c 128,-1,114
 326.5 513 326.5 513 299.5 513 c 0,115,116
 273.5 513 273.5 513 250.5 509 c 128,-1,117
 227.5 505 227.5 505 210.5 498 c 128,-1,118
 193.5 491 193.5 491 184 481.5 c 128,-1,119
 174.5 472 174.5 472 174.5 461 c 256,100,101
94.5 648 m 256,120,121
 94.5 665 94.5 665 110 680.5 c 128,-1,122
 125.5 696 125.5 696 153.5 707 c 128,-1,123
 181.5 718 181.5 718 219 724.5 c 128,-1,124
 256.5 731 256.5 731 299.5 731 c 0,125,126
 343.5 731 343.5 731 381 724.5 c 128,-1,127
 418.5 718 418.5 718 446 707 c 128,-1,128
 473.5 696 473.5 696 489.5 680.5 c 128,-1,129
 505.5 665 505.5 665 505.5 648 c 256,130,131
 505.5 631 505.5 631 489.5 616 c 128,-1,132
 473.5 601 473.5 601 446 589.5 c 128,-1,133
 418.5 578 418.5 578 381 571.5 c 128,-1,134
 343.5 565 343.5 565 299.5 565 c 0,135,136
 256.5 565 256.5 565 219 571.5 c 128,-1,137
 181.5 578 181.5 578 153.5 589.5 c 128,-1,138
 125.5 601 125.5 601 110 616 c 128,-1,139
 94.5 631 94.5 631 94.5 648 c 256,120,121
174.5 648 m 0,140,141
 174.5 637 174.5 637 184 627.5 c 128,-1,142
 193.5 618 193.5 618 210.5 611 c 128,-1,143
 227.5 604 227.5 604 250.5 600 c 128,-1,144
 273.5 596 273.5 596 299.5 596 c 0,145,146
 326.5 596 326.5 596 349 600 c 128,-1,147
 371.5 604 371.5 604 388.5 611 c 128,-1,148
 405.5 618 405.5 618 415 627.5 c 128,-1,149
 424.5 637 424.5 637 424.5 648 c 0,150,151
 424.5 658 424.5 658 415 668 c 128,-1,152
 405.5 678 405.5 678 388.5 685 c 128,-1,153
 371.5 692 371.5 692 349 696 c 128,-1,154
 326.5 700 326.5 700 299.5 700 c 0,155,156
 273.5 700 273.5 700 250.5 696 c 128,-1,157
 227.5 692 227.5 692 210.5 685 c 128,-1,158
 193.5 678 193.5 678 184 668 c 128,-1,159
 174.5 658 174.5 658 174.5 648 c 0,140,141
EndSplineSet
EndChar

StartChar: uni0081
Encoding: 129 129 99
Width: 600
Flags: W
LayerCount: 2
Fore
SplineSet
94.5 85 m 0,0,1
 94.5 103 94.5 103 110 118 c 128,-1,2
 125.5 133 125.5 133 153.5 144.5 c 128,-1,3
 181.5 156 181.5 156 219 162.5 c 128,-1,4
 256.5 169 256.5 169 299.5 169 c 0,5,6
 343.5 169 343.5 169 381 162.5 c 128,-1,7
 418.5 156 418.5 156 446 144.5 c 128,-1,8
 473.5 133 473.5 133 489.5 118 c 128,-1,9
 505.5 103 505.5 103 505.5 85 c 0,10,11
 505.5 68 505.5 68 489.5 53 c 128,-1,12
 473.5 38 473.5 38 446 27 c 128,-1,13
 418.5 16 418.5 16 381 9.5 c 128,-1,14
 343.5 3 343.5 3 299.5 3 c 0,15,16
 256.5 3 256.5 3 219 9.5 c 128,-1,17
 181.5 16 181.5 16 153.5 27 c 128,-1,18
 125.5 38 125.5 38 110 53 c 128,-1,19
 94.5 68 94.5 68 94.5 85 c 0,0,1
94.5 272 m 0,20,21
 94.5 290 94.5 290 110 305 c 128,-1,22
 125.5 320 125.5 320 153.5 331.5 c 128,-1,23
 181.5 343 181.5 343 219 349 c 128,-1,24
 256.5 355 256.5 355 299.5 355 c 0,25,26
 343.5 355 343.5 355 381 349 c 128,-1,27
 418.5 343 418.5 343 446 331.5 c 128,-1,28
 473.5 320 473.5 320 489.5 305 c 128,-1,29
 505.5 290 505.5 290 505.5 272 c 0,30,31
 505.5 255 505.5 255 489.5 240 c 128,-1,32
 473.5 225 473.5 225 446 214 c 128,-1,33
 418.5 203 418.5 203 381 196 c 128,-1,34
 343.5 189 343.5 189 299.5 189 c 0,35,36
 256.5 189 256.5 189 219 196 c 128,-1,37
 181.5 203 181.5 203 153.5 214 c 128,-1,38
 125.5 225 125.5 225 110 240 c 128,-1,39
 94.5 255 94.5 255 94.5 272 c 0,20,21
174.5 272 m 256,40,41
 174.5 261 174.5 261 184 251.5 c 128,-1,42
 193.5 242 193.5 242 210.5 235 c 128,-1,43
 227.5 228 227.5 228 250.5 224 c 128,-1,44
 273.5 220 273.5 220 299.5 220 c 0,45,46
 326.5 220 326.5 220 349 224 c 128,-1,47
 371.5 228 371.5 228 388.5 235 c 128,-1,48
 405.5 242 405.5 242 415 251.5 c 128,-1,49
 424.5 261 424.5 261 424.5 272 c 256,50,51
 424.5 283 424.5 283 415 292.5 c 128,-1,52
 405.5 302 405.5 302 388.5 309 c 128,-1,53
 371.5 316 371.5 316 349 320 c 128,-1,54
 326.5 324 326.5 324 299.5 324 c 0,55,56
 273.5 324 273.5 324 250.5 320 c 128,-1,57
 227.5 316 227.5 316 210.5 309 c 128,-1,58
 193.5 302 193.5 302 184 292.5 c 128,-1,59
 174.5 283 174.5 283 174.5 272 c 256,40,41
94.5 461 m 256,60,61
 94.5 478 94.5 478 110 493.5 c 128,-1,62
 125.5 509 125.5 509 153.5 520 c 128,-1,63
 181.5 531 181.5 531 219 537.5 c 128,-1,64
 256.5 544 256.5 544 299.5 544 c 0,65,66
 343.5 544 343.5 544 381 537.5 c 128,-1,67
 418.5 531 418.5 531 446 520 c 128,-1,68
 473.5 509 473.5 509 489.5 493.5 c 128,-1,69
 505.5 478 505.5 478 505.5 461 c 256,70,71
 505.5 444 505.5 444 489.5 429 c 128,-1,72
 473.5 414 473.5 414 446 402.5 c 128,-1,73
 418.5 391 418.5 391 381 384.5 c 128,-1,74
 343.5 378 343.5 378 299.5 378 c 0,75,76
 256.5 378 256.5 378 219 384.5 c 128,-1,77
 181.5 391 181.5 391 153.5 402.5 c 128,-1,78
 125.5 414 125.5 414 110 429 c 128,-1,79
 94.5 444 94.5 444 94.5 461 c 256,60,61
174.5 461 m 256,80,81
 174.5 450 174.5 450 184 440.5 c 128,-1,82
 193.5 431 193.5 431 210.5 424 c 128,-1,83
 227.5 417 227.5 417 250.5 413 c 128,-1,84
 273.5 409 273.5 409 299.5 409 c 0,85,86
 326.5 409 326.5 409 349 413 c 128,-1,87
 371.5 417 371.5 417 388.5 424 c 128,-1,88
 405.5 431 405.5 431 415 440.5 c 128,-1,89
 424.5 450 424.5 450 424.5 461 c 256,90,91
 424.5 472 424.5 472 415 481.5 c 128,-1,92
 405.5 491 405.5 491 388.5 498 c 128,-1,93
 371.5 505 371.5 505 349 509 c 128,-1,94
 326.5 513 326.5 513 299.5 513 c 0,95,96
 273.5 513 273.5 513 250.5 509 c 128,-1,97
 227.5 505 227.5 505 210.5 498 c 128,-1,98
 193.5 491 193.5 491 184 481.5 c 128,-1,99
 174.5 472 174.5 472 174.5 461 c 256,80,81
94.5 648 m 256,100,101
 94.5 665 94.5 665 110 680.5 c 128,-1,102
 125.5 696 125.5 696 153.5 707 c 128,-1,103
 181.5 718 181.5 718 219 724.5 c 128,-1,104
 256.5 731 256.5 731 299.5 731 c 0,105,106
 343.5 731 343.5 731 381 724.5 c 128,-1,107
 418.5 718 418.5 718 446 707 c 128,-1,108
 473.5 696 473.5 696 489.5 680.5 c 128,-1,109
 505.5 665 505.5 665 505.5 648 c 256,110,111
 505.5 631 505.5 631 489.5 616 c 128,-1,112
 473.5 601 473.5 601 446 589.5 c 128,-1,113
 418.5 578 418.5 578 381 571.5 c 128,-1,114
 343.5 565 343.5 565 299.5 565 c 0,115,116
 256.5 565 256.5 565 219 571.5 c 128,-1,117
 181.5 578 181.5 578 153.5 589.5 c 128,-1,118
 125.5 601 125.5 601 110 616 c 128,-1,119
 94.5 631 94.5 631 94.5 648 c 256,100,101
174.5 648 m 0,120,121
 174.5 637 174.5 637 184 627.5 c 128,-1,122
 193.5 618 193.5 618 210.5 611 c 128,-1,123
 227.5 604 227.5 604 250.5 600 c 128,-1,124
 273.5 596 273.5 596 299.5 596 c 0,125,126
 326.5 596 326.5 596 349 600 c 128,-1,127
 371.5 604 371.5 604 388.5 611 c 128,-1,128
 405.5 618 405.5 618 415 627.5 c 128,-1,129
 424.5 637 424.5 637 424.5 648 c 0,130,131
 424.5 658 424.5 658 415 668 c 128,-1,132
 405.5 678 405.5 678 388.5 685 c 128,-1,133
 371.5 692 371.5 692 349 696 c 128,-1,134
 326.5 700 326.5 700 299.5 700 c 0,135,136
 273.5 700 273.5 700 250.5 696 c 128,-1,137
 227.5 692 227.5 692 210.5 685 c 128,-1,138
 193.5 678 193.5 678 184 668 c 128,-1,139
 174.5 658 174.5 658 174.5 648 c 0,120,121
EndSplineSet
EndChar

StartChar: uni0082
Encoding: 130 130 100
Width: 600
Flags: W
LayerCount: 2
Fore
SplineSet
94.5 85 m 0,0,1
 94.5 103 94.5 103 110 118 c 128,-1,2
 125.5 133 125.5 133 153.5 144.5 c 128,-1,3
 181.5 156 181.5 156 219 162.5 c 128,-1,4
 256.5 169 256.5 169 299.5 169 c 0,5,6
 343.5 169 343.5 169 381 162.5 c 128,-1,7
 418.5 156 418.5 156 446 144.5 c 128,-1,8
 473.5 133 473.5 133 489.5 118 c 128,-1,9
 505.5 103 505.5 103 505.5 85 c 0,10,11
 505.5 68 505.5 68 489.5 53 c 128,-1,12
 473.5 38 473.5 38 446 27 c 128,-1,13
 418.5 16 418.5 16 381 9.5 c 128,-1,14
 343.5 3 343.5 3 299.5 3 c 0,15,16
 256.5 3 256.5 3 219 9.5 c 128,-1,17
 181.5 16 181.5 16 153.5 27 c 128,-1,18
 125.5 38 125.5 38 110 53 c 128,-1,19
 94.5 68 94.5 68 94.5 85 c 0,0,1
174.5 85 m 256,20,21
 174.5 74 174.5 74 184 64.5 c 128,-1,22
 193.5 55 193.5 55 210.5 48.5 c 128,-1,23
 227.5 42 227.5 42 250.5 38 c 128,-1,24
 273.5 34 273.5 34 299.5 34 c 0,25,26
 326.5 34 326.5 34 349 38 c 128,-1,27
 371.5 42 371.5 42 388.5 48.5 c 128,-1,28
 405.5 55 405.5 55 415 64.5 c 128,-1,29
 424.5 74 424.5 74 424.5 85 c 256,30,31
 424.5 96 424.5 96 415 105.5 c 128,-1,32
 405.5 115 405.5 115 388.5 122 c 128,-1,33
 371.5 129 371.5 129 349 133 c 128,-1,34
 326.5 137 326.5 137 299.5 137 c 0,35,36
 273.5 137 273.5 137 250.5 133 c 128,-1,37
 227.5 129 227.5 129 210.5 122 c 128,-1,38
 193.5 115 193.5 115 184 105.5 c 128,-1,39
 174.5 96 174.5 96 174.5 85 c 256,20,21
94.5 272 m 0,40,41
 94.5 290 94.5 290 110 305 c 128,-1,42
 125.5 320 125.5 320 153.5 331.5 c 128,-1,43
 181.5 343 181.5 343 219 349 c 128,-1,44
 256.5 355 256.5 355 299.5 355 c 0,45,46
 343.5 355 343.5 355 381 349 c 128,-1,47
 418.5 343 418.5 343 446 331.5 c 128,-1,48
 473.5 320 473.5 320 489.5 305 c 128,-1,49
 505.5 290 505.5 290 505.5 272 c 0,50,51
 505.5 255 505.5 255 489.5 240 c 128,-1,52
 473.5 225 473.5 225 446 214 c 128,-1,53
 418.5 203 418.5 203 381 196 c 128,-1,54
 343.5 189 343.5 189 299.5 189 c 0,55,56
 256.5 189 256.5 189 219 196 c 128,-1,57
 181.5 203 181.5 203 153.5 214 c 128,-1,58
 125.5 225 125.5 225 110 240 c 128,-1,59
 94.5 255 94.5 255 94.5 272 c 0,40,41
94.5 461 m 256,60,61
 94.5 478 94.5 478 110 493.5 c 128,-1,62
 125.5 509 125.5 509 153.5 520 c 128,-1,63
 181.5 531 181.5 531 219 537.5 c 128,-1,64
 256.5 544 256.5 544 299.5 544 c 0,65,66
 343.5 544 343.5 544 381 537.5 c 128,-1,67
 418.5 531 418.5 531 446 520 c 128,-1,68
 473.5 509 473.5 509 489.5 493.5 c 128,-1,69
 505.5 478 505.5 478 505.5 461 c 256,70,71
 505.5 444 505.5 444 489.5 429 c 128,-1,72
 473.5 414 473.5 414 446 402.5 c 128,-1,73
 418.5 391 418.5 391 381 384.5 c 128,-1,74
 343.5 378 343.5 378 299.5 378 c 0,75,76
 256.5 378 256.5 378 219 384.5 c 128,-1,77
 181.5 391 181.5 391 153.5 402.5 c 128,-1,78
 125.5 414 125.5 414 110 429 c 128,-1,79
 94.5 444 94.5 444 94.5 461 c 256,60,61
174.5 461 m 256,80,81
 174.5 450 174.5 450 184 440.5 c 128,-1,82
 193.5 431 193.5 431 210.5 424 c 128,-1,83
 227.5 417 227.5 417 250.5 413 c 128,-1,84
 273.5 409 273.5 409 299.5 409 c 0,85,86
 326.5 409 326.5 409 349 413 c 128,-1,87
 371.5 417 371.5 417 388.5 424 c 128,-1,88
 405.5 431 405.5 431 415 440.5 c 128,-1,89
 424.5 450 424.5 450 424.5 461 c 256,90,91
 424.5 472 424.5 472 415 481.5 c 128,-1,92
 405.5 491 405.5 491 388.5 498 c 128,-1,93
 371.5 505 371.5 505 349 509 c 128,-1,94
 326.5 513 326.5 513 299.5 513 c 0,95,96
 273.5 513 273.5 513 250.5 509 c 128,-1,97
 227.5 505 227.5 505 210.5 498 c 128,-1,98
 193.5 491 193.5 491 184 481.5 c 128,-1,99
 174.5 472 174.5 472 174.5 461 c 256,80,81
94.5 648 m 256,100,101
 94.5 665 94.5 665 110 680.5 c 128,-1,102
 125.5 696 125.5 696 153.5 707 c 128,-1,103
 181.5 718 181.5 718 219 724.5 c 128,-1,104
 256.5 731 256.5 731 299.5 731 c 0,105,106
 343.5 731 343.5 731 381 724.5 c 128,-1,107
 418.5 718 418.5 718 446 707 c 128,-1,108
 473.5 696 473.5 696 489.5 680.5 c 128,-1,109
 505.5 665 505.5 665 505.5 648 c 256,110,111
 505.5 631 505.5 631 489.5 616 c 128,-1,112
 473.5 601 473.5 601 446 589.5 c 128,-1,113
 418.5 578 418.5 578 381 571.5 c 128,-1,114
 343.5 565 343.5 565 299.5 565 c 0,115,116
 256.5 565 256.5 565 219 571.5 c 128,-1,117
 181.5 578 181.5 578 153.5 589.5 c 128,-1,118
 125.5 601 125.5 601 110 616 c 128,-1,119
 94.5 631 94.5 631 94.5 648 c 256,100,101
174.5 648 m 0,120,121
 174.5 637 174.5 637 184 627.5 c 128,-1,122
 193.5 618 193.5 618 210.5 611 c 128,-1,123
 227.5 604 227.5 604 250.5 600 c 128,-1,124
 273.5 596 273.5 596 299.5 596 c 0,125,126
 326.5 596 326.5 596 349 600 c 128,-1,127
 371.5 604 371.5 604 388.5 611 c 128,-1,128
 405.5 618 405.5 618 415 627.5 c 128,-1,129
 424.5 637 424.5 637 424.5 648 c 0,130,131
 424.5 658 424.5 658 415 668 c 128,-1,132
 405.5 678 405.5 678 388.5 685 c 128,-1,133
 371.5 692 371.5 692 349 696 c 128,-1,134
 326.5 700 326.5 700 299.5 700 c 0,135,136
 273.5 700 273.5 700 250.5 696 c 128,-1,137
 227.5 692 227.5 692 210.5 685 c 128,-1,138
 193.5 678 193.5 678 184 668 c 128,-1,139
 174.5 658 174.5 658 174.5 648 c 0,120,121
EndSplineSet
EndChar

StartChar: uni0083
Encoding: 131 131 101
Width: 600
Flags: W
LayerCount: 2
Fore
SplineSet
94.5 85 m 0,0,1
 94.5 103 94.5 103 110 118 c 128,-1,2
 125.5 133 125.5 133 153.5 144.5 c 128,-1,3
 181.5 156 181.5 156 219 162.5 c 128,-1,4
 256.5 169 256.5 169 299.5 169 c 0,5,6
 343.5 169 343.5 169 381 162.5 c 128,-1,7
 418.5 156 418.5 156 446 144.5 c 128,-1,8
 473.5 133 473.5 133 489.5 118 c 128,-1,9
 505.5 103 505.5 103 505.5 85 c 0,10,11
 505.5 68 505.5 68 489.5 53 c 128,-1,12
 473.5 38 473.5 38 446 27 c 128,-1,13
 418.5 16 418.5 16 381 9.5 c 128,-1,14
 343.5 3 343.5 3 299.5 3 c 0,15,16
 256.5 3 256.5 3 219 9.5 c 128,-1,17
 181.5 16 181.5 16 153.5 27 c 128,-1,18
 125.5 38 125.5 38 110 53 c 128,-1,19
 94.5 68 94.5 68 94.5 85 c 0,0,1
94.5 272 m 0,20,21
 94.5 290 94.5 290 110 305 c 128,-1,22
 125.5 320 125.5 320 153.5 331.5 c 128,-1,23
 181.5 343 181.5 343 219 349 c 128,-1,24
 256.5 355 256.5 355 299.5 355 c 0,25,26
 343.5 355 343.5 355 381 349 c 128,-1,27
 418.5 343 418.5 343 446 331.5 c 128,-1,28
 473.5 320 473.5 320 489.5 305 c 128,-1,29
 505.5 290 505.5 290 505.5 272 c 0,30,31
 505.5 255 505.5 255 489.5 240 c 128,-1,32
 473.5 225 473.5 225 446 214 c 128,-1,33
 418.5 203 418.5 203 381 196 c 128,-1,34
 343.5 189 343.5 189 299.5 189 c 0,35,36
 256.5 189 256.5 189 219 196 c 128,-1,37
 181.5 203 181.5 203 153.5 214 c 128,-1,38
 125.5 225 125.5 225 110 240 c 128,-1,39
 94.5 255 94.5 255 94.5 272 c 0,20,21
94.5 461 m 256,40,41
 94.5 478 94.5 478 110 493.5 c 128,-1,42
 125.5 509 125.5 509 153.5 520 c 128,-1,43
 181.5 531 181.5 531 219 537.5 c 128,-1,44
 256.5 544 256.5 544 299.5 544 c 0,45,46
 343.5 544 343.5 544 381 537.5 c 128,-1,47
 418.5 531 418.5 531 446 520 c 128,-1,48
 473.5 509 473.5 509 489.5 493.5 c 128,-1,49
 505.5 478 505.5 478 505.5 461 c 256,50,51
 505.5 444 505.5 444 489.5 429 c 128,-1,52
 473.5 414 473.5 414 446 402.5 c 128,-1,53
 418.5 391 418.5 391 381 384.5 c 128,-1,54
 343.5 378 343.5 378 299.5 378 c 0,55,56
 256.5 378 256.5 378 219 384.5 c 128,-1,57
 181.5 391 181.5 391 153.5 402.5 c 128,-1,58
 125.5 414 125.5 414 110 429 c 128,-1,59
 94.5 444 94.5 444 94.5 461 c 256,40,41
174.5 461 m 256,60,61
 174.5 450 174.5 450 184 440.5 c 128,-1,62
 193.5 431 193.5 431 210.5 424 c 128,-1,63
 227.5 417 227.5 417 250.5 413 c 128,-1,64
 273.5 409 273.5 409 299.5 409 c 0,65,66
 326.5 409 326.5 409 349 413 c 128,-1,67
 371.5 417 371.5 417 388.5 424 c 128,-1,68
 405.5 431 405.5 431 415 440.5 c 128,-1,69
 424.5 450 424.5 450 424.5 461 c 256,70,71
 424.5 472 424.5 472 415 481.5 c 128,-1,72
 405.5 491 405.5 491 388.5 498 c 128,-1,73
 371.5 505 371.5 505 349 509 c 128,-1,74
 326.5 513 326.5 513 299.5 513 c 0,75,76
 273.5 513 273.5 513 250.5 509 c 128,-1,77
 227.5 505 227.5 505 210.5 498 c 128,-1,78
 193.5 491 193.5 491 184 481.5 c 128,-1,79
 174.5 472 174.5 472 174.5 461 c 256,60,61
94.5 648 m 256,80,81
 94.5 665 94.5 665 110 680.5 c 128,-1,82
 125.5 696 125.5 696 153.5 707 c 128,-1,83
 181.5 718 181.5 718 219 724.5 c 128,-1,84
 256.5 731 256.5 731 299.5 731 c 0,85,86
 343.5 731 343.5 731 381 724.5 c 128,-1,87
 418.5 718 418.5 718 446 707 c 128,-1,88
 473.5 696 473.5 696 489.5 680.5 c 128,-1,89
 505.5 665 505.5 665 505.5 648 c 256,90,91
 505.5 631 505.5 631 489.5 616 c 128,-1,92
 473.5 601 473.5 601 446 589.5 c 128,-1,93
 418.5 578 418.5 578 381 571.5 c 128,-1,94
 343.5 565 343.5 565 299.5 565 c 0,95,96
 256.5 565 256.5 565 219 571.5 c 128,-1,97
 181.5 578 181.5 578 153.5 589.5 c 128,-1,98
 125.5 601 125.5 601 110 616 c 128,-1,99
 94.5 631 94.5 631 94.5 648 c 256,80,81
174.5 648 m 0,100,101
 174.5 637 174.5 637 184 627.5 c 128,-1,102
 193.5 618 193.5 618 210.5 611 c 128,-1,103
 227.5 604 227.5 604 250.5 600 c 128,-1,104
 273.5 596 273.5 596 299.5 596 c 0,105,106
 326.5 596 326.5 596 349 600 c 128,-1,107
 371.5 604 371.5 604 388.5 611 c 128,-1,108
 405.5 618 405.5 618 415 627.5 c 128,-1,109
 424.5 637 424.5 637 424.5 648 c 0,110,111
 424.5 658 424.5 658 415 668 c 128,-1,112
 405.5 678 405.5 678 388.5 685 c 128,-1,113
 371.5 692 371.5 692 349 696 c 128,-1,114
 326.5 700 326.5 700 299.5 700 c 0,115,116
 273.5 700 273.5 700 250.5 696 c 128,-1,117
 227.5 692 227.5 692 210.5 685 c 128,-1,118
 193.5 678 193.5 678 184 668 c 128,-1,119
 174.5 658 174.5 658 174.5 648 c 0,100,101
EndSplineSet
EndChar

StartChar: uni0084
Encoding: 132 132 102
Width: 600
Flags: W
LayerCount: 2
Fore
SplineSet
94.5 85 m 0,0,1
 94.5 103 94.5 103 110 118 c 128,-1,2
 125.5 133 125.5 133 153.5 144.5 c 128,-1,3
 181.5 156 181.5 156 219 162.5 c 128,-1,4
 256.5 169 256.5 169 299.5 169 c 0,5,6
 343.5 169 343.5 169 381 162.5 c 128,-1,7
 418.5 156 418.5 156 446 144.5 c 128,-1,8
 473.5 133 473.5 133 489.5 118 c 128,-1,9
 505.5 103 505.5 103 505.5 85 c 0,10,11
 505.5 68 505.5 68 489.5 53 c 128,-1,12
 473.5 38 473.5 38 446 27 c 128,-1,13
 418.5 16 418.5 16 381 9.5 c 128,-1,14
 343.5 3 343.5 3 299.5 3 c 0,15,16
 256.5 3 256.5 3 219 9.5 c 128,-1,17
 181.5 16 181.5 16 153.5 27 c 128,-1,18
 125.5 38 125.5 38 110 53 c 128,-1,19
 94.5 68 94.5 68 94.5 85 c 0,0,1
174.5 85 m 256,20,21
 174.5 74 174.5 74 184 64.5 c 128,-1,22
 193.5 55 193.5 55 210.5 48.5 c 128,-1,23
 227.5 42 227.5 42 250.5 38 c 128,-1,24
 273.5 34 273.5 34 299.5 34 c 0,25,26
 326.5 34 326.5 34 349 38 c 128,-1,27
 371.5 42 371.5 42 388.5 48.5 c 128,-1,28
 405.5 55 405.5 55 415 64.5 c 128,-1,29
 424.5 74 424.5 74 424.5 85 c 256,30,31
 424.5 96 424.5 96 415 105.5 c 128,-1,32
 405.5 115 405.5 115 388.5 122 c 128,-1,33
 371.5 129 371.5 129 349 133 c 128,-1,34
 326.5 137 326.5 137 299.5 137 c 0,35,36
 273.5 137 273.5 137 250.5 133 c 128,-1,37
 227.5 129 227.5 129 210.5 122 c 128,-1,38
 193.5 115 193.5 115 184 105.5 c 128,-1,39
 174.5 96 174.5 96 174.5 85 c 256,20,21
94.5 272 m 0,40,41
 94.5 290 94.5 290 110 305 c 128,-1,42
 125.5 320 125.5 320 153.5 331.5 c 128,-1,43
 181.5 343 181.5 343 219 349 c 128,-1,44
 256.5 355 256.5 355 299.5 355 c 0,45,46
 343.5 355 343.5 355 381 349 c 128,-1,47
 418.5 343 418.5 343 446 331.5 c 128,-1,48
 473.5 320 473.5 320 489.5 305 c 128,-1,49
 505.5 290 505.5 290 505.5 272 c 0,50,51
 505.5 255 505.5 255 489.5 240 c 128,-1,52
 473.5 225 473.5 225 446 214 c 128,-1,53
 418.5 203 418.5 203 381 196 c 128,-1,54
 343.5 189 343.5 189 299.5 189 c 0,55,56
 256.5 189 256.5 189 219 196 c 128,-1,57
 181.5 203 181.5 203 153.5 214 c 128,-1,58
 125.5 225 125.5 225 110 240 c 128,-1,59
 94.5 255 94.5 255 94.5 272 c 0,40,41
174.5 272 m 256,60,61
 174.5 261 174.5 261 184 251.5 c 128,-1,62
 193.5 242 193.5 242 210.5 235 c 128,-1,63
 227.5 228 227.5 228 250.5 224 c 128,-1,64
 273.5 220 273.5 220 299.5 220 c 0,65,66
 326.5 220 326.5 220 349 224 c 128,-1,67
 371.5 228 371.5 228 388.5 235 c 128,-1,68
 405.5 242 405.5 242 415 251.5 c 128,-1,69
 424.5 261 424.5 261 424.5 272 c 256,70,71
 424.5 283 424.5 283 415 292.5 c 128,-1,72
 405.5 302 405.5 302 388.5 309 c 128,-1,73
 371.5 316 371.5 316 349 320 c 128,-1,74
 326.5 324 326.5 324 299.5 324 c 0,75,76
 273.5 324 273.5 324 250.5 320 c 128,-1,77
 227.5 316 227.5 316 210.5 309 c 128,-1,78
 193.5 302 193.5 302 184 292.5 c 128,-1,79
 174.5 283 174.5 283 174.5 272 c 256,60,61
94.5 461 m 256,80,81
 94.5 478 94.5 478 110 493.5 c 128,-1,82
 125.5 509 125.5 509 153.5 520 c 128,-1,83
 181.5 531 181.5 531 219 537.5 c 128,-1,84
 256.5 544 256.5 544 299.5 544 c 0,85,86
 343.5 544 343.5 544 381 537.5 c 128,-1,87
 418.5 531 418.5 531 446 520 c 128,-1,88
 473.5 509 473.5 509 489.5 493.5 c 128,-1,89
 505.5 478 505.5 478 505.5 461 c 256,90,91
 505.5 444 505.5 444 489.5 429 c 128,-1,92
 473.5 414 473.5 414 446 402.5 c 128,-1,93
 418.5 391 418.5 391 381 384.5 c 128,-1,94
 343.5 378 343.5 378 299.5 378 c 0,95,96
 256.5 378 256.5 378 219 384.5 c 128,-1,97
 181.5 391 181.5 391 153.5 402.5 c 128,-1,98
 125.5 414 125.5 414 110 429 c 128,-1,99
 94.5 444 94.5 444 94.5 461 c 256,80,81
94.5 648 m 256,100,101
 94.5 665 94.5 665 110 680.5 c 128,-1,102
 125.5 696 125.5 696 153.5 707 c 128,-1,103
 181.5 718 181.5 718 219 724.5 c 128,-1,104
 256.5 731 256.5 731 299.5 731 c 0,105,106
 343.5 731 343.5 731 381 724.5 c 128,-1,107
 418.5 718 418.5 718 446 707 c 128,-1,108
 473.5 696 473.5 696 489.5 680.5 c 128,-1,109
 505.5 665 505.5 665 505.5 648 c 256,110,111
 505.5 631 505.5 631 489.5 616 c 128,-1,112
 473.5 601 473.5 601 446 589.5 c 128,-1,113
 418.5 578 418.5 578 381 571.5 c 128,-1,114
 343.5 565 343.5 565 299.5 565 c 0,115,116
 256.5 565 256.5 565 219 571.5 c 128,-1,117
 181.5 578 181.5 578 153.5 589.5 c 128,-1,118
 125.5 601 125.5 601 110 616 c 128,-1,119
 94.5 631 94.5 631 94.5 648 c 256,100,101
174.5 648 m 0,120,121
 174.5 637 174.5 637 184 627.5 c 128,-1,122
 193.5 618 193.5 618 210.5 611 c 128,-1,123
 227.5 604 227.5 604 250.5 600 c 128,-1,124
 273.5 596 273.5 596 299.5 596 c 0,125,126
 326.5 596 326.5 596 349 600 c 128,-1,127
 371.5 604 371.5 604 388.5 611 c 128,-1,128
 405.5 618 405.5 618 415 627.5 c 128,-1,129
 424.5 637 424.5 637 424.5 648 c 0,130,131
 424.5 658 424.5 658 415 668 c 128,-1,132
 405.5 678 405.5 678 388.5 685 c 128,-1,133
 371.5 692 371.5 692 349 696 c 128,-1,134
 326.5 700 326.5 700 299.5 700 c 0,135,136
 273.5 700 273.5 700 250.5 696 c 128,-1,137
 227.5 692 227.5 692 210.5 685 c 128,-1,138
 193.5 678 193.5 678 184 668 c 128,-1,139
 174.5 658 174.5 658 174.5 648 c 0,120,121
EndSplineSet
EndChar

StartChar: uni0085
Encoding: 133 133 103
Width: 600
Flags: W
LayerCount: 2
Fore
SplineSet
94.5 85 m 0,0,1
 94.5 103 94.5 103 110 118 c 128,-1,2
 125.5 133 125.5 133 153.5 144.5 c 128,-1,3
 181.5 156 181.5 156 219 162.5 c 128,-1,4
 256.5 169 256.5 169 299.5 169 c 0,5,6
 343.5 169 343.5 169 381 162.5 c 128,-1,7
 418.5 156 418.5 156 446 144.5 c 128,-1,8
 473.5 133 473.5 133 489.5 118 c 128,-1,9
 505.5 103 505.5 103 505.5 85 c 0,10,11
 505.5 68 505.5 68 489.5 53 c 128,-1,12
 473.5 38 473.5 38 446 27 c 128,-1,13
 418.5 16 418.5 16 381 9.5 c 128,-1,14
 343.5 3 343.5 3 299.5 3 c 0,15,16
 256.5 3 256.5 3 219 9.5 c 128,-1,17
 181.5 16 181.5 16 153.5 27 c 128,-1,18
 125.5 38 125.5 38 110 53 c 128,-1,19
 94.5 68 94.5 68 94.5 85 c 0,0,1
94.5 272 m 0,20,21
 94.5 290 94.5 290 110 305 c 128,-1,22
 125.5 320 125.5 320 153.5 331.5 c 128,-1,23
 181.5 343 181.5 343 219 349 c 128,-1,24
 256.5 355 256.5 355 299.5 355 c 0,25,26
 343.5 355 343.5 355 381 349 c 128,-1,27
 418.5 343 418.5 343 446 331.5 c 128,-1,28
 473.5 320 473.5 320 489.5 305 c 128,-1,29
 505.5 290 505.5 290 505.5 272 c 0,30,31
 505.5 255 505.5 255 489.5 240 c 128,-1,32
 473.5 225 473.5 225 446 214 c 128,-1,33
 418.5 203 418.5 203 381 196 c 128,-1,34
 343.5 189 343.5 189 299.5 189 c 0,35,36
 256.5 189 256.5 189 219 196 c 128,-1,37
 181.5 203 181.5 203 153.5 214 c 128,-1,38
 125.5 225 125.5 225 110 240 c 128,-1,39
 94.5 255 94.5 255 94.5 272 c 0,20,21
174.5 272 m 256,40,41
 174.5 261 174.5 261 184 251.5 c 128,-1,42
 193.5 242 193.5 242 210.5 235 c 128,-1,43
 227.5 228 227.5 228 250.5 224 c 128,-1,44
 273.5 220 273.5 220 299.5 220 c 0,45,46
 326.5 220 326.5 220 349 224 c 128,-1,47
 371.5 228 371.5 228 388.5 235 c 128,-1,48
 405.5 242 405.5 242 415 251.5 c 128,-1,49
 424.5 261 424.5 261 424.5 272 c 256,50,51
 424.5 283 424.5 283 415 292.5 c 128,-1,52
 405.5 302 405.5 302 388.5 309 c 128,-1,53
 371.5 316 371.5 316 349 320 c 128,-1,54
 326.5 324 326.5 324 299.5 324 c 0,55,56
 273.5 324 273.5 324 250.5 320 c 128,-1,57
 227.5 316 227.5 316 210.5 309 c 128,-1,58
 193.5 302 193.5 302 184 292.5 c 128,-1,59
 174.5 283 174.5 283 174.5 272 c 256,40,41
94.5 461 m 256,60,61
 94.5 478 94.5 478 110 493.5 c 128,-1,62
 125.5 509 125.5 509 153.5 520 c 128,-1,63
 181.5 531 181.5 531 219 537.5 c 128,-1,64
 256.5 544 256.5 544 299.5 544 c 0,65,66
 343.5 544 343.5 544 381 537.5 c 128,-1,67
 418.5 531 418.5 531 446 520 c 128,-1,68
 473.5 509 473.5 509 489.5 493.5 c 128,-1,69
 505.5 478 505.5 478 505.5 461 c 256,70,71
 505.5 444 505.5 444 489.5 429 c 128,-1,72
 473.5 414 473.5 414 446 402.5 c 128,-1,73
 418.5 391 418.5 391 381 384.5 c 128,-1,74
 343.5 378 343.5 378 299.5 378 c 0,75,76
 256.5 378 256.5 378 219 384.5 c 128,-1,77
 181.5 391 181.5 391 153.5 402.5 c 128,-1,78
 125.5 414 125.5 414 110 429 c 128,-1,79
 94.5 444 94.5 444 94.5 461 c 256,60,61
94.5 648 m 256,80,81
 94.5 665 94.5 665 110 680.5 c 128,-1,82
 125.5 696 125.5 696 153.5 707 c 128,-1,83
 181.5 718 181.5 718 219 724.5 c 128,-1,84
 256.5 731 256.5 731 299.5 731 c 0,85,86
 343.5 731 343.5 731 381 724.5 c 128,-1,87
 418.5 718 418.5 718 446 707 c 128,-1,88
 473.5 696 473.5 696 489.5 680.5 c 128,-1,89
 505.5 665 505.5 665 505.5 648 c 256,90,91
 505.5 631 505.5 631 489.5 616 c 128,-1,92
 473.5 601 473.5 601 446 589.5 c 128,-1,93
 418.5 578 418.5 578 381 571.5 c 128,-1,94
 343.5 565 343.5 565 299.5 565 c 0,95,96
 256.5 565 256.5 565 219 571.5 c 128,-1,97
 181.5 578 181.5 578 153.5 589.5 c 128,-1,98
 125.5 601 125.5 601 110 616 c 128,-1,99
 94.5 631 94.5 631 94.5 648 c 256,80,81
174.5 648 m 0,100,101
 174.5 637 174.5 637 184 627.5 c 128,-1,102
 193.5 618 193.5 618 210.5 611 c 128,-1,103
 227.5 604 227.5 604 250.5 600 c 128,-1,104
 273.5 596 273.5 596 299.5 596 c 0,105,106
 326.5 596 326.5 596 349 600 c 128,-1,107
 371.5 604 371.5 604 388.5 611 c 128,-1,108
 405.5 618 405.5 618 415 627.5 c 128,-1,109
 424.5 637 424.5 637 424.5 648 c 0,110,111
 424.5 658 424.5 658 415 668 c 128,-1,112
 405.5 678 405.5 678 388.5 685 c 128,-1,113
 371.5 692 371.5 692 349 696 c 128,-1,114
 326.5 700 326.5 700 299.5 700 c 0,115,116
 273.5 700 273.5 700 250.5 696 c 128,-1,117
 227.5 692 227.5 692 210.5 685 c 128,-1,118
 193.5 678 193.5 678 184 668 c 128,-1,119
 174.5 658 174.5 658 174.5 648 c 0,100,101
EndSplineSet
EndChar

StartChar: uni0086
Encoding: 134 134 104
Width: 600
Flags: W
LayerCount: 2
Fore
SplineSet
94.5 85 m 0,0,1
 94.5 103 94.5 103 110 118 c 128,-1,2
 125.5 133 125.5 133 153.5 144.5 c 128,-1,3
 181.5 156 181.5 156 219 162.5 c 128,-1,4
 256.5 169 256.5 169 299.5 169 c 0,5,6
 343.5 169 343.5 169 381 162.5 c 128,-1,7
 418.5 156 418.5 156 446 144.5 c 128,-1,8
 473.5 133 473.5 133 489.5 118 c 128,-1,9
 505.5 103 505.5 103 505.5 85 c 0,10,11
 505.5 68 505.5 68 489.5 53 c 128,-1,12
 473.5 38 473.5 38 446 27 c 128,-1,13
 418.5 16 418.5 16 381 9.5 c 128,-1,14
 343.5 3 343.5 3 299.5 3 c 0,15,16
 256.5 3 256.5 3 219 9.5 c 128,-1,17
 181.5 16 181.5 16 153.5 27 c 128,-1,18
 125.5 38 125.5 38 110 53 c 128,-1,19
 94.5 68 94.5 68 94.5 85 c 0,0,1
174.5 85 m 256,20,21
 174.5 74 174.5 74 184 64.5 c 128,-1,22
 193.5 55 193.5 55 210.5 48.5 c 128,-1,23
 227.5 42 227.5 42 250.5 38 c 128,-1,24
 273.5 34 273.5 34 299.5 34 c 0,25,26
 326.5 34 326.5 34 349 38 c 128,-1,27
 371.5 42 371.5 42 388.5 48.5 c 128,-1,28
 405.5 55 405.5 55 415 64.5 c 128,-1,29
 424.5 74 424.5 74 424.5 85 c 256,30,31
 424.5 96 424.5 96 415 105.5 c 128,-1,32
 405.5 115 405.5 115 388.5 122 c 128,-1,33
 371.5 129 371.5 129 349 133 c 128,-1,34
 326.5 137 326.5 137 299.5 137 c 0,35,36
 273.5 137 273.5 137 250.5 133 c 128,-1,37
 227.5 129 227.5 129 210.5 122 c 128,-1,38
 193.5 115 193.5 115 184 105.5 c 128,-1,39
 174.5 96 174.5 96 174.5 85 c 256,20,21
94.5 272 m 0,40,41
 94.5 290 94.5 290 110 305 c 128,-1,42
 125.5 320 125.5 320 153.5 331.5 c 128,-1,43
 181.5 343 181.5 343 219 349 c 128,-1,44
 256.5 355 256.5 355 299.5 355 c 0,45,46
 343.5 355 343.5 355 381 349 c 128,-1,47
 418.5 343 418.5 343 446 331.5 c 128,-1,48
 473.5 320 473.5 320 489.5 305 c 128,-1,49
 505.5 290 505.5 290 505.5 272 c 0,50,51
 505.5 255 505.5 255 489.5 240 c 128,-1,52
 473.5 225 473.5 225 446 214 c 128,-1,53
 418.5 203 418.5 203 381 196 c 128,-1,54
 343.5 189 343.5 189 299.5 189 c 0,55,56
 256.5 189 256.5 189 219 196 c 128,-1,57
 181.5 203 181.5 203 153.5 214 c 128,-1,58
 125.5 225 125.5 225 110 240 c 128,-1,59
 94.5 255 94.5 255 94.5 272 c 0,40,41
94.5 461 m 256,60,61
 94.5 478 94.5 478 110 493.5 c 128,-1,62
 125.5 509 125.5 509 153.5 520 c 128,-1,63
 181.5 531 181.5 531 219 537.5 c 128,-1,64
 256.5 544 256.5 544 299.5 544 c 0,65,66
 343.5 544 343.5 544 381 537.5 c 128,-1,67
 418.5 531 418.5 531 446 520 c 128,-1,68
 473.5 509 473.5 509 489.5 493.5 c 128,-1,69
 505.5 478 505.5 478 505.5 461 c 256,70,71
 505.5 444 505.5 444 489.5 429 c 128,-1,72
 473.5 414 473.5 414 446 402.5 c 128,-1,73
 418.5 391 418.5 391 381 384.5 c 128,-1,74
 343.5 378 343.5 378 299.5 378 c 0,75,76
 256.5 378 256.5 378 219 384.5 c 128,-1,77
 181.5 391 181.5 391 153.5 402.5 c 128,-1,78
 125.5 414 125.5 414 110 429 c 128,-1,79
 94.5 444 94.5 444 94.5 461 c 256,60,61
94.5 648 m 256,80,81
 94.5 665 94.5 665 110 680.5 c 128,-1,82
 125.5 696 125.5 696 153.5 707 c 128,-1,83
 181.5 718 181.5 718 219 724.5 c 128,-1,84
 256.5 731 256.5 731 299.5 731 c 0,85,86
 343.5 731 343.5 731 381 724.5 c 128,-1,87
 418.5 718 418.5 718 446 707 c 128,-1,88
 473.5 696 473.5 696 489.5 680.5 c 128,-1,89
 505.5 665 505.5 665 505.5 648 c 256,90,91
 505.5 631 505.5 631 489.5 616 c 128,-1,92
 473.5 601 473.5 601 446 589.5 c 128,-1,93
 418.5 578 418.5 578 381 571.5 c 128,-1,94
 343.5 565 343.5 565 299.5 565 c 0,95,96
 256.5 565 256.5 565 219 571.5 c 128,-1,97
 181.5 578 181.5 578 153.5 589.5 c 128,-1,98
 125.5 601 125.5 601 110 616 c 128,-1,99
 94.5 631 94.5 631 94.5 648 c 256,80,81
174.5 648 m 0,100,101
 174.5 637 174.5 637 184 627.5 c 128,-1,102
 193.5 618 193.5 618 210.5 611 c 128,-1,103
 227.5 604 227.5 604 250.5 600 c 128,-1,104
 273.5 596 273.5 596 299.5 596 c 0,105,106
 326.5 596 326.5 596 349 600 c 128,-1,107
 371.5 604 371.5 604 388.5 611 c 128,-1,108
 405.5 618 405.5 618 415 627.5 c 128,-1,109
 424.5 637 424.5 637 424.5 648 c 0,110,111
 424.5 658 424.5 658 415 668 c 128,-1,112
 405.5 678 405.5 678 388.5 685 c 128,-1,113
 371.5 692 371.5 692 349 696 c 128,-1,114
 326.5 700 326.5 700 299.5 700 c 0,115,116
 273.5 700 273.5 700 250.5 696 c 128,-1,117
 227.5 692 227.5 692 210.5 685 c 128,-1,118
 193.5 678 193.5 678 184 668 c 128,-1,119
 174.5 658 174.5 658 174.5 648 c 0,100,101
EndSplineSet
EndChar

StartChar: uni0087
Encoding: 135 135 105
Width: 600
Flags: W
LayerCount: 2
Fore
SplineSet
94.5 85 m 0,0,1
 94.5 103 94.5 103 110 118 c 128,-1,2
 125.5 133 125.5 133 153.5 144.5 c 128,-1,3
 181.5 156 181.5 156 219 162.5 c 128,-1,4
 256.5 169 256.5 169 299.5 169 c 0,5,6
 343.5 169 343.5 169 381 162.5 c 128,-1,7
 418.5 156 418.5 156 446 144.5 c 128,-1,8
 473.5 133 473.5 133 489.5 118 c 128,-1,9
 505.5 103 505.5 103 505.5 85 c 0,10,11
 505.5 68 505.5 68 489.5 53 c 128,-1,12
 473.5 38 473.5 38 446 27 c 128,-1,13
 418.5 16 418.5 16 381 9.5 c 128,-1,14
 343.5 3 343.5 3 299.5 3 c 0,15,16
 256.5 3 256.5 3 219 9.5 c 128,-1,17
 181.5 16 181.5 16 153.5 27 c 128,-1,18
 125.5 38 125.5 38 110 53 c 128,-1,19
 94.5 68 94.5 68 94.5 85 c 0,0,1
94.5 272 m 0,20,21
 94.5 290 94.5 290 110 305 c 128,-1,22
 125.5 320 125.5 320 153.5 331.5 c 128,-1,23
 181.5 343 181.5 343 219 349 c 128,-1,24
 256.5 355 256.5 355 299.5 355 c 0,25,26
 343.5 355 343.5 355 381 349 c 128,-1,27
 418.5 343 418.5 343 446 331.5 c 128,-1,28
 473.5 320 473.5 320 489.5 305 c 128,-1,29
 505.5 290 505.5 290 505.5 272 c 0,30,31
 505.5 255 505.5 255 489.5 240 c 128,-1,32
 473.5 225 473.5 225 446 214 c 128,-1,33
 418.5 203 418.5 203 381 196 c 128,-1,34
 343.5 189 343.5 189 299.5 189 c 0,35,36
 256.5 189 256.5 189 219 196 c 128,-1,37
 181.5 203 181.5 203 153.5 214 c 128,-1,38
 125.5 225 125.5 225 110 240 c 128,-1,39
 94.5 255 94.5 255 94.5 272 c 0,20,21
94.5 461 m 256,40,41
 94.5 478 94.5 478 110 493.5 c 128,-1,42
 125.5 509 125.5 509 153.5 520 c 128,-1,43
 181.5 531 181.5 531 219 537.5 c 128,-1,44
 256.5 544 256.5 544 299.5 544 c 0,45,46
 343.5 544 343.5 544 381 537.5 c 128,-1,47
 418.5 531 418.5 531 446 520 c 128,-1,48
 473.5 509 473.5 509 489.5 493.5 c 128,-1,49
 505.5 478 505.5 478 505.5 461 c 256,50,51
 505.5 444 505.5 444 489.5 429 c 128,-1,52
 473.5 414 473.5 414 446 402.5 c 128,-1,53
 418.5 391 418.5 391 381 384.5 c 128,-1,54
 343.5 378 343.5 378 299.5 378 c 0,55,56
 256.5 378 256.5 378 219 384.5 c 128,-1,57
 181.5 391 181.5 391 153.5 402.5 c 128,-1,58
 125.5 414 125.5 414 110 429 c 128,-1,59
 94.5 444 94.5 444 94.5 461 c 256,40,41
94.5 648 m 256,60,61
 94.5 665 94.5 665 110 680.5 c 128,-1,62
 125.5 696 125.5 696 153.5 707 c 128,-1,63
 181.5 718 181.5 718 219 724.5 c 128,-1,64
 256.5 731 256.5 731 299.5 731 c 0,65,66
 343.5 731 343.5 731 381 724.5 c 128,-1,67
 418.5 718 418.5 718 446 707 c 128,-1,68
 473.5 696 473.5 696 489.5 680.5 c 128,-1,69
 505.5 665 505.5 665 505.5 648 c 256,70,71
 505.5 631 505.5 631 489.5 616 c 128,-1,72
 473.5 601 473.5 601 446 589.5 c 128,-1,73
 418.5 578 418.5 578 381 571.5 c 128,-1,74
 343.5 565 343.5 565 299.5 565 c 0,75,76
 256.5 565 256.5 565 219 571.5 c 128,-1,77
 181.5 578 181.5 578 153.5 589.5 c 128,-1,78
 125.5 601 125.5 601 110 616 c 128,-1,79
 94.5 631 94.5 631 94.5 648 c 256,60,61
174.5 648 m 0,80,81
 174.5 637 174.5 637 184 627.5 c 128,-1,82
 193.5 618 193.5 618 210.5 611 c 128,-1,83
 227.5 604 227.5 604 250.5 600 c 128,-1,84
 273.5 596 273.5 596 299.5 596 c 0,85,86
 326.5 596 326.5 596 349 600 c 128,-1,87
 371.5 604 371.5 604 388.5 611 c 128,-1,88
 405.5 618 405.5 618 415 627.5 c 128,-1,89
 424.5 637 424.5 637 424.5 648 c 0,90,91
 424.5 658 424.5 658 415 668 c 128,-1,92
 405.5 678 405.5 678 388.5 685 c 128,-1,93
 371.5 692 371.5 692 349 696 c 128,-1,94
 326.5 700 326.5 700 299.5 700 c 0,95,96
 273.5 700 273.5 700 250.5 696 c 128,-1,97
 227.5 692 227.5 692 210.5 685 c 128,-1,98
 193.5 678 193.5 678 184 668 c 128,-1,99
 174.5 658 174.5 658 174.5 648 c 0,80,81
EndSplineSet
EndChar

StartChar: uni0088
Encoding: 136 136 106
Width: 600
Flags: W
LayerCount: 2
Fore
SplineSet
94.5 85 m 0,0,1
 94.5 103 94.5 103 110 118 c 128,-1,2
 125.5 133 125.5 133 153.5 144.5 c 128,-1,3
 181.5 156 181.5 156 219 162.5 c 128,-1,4
 256.5 169 256.5 169 299.5 169 c 0,5,6
 343.5 169 343.5 169 381 162.5 c 128,-1,7
 418.5 156 418.5 156 446 144.5 c 128,-1,8
 473.5 133 473.5 133 489.5 118 c 128,-1,9
 505.5 103 505.5 103 505.5 85 c 0,10,11
 505.5 68 505.5 68 489.5 53 c 128,-1,12
 473.5 38 473.5 38 446 27 c 128,-1,13
 418.5 16 418.5 16 381 9.5 c 128,-1,14
 343.5 3 343.5 3 299.5 3 c 0,15,16
 256.5 3 256.5 3 219 9.5 c 128,-1,17
 181.5 16 181.5 16 153.5 27 c 128,-1,18
 125.5 38 125.5 38 110 53 c 128,-1,19
 94.5 68 94.5 68 94.5 85 c 0,0,1
174.5 85 m 256,20,21
 174.5 74 174.5 74 184 64.5 c 128,-1,22
 193.5 55 193.5 55 210.5 48.5 c 128,-1,23
 227.5 42 227.5 42 250.5 38 c 128,-1,24
 273.5 34 273.5 34 299.5 34 c 0,25,26
 326.5 34 326.5 34 349 38 c 128,-1,27
 371.5 42 371.5 42 388.5 48.5 c 128,-1,28
 405.5 55 405.5 55 415 64.5 c 128,-1,29
 424.5 74 424.5 74 424.5 85 c 256,30,31
 424.5 96 424.5 96 415 105.5 c 128,-1,32
 405.5 115 405.5 115 388.5 122 c 128,-1,33
 371.5 129 371.5 129 349 133 c 128,-1,34
 326.5 137 326.5 137 299.5 137 c 0,35,36
 273.5 137 273.5 137 250.5 133 c 128,-1,37
 227.5 129 227.5 129 210.5 122 c 128,-1,38
 193.5 115 193.5 115 184 105.5 c 128,-1,39
 174.5 96 174.5 96 174.5 85 c 256,20,21
94.5 272 m 0,40,41
 94.5 290 94.5 290 110 305 c 128,-1,42
 125.5 320 125.5 320 153.5 331.5 c 128,-1,43
 181.5 343 181.5 343 219 349 c 128,-1,44
 256.5 355 256.5 355 299.5 355 c 0,45,46
 343.5 355 343.5 355 381 349 c 128,-1,47
 418.5 343 418.5 343 446 331.5 c 128,-1,48
 473.5 320 473.5 320 489.5 305 c 128,-1,49
 505.5 290 505.5 290 505.5 272 c 0,50,51
 505.5 255 505.5 255 489.5 240 c 128,-1,52
 473.5 225 473.5 225 446 214 c 128,-1,53
 418.5 203 418.5 203 381 196 c 128,-1,54
 343.5 189 343.5 189 299.5 189 c 0,55,56
 256.5 189 256.5 189 219 196 c 128,-1,57
 181.5 203 181.5 203 153.5 214 c 128,-1,58
 125.5 225 125.5 225 110 240 c 128,-1,59
 94.5 255 94.5 255 94.5 272 c 0,40,41
174.5 272 m 256,60,61
 174.5 261 174.5 261 184 251.5 c 128,-1,62
 193.5 242 193.5 242 210.5 235 c 128,-1,63
 227.5 228 227.5 228 250.5 224 c 128,-1,64
 273.5 220 273.5 220 299.5 220 c 0,65,66
 326.5 220 326.5 220 349 224 c 128,-1,67
 371.5 228 371.5 228 388.5 235 c 128,-1,68
 405.5 242 405.5 242 415 251.5 c 128,-1,69
 424.5 261 424.5 261 424.5 272 c 256,70,71
 424.5 283 424.5 283 415 292.5 c 128,-1,72
 405.5 302 405.5 302 388.5 309 c 128,-1,73
 371.5 316 371.5 316 349 320 c 128,-1,74
 326.5 324 326.5 324 299.5 324 c 0,75,76
 273.5 324 273.5 324 250.5 320 c 128,-1,77
 227.5 316 227.5 316 210.5 309 c 128,-1,78
 193.5 302 193.5 302 184 292.5 c 128,-1,79
 174.5 283 174.5 283 174.5 272 c 256,60,61
94.5 461 m 256,80,81
 94.5 478 94.5 478 110 493.5 c 128,-1,82
 125.5 509 125.5 509 153.5 520 c 128,-1,83
 181.5 531 181.5 531 219 537.5 c 128,-1,84
 256.5 544 256.5 544 299.5 544 c 0,85,86
 343.5 544 343.5 544 381 537.5 c 128,-1,87
 418.5 531 418.5 531 446 520 c 128,-1,88
 473.5 509 473.5 509 489.5 493.5 c 128,-1,89
 505.5 478 505.5 478 505.5 461 c 256,90,91
 505.5 444 505.5 444 489.5 429 c 128,-1,92
 473.5 414 473.5 414 446 402.5 c 128,-1,93
 418.5 391 418.5 391 381 384.5 c 128,-1,94
 343.5 378 343.5 378 299.5 378 c 0,95,96
 256.5 378 256.5 378 219 384.5 c 128,-1,97
 181.5 391 181.5 391 153.5 402.5 c 128,-1,98
 125.5 414 125.5 414 110 429 c 128,-1,99
 94.5 444 94.5 444 94.5 461 c 256,80,81
174.5 461 m 256,100,101
 174.5 450 174.5 450 184 440.5 c 128,-1,102
 193.5 431 193.5 431 210.5 424 c 128,-1,103
 227.5 417 227.5 417 250.5 413 c 128,-1,104
 273.5 409 273.5 409 299.5 409 c 0,105,106
 326.5 409 326.5 409 349 413 c 128,-1,107
 371.5 417 371.5 417 388.5 424 c 128,-1,108
 405.5 431 405.5 431 415 440.5 c 128,-1,109
 424.5 450 424.5 450 424.5 461 c 256,110,111
 424.5 472 424.5 472 415 481.5 c 128,-1,112
 405.5 491 405.5 491 388.5 498 c 128,-1,113
 371.5 505 371.5 505 349 509 c 128,-1,114
 326.5 513 326.5 513 299.5 513 c 0,115,116
 273.5 513 273.5 513 250.5 509 c 128,-1,117
 227.5 505 227.5 505 210.5 498 c 128,-1,118
 193.5 491 193.5 491 184 481.5 c 128,-1,119
 174.5 472 174.5 472 174.5 461 c 256,100,101
94.5 648 m 256,120,121
 94.5 665 94.5 665 110 680.5 c 128,-1,122
 125.5 696 125.5 696 153.5 707 c 128,-1,123
 181.5 718 181.5 718 219 724.5 c 128,-1,124
 256.5 731 256.5 731 299.5 731 c 0,125,126
 343.5 731 343.5 731 381 724.5 c 128,-1,127
 418.5 718 418.5 718 446 707 c 128,-1,128
 473.5 696 473.5 696 489.5 680.5 c 128,-1,129
 505.5 665 505.5 665 505.5 648 c 256,130,131
 505.5 631 505.5 631 489.5 616 c 128,-1,132
 473.5 601 473.5 601 446 589.5 c 128,-1,133
 418.5 578 418.5 578 381 571.5 c 128,-1,134
 343.5 565 343.5 565 299.5 565 c 0,135,136
 256.5 565 256.5 565 219 571.5 c 128,-1,137
 181.5 578 181.5 578 153.5 589.5 c 128,-1,138
 125.5 601 125.5 601 110 616 c 128,-1,139
 94.5 631 94.5 631 94.5 648 c 256,120,121
EndSplineSet
EndChar

StartChar: uni0089
Encoding: 137 137 107
Width: 600
Flags: W
LayerCount: 2
Fore
SplineSet
94.5 85 m 0,0,1
 94.5 103 94.5 103 110 118 c 128,-1,2
 125.5 133 125.5 133 153.5 144.5 c 128,-1,3
 181.5 156 181.5 156 219 162.5 c 128,-1,4
 256.5 169 256.5 169 299.5 169 c 0,5,6
 343.5 169 343.5 169 381 162.5 c 128,-1,7
 418.5 156 418.5 156 446 144.5 c 128,-1,8
 473.5 133 473.5 133 489.5 118 c 128,-1,9
 505.5 103 505.5 103 505.5 85 c 0,10,11
 505.5 68 505.5 68 489.5 53 c 128,-1,12
 473.5 38 473.5 38 446 27 c 128,-1,13
 418.5 16 418.5 16 381 9.5 c 128,-1,14
 343.5 3 343.5 3 299.5 3 c 0,15,16
 256.5 3 256.5 3 219 9.5 c 128,-1,17
 181.5 16 181.5 16 153.5 27 c 128,-1,18
 125.5 38 125.5 38 110 53 c 128,-1,19
 94.5 68 94.5 68 94.5 85 c 0,0,1
94.5 272 m 0,20,21
 94.5 290 94.5 290 110 305 c 128,-1,22
 125.5 320 125.5 320 153.5 331.5 c 128,-1,23
 181.5 343 181.5 343 219 349 c 128,-1,24
 256.5 355 256.5 355 299.5 355 c 0,25,26
 343.5 355 343.5 355 381 349 c 128,-1,27
 418.5 343 418.5 343 446 331.5 c 128,-1,28
 473.5 320 473.5 320 489.5 305 c 128,-1,29
 505.5 290 505.5 290 505.5 272 c 0,30,31
 505.5 255 505.5 255 489.5 240 c 128,-1,32
 473.5 225 473.5 225 446 214 c 128,-1,33
 418.5 203 418.5 203 381 196 c 128,-1,34
 343.5 189 343.5 189 299.5 189 c 0,35,36
 256.5 189 256.5 189 219 196 c 128,-1,37
 181.5 203 181.5 203 153.5 214 c 128,-1,38
 125.5 225 125.5 225 110 240 c 128,-1,39
 94.5 255 94.5 255 94.5 272 c 0,20,21
174.5 272 m 256,40,41
 174.5 261 174.5 261 184 251.5 c 128,-1,42
 193.5 242 193.5 242 210.5 235 c 128,-1,43
 227.5 228 227.5 228 250.5 224 c 128,-1,44
 273.5 220 273.5 220 299.5 220 c 0,45,46
 326.5 220 326.5 220 349 224 c 128,-1,47
 371.5 228 371.5 228 388.5 235 c 128,-1,48
 405.5 242 405.5 242 415 251.5 c 128,-1,49
 424.5 261 424.5 261 424.5 272 c 256,50,51
 424.5 283 424.5 283 415 292.5 c 128,-1,52
 405.5 302 405.5 302 388.5 309 c 128,-1,53
 371.5 316 371.5 316 349 320 c 128,-1,54
 326.5 324 326.5 324 299.5 324 c 0,55,56
 273.5 324 273.5 324 250.5 320 c 128,-1,57
 227.5 316 227.5 316 210.5 309 c 128,-1,58
 193.5 302 193.5 302 184 292.5 c 128,-1,59
 174.5 283 174.5 283 174.5 272 c 256,40,41
94.5 461 m 256,60,61
 94.5 478 94.5 478 110 493.5 c 128,-1,62
 125.5 509 125.5 509 153.5 520 c 128,-1,63
 181.5 531 181.5 531 219 537.5 c 128,-1,64
 256.5 544 256.5 544 299.5 544 c 0,65,66
 343.5 544 343.5 544 381 537.5 c 128,-1,67
 418.5 531 418.5 531 446 520 c 128,-1,68
 473.5 509 473.5 509 489.5 493.5 c 128,-1,69
 505.5 478 505.5 478 505.5 461 c 256,70,71
 505.5 444 505.5 444 489.5 429 c 128,-1,72
 473.5 414 473.5 414 446 402.5 c 128,-1,73
 418.5 391 418.5 391 381 384.5 c 128,-1,74
 343.5 378 343.5 378 299.5 378 c 0,75,76
 256.5 378 256.5 378 219 384.5 c 128,-1,77
 181.5 391 181.5 391 153.5 402.5 c 128,-1,78
 125.5 414 125.5 414 110 429 c 128,-1,79
 94.5 444 94.5 444 94.5 461 c 256,60,61
174.5 461 m 256,80,81
 174.5 450 174.5 450 184 440.5 c 128,-1,82
 193.5 431 193.5 431 210.5 424 c 128,-1,83
 227.5 417 227.5 417 250.5 413 c 128,-1,84
 273.5 409 273.5 409 299.5 409 c 0,85,86
 326.5 409 326.5 409 349 413 c 128,-1,87
 371.5 417 371.5 417 388.5 424 c 128,-1,88
 405.5 431 405.5 431 415 440.5 c 128,-1,89
 424.5 450 424.5 450 424.5 461 c 256,90,91
 424.5 472 424.5 472 415 481.5 c 128,-1,92
 405.5 491 405.5 491 388.5 498 c 128,-1,93
 371.5 505 371.5 505 349 509 c 128,-1,94
 326.5 513 326.5 513 299.5 513 c 0,95,96
 273.5 513 273.5 513 250.5 509 c 128,-1,97
 227.5 505 227.5 505 210.5 498 c 128,-1,98
 193.5 491 193.5 491 184 481.5 c 128,-1,99
 174.5 472 174.5 472 174.5 461 c 256,80,81
94.5 648 m 256,100,101
 94.5 665 94.5 665 110 680.5 c 128,-1,102
 125.5 696 125.5 696 153.5 707 c 128,-1,103
 181.5 718 181.5 718 219 724.5 c 128,-1,104
 256.5 731 256.5 731 299.5 731 c 0,105,106
 343.5 731 343.5 731 381 724.5 c 128,-1,107
 418.5 718 418.5 718 446 707 c 128,-1,108
 473.5 696 473.5 696 489.5 680.5 c 128,-1,109
 505.5 665 505.5 665 505.5 648 c 256,110,111
 505.5 631 505.5 631 489.5 616 c 128,-1,112
 473.5 601 473.5 601 446 589.5 c 128,-1,113
 418.5 578 418.5 578 381 571.5 c 128,-1,114
 343.5 565 343.5 565 299.5 565 c 0,115,116
 256.5 565 256.5 565 219 571.5 c 128,-1,117
 181.5 578 181.5 578 153.5 589.5 c 128,-1,118
 125.5 601 125.5 601 110 616 c 128,-1,119
 94.5 631 94.5 631 94.5 648 c 256,100,101
EndSplineSet
EndChar

StartChar: uni008A
Encoding: 138 138 108
Width: 600
Flags: W
LayerCount: 2
Fore
SplineSet
94.5 85 m 0,0,1
 94.5 103 94.5 103 110 118 c 128,-1,2
 125.5 133 125.5 133 153.5 144.5 c 128,-1,3
 181.5 156 181.5 156 219 162.5 c 128,-1,4
 256.5 169 256.5 169 299.5 169 c 0,5,6
 343.5 169 343.5 169 381 162.5 c 128,-1,7
 418.5 156 418.5 156 446 144.5 c 128,-1,8
 473.5 133 473.5 133 489.5 118 c 128,-1,9
 505.5 103 505.5 103 505.5 85 c 0,10,11
 505.5 68 505.5 68 489.5 53 c 128,-1,12
 473.5 38 473.5 38 446 27 c 128,-1,13
 418.5 16 418.5 16 381 9.5 c 128,-1,14
 343.5 3 343.5 3 299.5 3 c 0,15,16
 256.5 3 256.5 3 219 9.5 c 128,-1,17
 181.5 16 181.5 16 153.5 27 c 128,-1,18
 125.5 38 125.5 38 110 53 c 128,-1,19
 94.5 68 94.5 68 94.5 85 c 0,0,1
174.5 85 m 256,20,21
 174.5 74 174.5 74 184 64.5 c 128,-1,22
 193.5 55 193.5 55 210.5 48.5 c 128,-1,23
 227.5 42 227.5 42 250.5 38 c 128,-1,24
 273.5 34 273.5 34 299.5 34 c 0,25,26
 326.5 34 326.5 34 349 38 c 128,-1,27
 371.5 42 371.5 42 388.5 48.5 c 128,-1,28
 405.5 55 405.5 55 415 64.5 c 128,-1,29
 424.5 74 424.5 74 424.5 85 c 256,30,31
 424.5 96 424.5 96 415 105.5 c 128,-1,32
 405.5 115 405.5 115 388.5 122 c 128,-1,33
 371.5 129 371.5 129 349 133 c 128,-1,34
 326.5 137 326.5 137 299.5 137 c 0,35,36
 273.5 137 273.5 137 250.5 133 c 128,-1,37
 227.5 129 227.5 129 210.5 122 c 128,-1,38
 193.5 115 193.5 115 184 105.5 c 128,-1,39
 174.5 96 174.5 96 174.5 85 c 256,20,21
94.5 272 m 0,40,41
 94.5 290 94.5 290 110 305 c 128,-1,42
 125.5 320 125.5 320 153.5 331.5 c 128,-1,43
 181.5 343 181.5 343 219 349 c 128,-1,44
 256.5 355 256.5 355 299.5 355 c 0,45,46
 343.5 355 343.5 355 381 349 c 128,-1,47
 418.5 343 418.5 343 446 331.5 c 128,-1,48
 473.5 320 473.5 320 489.5 305 c 128,-1,49
 505.5 290 505.5 290 505.5 272 c 0,50,51
 505.5 255 505.5 255 489.5 240 c 128,-1,52
 473.5 225 473.5 225 446 214 c 128,-1,53
 418.5 203 418.5 203 381 196 c 128,-1,54
 343.5 189 343.5 189 299.5 189 c 0,55,56
 256.5 189 256.5 189 219 196 c 128,-1,57
 181.5 203 181.5 203 153.5 214 c 128,-1,58
 125.5 225 125.5 225 110 240 c 128,-1,59
 94.5 255 94.5 255 94.5 272 c 0,40,41
94.5 461 m 256,60,61
 94.5 478 94.5 478 110 493.5 c 128,-1,62
 125.5 509 125.5 509 153.5 520 c 128,-1,63
 181.5 531 181.5 531 219 537.5 c 128,-1,64
 256.5 544 256.5 544 299.5 544 c 0,65,66
 343.5 544 343.5 544 381 537.5 c 128,-1,67
 418.5 531 418.5 531 446 520 c 128,-1,68
 473.5 509 473.5 509 489.5 493.5 c 128,-1,69
 505.5 478 505.5 478 505.5 461 c 256,70,71
 505.5 444 505.5 444 489.5 429 c 128,-1,72
 473.5 414 473.5 414 446 402.5 c 128,-1,73
 418.5 391 418.5 391 381 384.5 c 128,-1,74
 343.5 378 343.5 378 299.5 378 c 0,75,76
 256.5 378 256.5 378 219 384.5 c 128,-1,77
 181.5 391 181.5 391 153.5 402.5 c 128,-1,78
 125.5 414 125.5 414 110 429 c 128,-1,79
 94.5 444 94.5 444 94.5 461 c 256,60,61
174.5 461 m 256,80,81
 174.5 450 174.5 450 184 440.5 c 128,-1,82
 193.5 431 193.5 431 210.5 424 c 128,-1,83
 227.5 417 227.5 417 250.5 413 c 128,-1,84
 273.5 409 273.5 409 299.5 409 c 0,85,86
 326.5 409 326.5 409 349 413 c 128,-1,87
 371.5 417 371.5 417 388.5 424 c 128,-1,88
 405.5 431 405.5 431 415 440.5 c 128,-1,89
 424.5 450 424.5 450 424.5 461 c 256,90,91
 424.5 472 424.5 472 415 481.5 c 128,-1,92
 405.5 491 405.5 491 388.5 498 c 128,-1,93
 371.5 505 371.5 505 349 509 c 128,-1,94
 326.5 513 326.5 513 299.5 513 c 0,95,96
 273.5 513 273.5 513 250.5 509 c 128,-1,97
 227.5 505 227.5 505 210.5 498 c 128,-1,98
 193.5 491 193.5 491 184 481.5 c 128,-1,99
 174.5 472 174.5 472 174.5 461 c 256,80,81
94.5 648 m 256,100,101
 94.5 665 94.5 665 110 680.5 c 128,-1,102
 125.5 696 125.5 696 153.5 707 c 128,-1,103
 181.5 718 181.5 718 219 724.5 c 128,-1,104
 256.5 731 256.5 731 299.5 731 c 0,105,106
 343.5 731 343.5 731 381 724.5 c 128,-1,107
 418.5 718 418.5 718 446 707 c 128,-1,108
 473.5 696 473.5 696 489.5 680.5 c 128,-1,109
 505.5 665 505.5 665 505.5 648 c 256,110,111
 505.5 631 505.5 631 489.5 616 c 128,-1,112
 473.5 601 473.5 601 446 589.5 c 128,-1,113
 418.5 578 418.5 578 381 571.5 c 128,-1,114
 343.5 565 343.5 565 299.5 565 c 0,115,116
 256.5 565 256.5 565 219 571.5 c 128,-1,117
 181.5 578 181.5 578 153.5 589.5 c 128,-1,118
 125.5 601 125.5 601 110 616 c 128,-1,119
 94.5 631 94.5 631 94.5 648 c 256,100,101
EndSplineSet
EndChar

StartChar: uni008B
Encoding: 139 139 109
Width: 600
Flags: W
LayerCount: 2
Fore
SplineSet
94.5 85 m 0,0,1
 94.5 103 94.5 103 110 118 c 128,-1,2
 125.5 133 125.5 133 153.5 144.5 c 128,-1,3
 181.5 156 181.5 156 219 162.5 c 128,-1,4
 256.5 169 256.5 169 299.5 169 c 0,5,6
 343.5 169 343.5 169 381 162.5 c 128,-1,7
 418.5 156 418.5 156 446 144.5 c 128,-1,8
 473.5 133 473.5 133 489.5 118 c 128,-1,9
 505.5 103 505.5 103 505.5 85 c 0,10,11
 505.5 68 505.5 68 489.5 53 c 128,-1,12
 473.5 38 473.5 38 446 27 c 128,-1,13
 418.5 16 418.5 16 381 9.5 c 128,-1,14
 343.5 3 343.5 3 299.5 3 c 0,15,16
 256.5 3 256.5 3 219 9.5 c 128,-1,17
 181.5 16 181.5 16 153.5 27 c 128,-1,18
 125.5 38 125.5 38 110 53 c 128,-1,19
 94.5 68 94.5 68 94.5 85 c 0,0,1
94.5 272 m 0,20,21
 94.5 290 94.5 290 110 305 c 128,-1,22
 125.5 320 125.5 320 153.5 331.5 c 128,-1,23
 181.5 343 181.5 343 219 349 c 128,-1,24
 256.5 355 256.5 355 299.5 355 c 0,25,26
 343.5 355 343.5 355 381 349 c 128,-1,27
 418.5 343 418.5 343 446 331.5 c 128,-1,28
 473.5 320 473.5 320 489.5 305 c 128,-1,29
 505.5 290 505.5 290 505.5 272 c 0,30,31
 505.5 255 505.5 255 489.5 240 c 128,-1,32
 473.5 225 473.5 225 446 214 c 128,-1,33
 418.5 203 418.5 203 381 196 c 128,-1,34
 343.5 189 343.5 189 299.5 189 c 0,35,36
 256.5 189 256.5 189 219 196 c 128,-1,37
 181.5 203 181.5 203 153.5 214 c 128,-1,38
 125.5 225 125.5 225 110 240 c 128,-1,39
 94.5 255 94.5 255 94.5 272 c 0,20,21
94.5 461 m 256,40,41
 94.5 478 94.5 478 110 493.5 c 128,-1,42
 125.5 509 125.5 509 153.5 520 c 128,-1,43
 181.5 531 181.5 531 219 537.5 c 128,-1,44
 256.5 544 256.5 544 299.5 544 c 0,45,46
 343.5 544 343.5 544 381 537.5 c 128,-1,47
 418.5 531 418.5 531 446 520 c 128,-1,48
 473.5 509 473.5 509 489.5 493.5 c 128,-1,49
 505.5 478 505.5 478 505.5 461 c 256,50,51
 505.5 444 505.5 444 489.5 429 c 128,-1,52
 473.5 414 473.5 414 446 402.5 c 128,-1,53
 418.5 391 418.5 391 381 384.5 c 128,-1,54
 343.5 378 343.5 378 299.5 378 c 0,55,56
 256.5 378 256.5 378 219 384.5 c 128,-1,57
 181.5 391 181.5 391 153.5 402.5 c 128,-1,58
 125.5 414 125.5 414 110 429 c 128,-1,59
 94.5 444 94.5 444 94.5 461 c 256,40,41
174.5 461 m 256,60,61
 174.5 450 174.5 450 184 440.5 c 128,-1,62
 193.5 431 193.5 431 210.5 424 c 128,-1,63
 227.5 417 227.5 417 250.5 413 c 128,-1,64
 273.5 409 273.5 409 299.5 409 c 0,65,66
 326.5 409 326.5 409 349 413 c 128,-1,67
 371.5 417 371.5 417 388.5 424 c 128,-1,68
 405.5 431 405.5 431 415 440.5 c 128,-1,69
 424.5 450 424.5 450 424.5 461 c 256,70,71
 424.5 472 424.5 472 415 481.5 c 128,-1,72
 405.5 491 405.5 491 388.5 498 c 128,-1,73
 371.5 505 371.5 505 349 509 c 128,-1,74
 326.5 513 326.5 513 299.5 513 c 0,75,76
 273.5 513 273.5 513 250.5 509 c 128,-1,77
 227.5 505 227.5 505 210.5 498 c 128,-1,78
 193.5 491 193.5 491 184 481.5 c 128,-1,79
 174.5 472 174.5 472 174.5 461 c 256,60,61
94.5 648 m 256,80,81
 94.5 665 94.5 665 110 680.5 c 128,-1,82
 125.5 696 125.5 696 153.5 707 c 128,-1,83
 181.5 718 181.5 718 219 724.5 c 128,-1,84
 256.5 731 256.5 731 299.5 731 c 0,85,86
 343.5 731 343.5 731 381 724.5 c 128,-1,87
 418.5 718 418.5 718 446 707 c 128,-1,88
 473.5 696 473.5 696 489.5 680.5 c 128,-1,89
 505.5 665 505.5 665 505.5 648 c 256,90,91
 505.5 631 505.5 631 489.5 616 c 128,-1,92
 473.5 601 473.5 601 446 589.5 c 128,-1,93
 418.5 578 418.5 578 381 571.5 c 128,-1,94
 343.5 565 343.5 565 299.5 565 c 0,95,96
 256.5 565 256.5 565 219 571.5 c 128,-1,97
 181.5 578 181.5 578 153.5 589.5 c 128,-1,98
 125.5 601 125.5 601 110 616 c 128,-1,99
 94.5 631 94.5 631 94.5 648 c 256,80,81
EndSplineSet
EndChar

StartChar: uni008C
Encoding: 140 140 110
Width: 600
Flags: W
LayerCount: 2
Fore
SplineSet
94.5 85 m 0,0,1
 94.5 103 94.5 103 110 118 c 128,-1,2
 125.5 133 125.5 133 153.5 144.5 c 128,-1,3
 181.5 156 181.5 156 219 162.5 c 128,-1,4
 256.5 169 256.5 169 299.5 169 c 0,5,6
 343.5 169 343.5 169 381 162.5 c 128,-1,7
 418.5 156 418.5 156 446 144.5 c 128,-1,8
 473.5 133 473.5 133 489.5 118 c 128,-1,9
 505.5 103 505.5 103 505.5 85 c 0,10,11
 505.5 68 505.5 68 489.5 53 c 128,-1,12
 473.5 38 473.5 38 446 27 c 128,-1,13
 418.5 16 418.5 16 381 9.5 c 128,-1,14
 343.5 3 343.5 3 299.5 3 c 0,15,16
 256.5 3 256.5 3 219 9.5 c 128,-1,17
 181.5 16 181.5 16 153.5 27 c 128,-1,18
 125.5 38 125.5 38 110 53 c 128,-1,19
 94.5 68 94.5 68 94.5 85 c 0,0,1
174.5 85 m 256,20,21
 174.5 74 174.5 74 184 64.5 c 128,-1,22
 193.5 55 193.5 55 210.5 48.5 c 128,-1,23
 227.5 42 227.5 42 250.5 38 c 128,-1,24
 273.5 34 273.5 34 299.5 34 c 0,25,26
 326.5 34 326.5 34 349 38 c 128,-1,27
 371.5 42 371.5 42 388.5 48.5 c 128,-1,28
 405.5 55 405.5 55 415 64.5 c 128,-1,29
 424.5 74 424.5 74 424.5 85 c 256,30,31
 424.5 96 424.5 96 415 105.5 c 128,-1,32
 405.5 115 405.5 115 388.5 122 c 128,-1,33
 371.5 129 371.5 129 349 133 c 128,-1,34
 326.5 137 326.5 137 299.5 137 c 0,35,36
 273.5 137 273.5 137 250.5 133 c 128,-1,37
 227.5 129 227.5 129 210.5 122 c 128,-1,38
 193.5 115 193.5 115 184 105.5 c 128,-1,39
 174.5 96 174.5 96 174.5 85 c 256,20,21
94.5 272 m 0,40,41
 94.5 290 94.5 290 110 305 c 128,-1,42
 125.5 320 125.5 320 153.5 331.5 c 128,-1,43
 181.5 343 181.5 343 219 349 c 128,-1,44
 256.5 355 256.5 355 299.5 355 c 0,45,46
 343.5 355 343.5 355 381 349 c 128,-1,47
 418.5 343 418.5 343 446 331.5 c 128,-1,48
 473.5 320 473.5 320 489.5 305 c 128,-1,49
 505.5 290 505.5 290 505.5 272 c 0,50,51
 505.5 255 505.5 255 489.5 240 c 128,-1,52
 473.5 225 473.5 225 446 214 c 128,-1,53
 418.5 203 418.5 203 381 196 c 128,-1,54
 343.5 189 343.5 189 299.5 189 c 0,55,56
 256.5 189 256.5 189 219 196 c 128,-1,57
 181.5 203 181.5 203 153.5 214 c 128,-1,58
 125.5 225 125.5 225 110 240 c 128,-1,59
 94.5 255 94.5 255 94.5 272 c 0,40,41
174.5 272 m 256,60,61
 174.5 261 174.5 261 184 251.5 c 128,-1,62
 193.5 242 193.5 242 210.5 235 c 128,-1,63
 227.5 228 227.5 228 250.5 224 c 128,-1,64
 273.5 220 273.5 220 299.5 220 c 0,65,66
 326.5 220 326.5 220 349 224 c 128,-1,67
 371.5 228 371.5 228 388.5 235 c 128,-1,68
 405.5 242 405.5 242 415 251.5 c 128,-1,69
 424.5 261 424.5 261 424.5 272 c 256,70,71
 424.5 283 424.5 283 415 292.5 c 128,-1,72
 405.5 302 405.5 302 388.5 309 c 128,-1,73
 371.5 316 371.5 316 349 320 c 128,-1,74
 326.5 324 326.5 324 299.5 324 c 0,75,76
 273.5 324 273.5 324 250.5 320 c 128,-1,77
 227.5 316 227.5 316 210.5 309 c 128,-1,78
 193.5 302 193.5 302 184 292.5 c 128,-1,79
 174.5 283 174.5 283 174.5 272 c 256,60,61
94.5 461 m 256,80,81
 94.5 478 94.5 478 110 493.5 c 128,-1,82
 125.5 509 125.5 509 153.5 520 c 128,-1,83
 181.5 531 181.5 531 219 537.5 c 128,-1,84
 256.5 544 256.5 544 299.5 544 c 0,85,86
 343.5 544 343.5 544 381 537.5 c 128,-1,87
 418.5 531 418.5 531 446 520 c 128,-1,88
 473.5 509 473.5 509 489.5 493.5 c 128,-1,89
 505.5 478 505.5 478 505.5 461 c 256,90,91
 505.5 444 505.5 444 489.5 429 c 128,-1,92
 473.5 414 473.5 414 446 402.5 c 128,-1,93
 418.5 391 418.5 391 381 384.5 c 128,-1,94
 343.5 378 343.5 378 299.5 378 c 0,95,96
 256.5 378 256.5 378 219 384.5 c 128,-1,97
 181.5 391 181.5 391 153.5 402.5 c 128,-1,98
 125.5 414 125.5 414 110 429 c 128,-1,99
 94.5 444 94.5 444 94.5 461 c 256,80,81
94.5 648 m 256,100,101
 94.5 665 94.5 665 110 680.5 c 128,-1,102
 125.5 696 125.5 696 153.5 707 c 128,-1,103
 181.5 718 181.5 718 219 724.5 c 128,-1,104
 256.5 731 256.5 731 299.5 731 c 0,105,106
 343.5 731 343.5 731 381 724.5 c 128,-1,107
 418.5 718 418.5 718 446 707 c 128,-1,108
 473.5 696 473.5 696 489.5 680.5 c 128,-1,109
 505.5 665 505.5 665 505.5 648 c 256,110,111
 505.5 631 505.5 631 489.5 616 c 128,-1,112
 473.5 601 473.5 601 446 589.5 c 128,-1,113
 418.5 578 418.5 578 381 571.5 c 128,-1,114
 343.5 565 343.5 565 299.5 565 c 0,115,116
 256.5 565 256.5 565 219 571.5 c 128,-1,117
 181.5 578 181.5 578 153.5 589.5 c 128,-1,118
 125.5 601 125.5 601 110 616 c 128,-1,119
 94.5 631 94.5 631 94.5 648 c 256,100,101
EndSplineSet
EndChar

StartChar: uni008D
Encoding: 141 141 111
Width: 600
Flags: W
LayerCount: 2
Fore
SplineSet
94.5 85 m 0,0,1
 94.5 103 94.5 103 110 118 c 128,-1,2
 125.5 133 125.5 133 153.5 144.5 c 128,-1,3
 181.5 156 181.5 156 219 162.5 c 128,-1,4
 256.5 169 256.5 169 299.5 169 c 0,5,6
 343.5 169 343.5 169 381 162.5 c 128,-1,7
 418.5 156 418.5 156 446 144.5 c 128,-1,8
 473.5 133 473.5 133 489.5 118 c 128,-1,9
 505.5 103 505.5 103 505.5 85 c 0,10,11
 505.5 68 505.5 68 489.5 53 c 128,-1,12
 473.5 38 473.5 38 446 27 c 128,-1,13
 418.5 16 418.5 16 381 9.5 c 128,-1,14
 343.5 3 343.5 3 299.5 3 c 0,15,16
 256.5 3 256.5 3 219 9.5 c 128,-1,17
 181.5 16 181.5 16 153.5 27 c 128,-1,18
 125.5 38 125.5 38 110 53 c 128,-1,19
 94.5 68 94.5 68 94.5 85 c 0,0,1
94.5 272 m 0,20,21
 94.5 290 94.5 290 110 305 c 128,-1,22
 125.5 320 125.5 320 153.5 331.5 c 128,-1,23
 181.5 343 181.5 343 219 349 c 128,-1,24
 256.5 355 256.5 355 299.5 355 c 0,25,26
 343.5 355 343.5 355 381 349 c 128,-1,27
 418.5 343 418.5 343 446 331.5 c 128,-1,28
 473.5 320 473.5 320 489.5 305 c 128,-1,29
 505.5 290 505.5 290 505.5 272 c 0,30,31
 505.5 255 505.5 255 489.5 240 c 128,-1,32
 473.5 225 473.5 225 446 214 c 128,-1,33
 418.5 203 418.5 203 381 196 c 128,-1,34
 343.5 189 343.5 189 299.5 189 c 0,35,36
 256.5 189 256.5 189 219 196 c 128,-1,37
 181.5 203 181.5 203 153.5 214 c 128,-1,38
 125.5 225 125.5 225 110 240 c 128,-1,39
 94.5 255 94.5 255 94.5 272 c 0,20,21
174.5 272 m 256,40,41
 174.5 261 174.5 261 184 251.5 c 128,-1,42
 193.5 242 193.5 242 210.5 235 c 128,-1,43
 227.5 228 227.5 228 250.5 224 c 128,-1,44
 273.5 220 273.5 220 299.5 220 c 0,45,46
 326.5 220 326.5 220 349 224 c 128,-1,47
 371.5 228 371.5 228 388.5 235 c 128,-1,48
 405.5 242 405.5 242 415 251.5 c 128,-1,49
 424.5 261 424.5 261 424.5 272 c 256,50,51
 424.5 283 424.5 283 415 292.5 c 128,-1,52
 405.5 302 405.5 302 388.5 309 c 128,-1,53
 371.5 316 371.5 316 349 320 c 128,-1,54
 326.5 324 326.5 324 299.5 324 c 0,55,56
 273.5 324 273.5 324 250.5 320 c 128,-1,57
 227.5 316 227.5 316 210.5 309 c 128,-1,58
 193.5 302 193.5 302 184 292.5 c 128,-1,59
 174.5 283 174.5 283 174.5 272 c 256,40,41
94.5 461 m 256,60,61
 94.5 478 94.5 478 110 493.5 c 128,-1,62
 125.5 509 125.5 509 153.5 520 c 128,-1,63
 181.5 531 181.5 531 219 537.5 c 128,-1,64
 256.5 544 256.5 544 299.5 544 c 0,65,66
 343.5 544 343.5 544 381 537.5 c 128,-1,67
 418.5 531 418.5 531 446 520 c 128,-1,68
 473.5 509 473.5 509 489.5 493.5 c 128,-1,69
 505.5 478 505.5 478 505.5 461 c 256,70,71
 505.5 444 505.5 444 489.5 429 c 128,-1,72
 473.5 414 473.5 414 446 402.5 c 128,-1,73
 418.5 391 418.5 391 381 384.5 c 128,-1,74
 343.5 378 343.5 378 299.5 378 c 0,75,76
 256.5 378 256.5 378 219 384.5 c 128,-1,77
 181.5 391 181.5 391 153.5 402.5 c 128,-1,78
 125.5 414 125.5 414 110 429 c 128,-1,79
 94.5 444 94.5 444 94.5 461 c 256,60,61
94.5 648 m 256,80,81
 94.5 665 94.5 665 110 680.5 c 128,-1,82
 125.5 696 125.5 696 153.5 707 c 128,-1,83
 181.5 718 181.5 718 219 724.5 c 128,-1,84
 256.5 731 256.5 731 299.5 731 c 0,85,86
 343.5 731 343.5 731 381 724.5 c 128,-1,87
 418.5 718 418.5 718 446 707 c 128,-1,88
 473.5 696 473.5 696 489.5 680.5 c 128,-1,89
 505.5 665 505.5 665 505.5 648 c 256,90,91
 505.5 631 505.5 631 489.5 616 c 128,-1,92
 473.5 601 473.5 601 446 589.5 c 128,-1,93
 418.5 578 418.5 578 381 571.5 c 128,-1,94
 343.5 565 343.5 565 299.5 565 c 0,95,96
 256.5 565 256.5 565 219 571.5 c 128,-1,97
 181.5 578 181.5 578 153.5 589.5 c 128,-1,98
 125.5 601 125.5 601 110 616 c 128,-1,99
 94.5 631 94.5 631 94.5 648 c 256,80,81
EndSplineSet
EndChar

StartChar: uni008E
Encoding: 142 142 112
Width: 600
Flags: W
LayerCount: 2
Fore
SplineSet
94.5 85 m 0,0,1
 94.5 103 94.5 103 110 118 c 128,-1,2
 125.5 133 125.5 133 153.5 144.5 c 128,-1,3
 181.5 156 181.5 156 219 162.5 c 128,-1,4
 256.5 169 256.5 169 299.5 169 c 0,5,6
 343.5 169 343.5 169 381 162.5 c 128,-1,7
 418.5 156 418.5 156 446 144.5 c 128,-1,8
 473.5 133 473.5 133 489.5 118 c 128,-1,9
 505.5 103 505.5 103 505.5 85 c 0,10,11
 505.5 68 505.5 68 489.5 53 c 128,-1,12
 473.5 38 473.5 38 446 27 c 128,-1,13
 418.5 16 418.5 16 381 9.5 c 128,-1,14
 343.5 3 343.5 3 299.5 3 c 0,15,16
 256.5 3 256.5 3 219 9.5 c 128,-1,17
 181.5 16 181.5 16 153.5 27 c 128,-1,18
 125.5 38 125.5 38 110 53 c 128,-1,19
 94.5 68 94.5 68 94.5 85 c 0,0,1
174.5 85 m 256,20,21
 174.5 74 174.5 74 184 64.5 c 128,-1,22
 193.5 55 193.5 55 210.5 48.5 c 128,-1,23
 227.5 42 227.5 42 250.5 38 c 128,-1,24
 273.5 34 273.5 34 299.5 34 c 0,25,26
 326.5 34 326.5 34 349 38 c 128,-1,27
 371.5 42 371.5 42 388.5 48.5 c 128,-1,28
 405.5 55 405.5 55 415 64.5 c 128,-1,29
 424.5 74 424.5 74 424.5 85 c 256,30,31
 424.5 96 424.5 96 415 105.5 c 128,-1,32
 405.5 115 405.5 115 388.5 122 c 128,-1,33
 371.5 129 371.5 129 349 133 c 128,-1,34
 326.5 137 326.5 137 299.5 137 c 0,35,36
 273.5 137 273.5 137 250.5 133 c 128,-1,37
 227.5 129 227.5 129 210.5 122 c 128,-1,38
 193.5 115 193.5 115 184 105.5 c 128,-1,39
 174.5 96 174.5 96 174.5 85 c 256,20,21
94.5 272 m 0,40,41
 94.5 290 94.5 290 110 305 c 128,-1,42
 125.5 320 125.5 320 153.5 331.5 c 128,-1,43
 181.5 343 181.5 343 219 349 c 128,-1,44
 256.5 355 256.5 355 299.5 355 c 0,45,46
 343.5 355 343.5 355 381 349 c 128,-1,47
 418.5 343 418.5 343 446 331.5 c 128,-1,48
 473.5 320 473.5 320 489.5 305 c 128,-1,49
 505.5 290 505.5 290 505.5 272 c 0,50,51
 505.5 255 505.5 255 489.5 240 c 128,-1,52
 473.5 225 473.5 225 446 214 c 128,-1,53
 418.5 203 418.5 203 381 196 c 128,-1,54
 343.5 189 343.5 189 299.5 189 c 0,55,56
 256.5 189 256.5 189 219 196 c 128,-1,57
 181.5 203 181.5 203 153.5 214 c 128,-1,58
 125.5 225 125.5 225 110 240 c 128,-1,59
 94.5 255 94.5 255 94.5 272 c 0,40,41
94.5 461 m 256,60,61
 94.5 478 94.5 478 110 493.5 c 128,-1,62
 125.5 509 125.5 509 153.5 520 c 128,-1,63
 181.5 531 181.5 531 219 537.5 c 128,-1,64
 256.5 544 256.5 544 299.5 544 c 0,65,66
 343.5 544 343.5 544 381 537.5 c 128,-1,67
 418.5 531 418.5 531 446 520 c 128,-1,68
 473.5 509 473.5 509 489.5 493.5 c 128,-1,69
 505.5 478 505.5 478 505.5 461 c 256,70,71
 505.5 444 505.5 444 489.5 429 c 128,-1,72
 473.5 414 473.5 414 446 402.5 c 128,-1,73
 418.5 391 418.5 391 381 384.5 c 128,-1,74
 343.5 378 343.5 378 299.5 378 c 0,75,76
 256.5 378 256.5 378 219 384.5 c 128,-1,77
 181.5 391 181.5 391 153.5 402.5 c 128,-1,78
 125.5 414 125.5 414 110 429 c 128,-1,79
 94.5 444 94.5 444 94.5 461 c 256,60,61
94.5 648 m 256,80,81
 94.5 665 94.5 665 110 680.5 c 128,-1,82
 125.5 696 125.5 696 153.5 707 c 128,-1,83
 181.5 718 181.5 718 219 724.5 c 128,-1,84
 256.5 731 256.5 731 299.5 731 c 0,85,86
 343.5 731 343.5 731 381 724.5 c 128,-1,87
 418.5 718 418.5 718 446 707 c 128,-1,88
 473.5 696 473.5 696 489.5 680.5 c 128,-1,89
 505.5 665 505.5 665 505.5 648 c 256,90,91
 505.5 631 505.5 631 489.5 616 c 128,-1,92
 473.5 601 473.5 601 446 589.5 c 128,-1,93
 418.5 578 418.5 578 381 571.5 c 128,-1,94
 343.5 565 343.5 565 299.5 565 c 0,95,96
 256.5 565 256.5 565 219 571.5 c 128,-1,97
 181.5 578 181.5 578 153.5 589.5 c 128,-1,98
 125.5 601 125.5 601 110 616 c 128,-1,99
 94.5 631 94.5 631 94.5 648 c 256,80,81
EndSplineSet
EndChar

StartChar: uni008F
Encoding: 143 143 113
Width: 600
Flags: W
LayerCount: 2
Fore
SplineSet
94.5 85 m 0,0,1
 94.5 103 94.5 103 110 118 c 128,-1,2
 125.5 133 125.5 133 153.5 144.5 c 128,-1,3
 181.5 156 181.5 156 219 162.5 c 128,-1,4
 256.5 169 256.5 169 299.5 169 c 0,5,6
 343.5 169 343.5 169 381 162.5 c 128,-1,7
 418.5 156 418.5 156 446 144.5 c 128,-1,8
 473.5 133 473.5 133 489.5 118 c 128,-1,9
 505.5 103 505.5 103 505.5 85 c 0,10,11
 505.5 68 505.5 68 489.5 53 c 128,-1,12
 473.5 38 473.5 38 446 27 c 128,-1,13
 418.5 16 418.5 16 381 9.5 c 128,-1,14
 343.5 3 343.5 3 299.5 3 c 0,15,16
 256.5 3 256.5 3 219 9.5 c 128,-1,17
 181.5 16 181.5 16 153.5 27 c 128,-1,18
 125.5 38 125.5 38 110 53 c 128,-1,19
 94.5 68 94.5 68 94.5 85 c 0,0,1
94.5 272 m 0,20,21
 94.5 290 94.5 290 110 305 c 128,-1,22
 125.5 320 125.5 320 153.5 331.5 c 128,-1,23
 181.5 343 181.5 343 219 349 c 128,-1,24
 256.5 355 256.5 355 299.5 355 c 0,25,26
 343.5 355 343.5 355 381 349 c 128,-1,27
 418.5 343 418.5 343 446 331.5 c 128,-1,28
 473.5 320 473.5 320 489.5 305 c 128,-1,29
 505.5 290 505.5 290 505.5 272 c 0,30,31
 505.5 255 505.5 255 489.5 240 c 128,-1,32
 473.5 225 473.5 225 446 214 c 128,-1,33
 418.5 203 418.5 203 381 196 c 128,-1,34
 343.5 189 343.5 189 299.5 189 c 0,35,36
 256.5 189 256.5 189 219 196 c 128,-1,37
 181.5 203 181.5 203 153.5 214 c 128,-1,38
 125.5 225 125.5 225 110 240 c 128,-1,39
 94.5 255 94.5 255 94.5 272 c 0,20,21
94.5 461 m 256,40,41
 94.5 478 94.5 478 110 493.5 c 128,-1,42
 125.5 509 125.5 509 153.5 520 c 128,-1,43
 181.5 531 181.5 531 219 537.5 c 128,-1,44
 256.5 544 256.5 544 299.5 544 c 0,45,46
 343.5 544 343.5 544 381 537.5 c 128,-1,47
 418.5 531 418.5 531 446 520 c 128,-1,48
 473.5 509 473.5 509 489.5 493.5 c 128,-1,49
 505.5 478 505.5 478 505.5 461 c 256,50,51
 505.5 444 505.5 444 489.5 429 c 128,-1,52
 473.5 414 473.5 414 446 402.5 c 128,-1,53
 418.5 391 418.5 391 381 384.5 c 128,-1,54
 343.5 378 343.5 378 299.5 378 c 0,55,56
 256.5 378 256.5 378 219 384.5 c 128,-1,57
 181.5 391 181.5 391 153.5 402.5 c 128,-1,58
 125.5 414 125.5 414 110 429 c 128,-1,59
 94.5 444 94.5 444 94.5 461 c 256,40,41
94.5 648 m 256,60,61
 94.5 665 94.5 665 110 680.5 c 128,-1,62
 125.5 696 125.5 696 153.5 707 c 128,-1,63
 181.5 718 181.5 718 219 724.5 c 128,-1,64
 256.5 731 256.5 731 299.5 731 c 0,65,66
 343.5 731 343.5 731 381 724.5 c 128,-1,67
 418.5 718 418.5 718 446 707 c 128,-1,68
 473.5 696 473.5 696 489.5 680.5 c 128,-1,69
 505.5 665 505.5 665 505.5 648 c 256,70,71
 505.5 631 505.5 631 489.5 616 c 128,-1,72
 473.5 601 473.5 601 446 589.5 c 128,-1,73
 418.5 578 418.5 578 381 571.5 c 128,-1,74
 343.5 565 343.5 565 299.5 565 c 0,75,76
 256.5 565 256.5 565 219 571.5 c 128,-1,77
 181.5 578 181.5 578 153.5 589.5 c 128,-1,78
 125.5 601 125.5 601 110 616 c 128,-1,79
 94.5 631 94.5 631 94.5 648 c 256,60,61
EndSplineSet
EndChar

StartChar: uni0090
Encoding: 144 144 114
Width: 600
Flags: W
LayerCount: 2
Fore
SplineSet
537 358 m 0,0,1
 537 271 537 271 524 203 c 128,-1,2
 511 135 511 135 482.5 87.5 c 128,-1,3
 454 40 454 40 408.5 15 c 128,-1,4
 363 -10 363 -10 299 -10 c 0,5,6
 219 -10 219 -10 166.5 34 c 128,-1,7
 114 78 114 78 88.5 160.5 c 128,-1,8
 63 243 63 243 63 358 c 0,9,10
 63 474 63 474 86.5 556 c 128,-1,11
 110 638 110 638 162 681.5 c 128,-1,12
 214 725 214 725 299 725 c 0,13,14
 379 725 379 725 432 681.5 c 128,-1,15
 485 638 485 638 511 556 c 128,-1,16
 537 474 537 474 537 358 c 0,0,1
151 358 m 256,17,18
 151 260 151 260 165.5 195 c 128,-1,19
 180 130 180 130 212.5 97.5 c 128,-1,20
 245 65 245 65 299 65 c 256,21,22
 353 65 353 65 385.5 97 c 128,-1,23
 418 129 418 129 433 194.5 c 128,-1,24
 448 260 448 260 448 358 c 256,25,26
 448 456 448 456 433 520.5 c 128,-1,27
 418 585 418 585 385.5 617.5 c 128,-1,28
 353 650 353 650 299 650 c 256,29,30
 245 650 245 650 212.5 617.5 c 128,-1,31
 180 585 180 585 165.5 520.5 c 128,-1,32
 151 456 151 456 151 358 c 256,17,18
EndSplineSet
EndChar

StartChar: uni0091
Encoding: 145 145 115
Width: 600
Flags: W
LayerCount: 2
Fore
SplineSet
433 0 m 1,0,-1
 347 0 l 1,1,-1
 347 499 l 2,2,3
 347 528 347 528 347.5 548 c 128,-1,4
 348 568 348 568 349 585.5 c 128,-1,5
 350 603 350 603 351 622 c 1,6,7
 335 606 335 606 322 595 c 128,-1,8
 309 584 309 584 289 567 c 2,9,-1
 213 505 l 1,10,-1
 167 564 l 1,11,-1
 360 714 l 1,12,-1
 433 714 l 1,13,-1
 433 0 l 1,0,-1
EndSplineSet
EndChar

StartChar: uni0092
Encoding: 146 146 116
Width: 600
Flags: W
LayerCount: 2
Fore
SplineSet
536 0 m 1,0,-1
 64 0 l 1,1,-1
 64 73 l 1,2,-1
 251 262 l 2,3,4
 305 316 305 316 342 358 c 128,-1,5
 379 400 379 400 398 440.5 c 128,-1,6
 417 481 417 481 417 529 c 0,7,8
 417 588 417 588 382 618.5 c 128,-1,9
 347 649 347 649 291 649 c 0,10,11
 239 649 239 649 199.5 631 c 128,-1,12
 160 613 160 613 119 581 c 1,13,-1
 72 640 l 1,14,15
 100 664 100 664 133.5 683 c 128,-1,16
 167 702 167 702 206.5 713 c 128,-1,17
 246 724 246 724 291 724 c 0,18,19
 358 724 358 724 406 701 c 128,-1,20
 454 678 454 678 480.5 635.5 c 128,-1,21
 507 593 507 593 507 534 c 0,22,23
 507 478 507 478 484 429 c 128,-1,24
 461 380 461 380 420 332.5 c 128,-1,25
 379 285 379 285 324 231 c 2,26,-1
 175 84 l 1,27,-1
 175 80 l 1,28,-1
 536 80 l 1,29,-1
 536 0 l 1,0,-1
EndSplineSet
EndChar

StartChar: uni0093
Encoding: 147 147 117
Width: 600
Flags: W
LayerCount: 2
Fore
SplineSet
513 547 m 0,0,1
 513 499 513 499 495 464 c 128,-1,2
 477 429 477 429 443.5 407 c 128,-1,3
 410 385 410 385 365 376 c 1,4,-1
 365 372 l 1,5,6
 451 362 451 362 493 318 c 128,-1,7
 535 274 535 274 535 203 c 0,8,9
 535 141 535 141 506 92.5 c 128,-1,10
 477 44 477 44 416.5 17 c 128,-1,11
 356 -10 356 -10 261 -10 c 0,12,13
 205 -10 205 -10 157 -1.5 c 128,-1,14
 109 7 109 7 65 29 c 1,15,-1
 65 111 l 1,16,17
 110 89 110 89 162 76.5 c 128,-1,18
 214 64 214 64 262 64 c 0,19,20
 358 64 358 64 400.5 101.5 c 128,-1,21
 443 139 443 139 443 205 c 0,22,23
 443 250 443 250 419.5 277.5 c 128,-1,24
 396 305 396 305 351 318 c 128,-1,25
 306 331 306 331 243 331 c 2,26,-1
 174 331 l 1,27,-1
 174 406 l 1,28,-1
 244 406 l 2,29,30
 303 406 303 406 342.5 423 c 128,-1,31
 382 440 382 440 402.5 470.5 c 128,-1,32
 423 501 423 501 423 541 c 0,33,34
 423 593 423 593 388 621.5 c 128,-1,35
 353 650 353 650 293 650 c 0,36,37
 255 650 255 650 224 642.5 c 128,-1,38
 193 635 193 635 166.5 621.5 c 128,-1,39
 140 608 140 608 113 590 c 1,40,-1
 69 650 l 1,41,42
 107 680 107 680 163.5 702 c 128,-1,43
 220 724 220 724 292 724 c 0,44,45
 404 724 404 724 458.5 674 c 128,-1,46
 513 624 513 624 513 547 c 0,0,1
EndSplineSet
EndChar

StartChar: uni0094
Encoding: 148 148 118
Width: 600
Flags: W
LayerCount: 2
Fore
SplineSet
565.5 162 m 1,0,-1
 461.5 162 l 1,1,-1
 461.5 0 l 1,2,-1
 376.5 0 l 1,3,-1
 376.5 162 l 1,4,-1
 34.5 162 l 1,5,-1
 34.5 237 l 1,6,-1
 370.5 718 l 1,7,-1
 461.5 718 l 1,8,-1
 461.5 241 l 1,9,-1
 565.5 241 l 1,10,-1
 565.5 162 l 1,0,-1
376.5 466 m 2,11,12
 376.5 492 376.5 492 377 513.5 c 128,-1,13
 377.5 535 377.5 535 378.5 554 c 128,-1,14
 379.5 573 379.5 573 380 590.5 c 128,-1,15
 380.5 608 380.5 608 381.5 624 c 1,16,-1
 377.5 624 l 1,17,18
 369.5 605 369.5 605 357.5 583 c 128,-1,19
 345.5 561 345.5 561 334.5 546 c 2,20,-1
 120.5 241 l 1,21,-1
 376.5 241 l 1,22,-1
 376.5 466 l 2,11,12
EndSplineSet
EndChar

StartChar: uni0095
Encoding: 149 149 119
Width: 600
Flags: W
LayerCount: 2
Fore
SplineSet
286 438 m 0,0,1
 359 438 359 438 413 413 c 128,-1,2
 467 388 467 388 496.5 341.5 c 128,-1,3
 526 295 526 295 526 228 c 0,4,5
 526 154 526 154 494 100.5 c 128,-1,6
 462 47 462 47 402.5 18.5 c 128,-1,7
 343 -10 343 -10 259 -10 c 0,8,9
 204 -10 204 -10 155.5 0 c 128,-1,10
 107 10 107 10 74 29 c 1,11,-1
 74 112 l 1,12,13
 110 90 110 90 161.5 77.5 c 128,-1,14
 213 65 213 65 260 65 c 0,15,16
 313 65 313 65 352.5 81.5 c 128,-1,17
 392 98 392 98 414 132.5 c 128,-1,18
 436 167 436 167 436 219 c 0,19,20
 436 289 436 289 393 326.5 c 128,-1,21
 350 364 350 364 257 364 c 0,22,23
 229 364 229 364 193 359 c 128,-1,24
 157 354 157 354 135 349 c 1,25,-1
 91 377 l 1,26,-1
 118 714 l 1,27,-1
 476 714 l 1,28,-1
 476 634 l 1,29,-1
 193 634 l 1,30,-1
 176 427 l 1,31,32
 193 430 193 430 222 434 c 128,-1,33
 251 438 251 438 286 438 c 0,0,1
EndSplineSet
EndChar

StartChar: uni0096
Encoding: 150 150 120
Width: 600
Flags: W
LayerCount: 2
Fore
SplineSet
65 305 m 0,0,1
 65 367 65 367 73.5 427 c 128,-1,2
 82 487 82 487 103 540.5 c 128,-1,3
 124 594 124 594 161 635.5 c 128,-1,4
 198 677 198 677 254.5 700.5 c 128,-1,5
 311 724 311 724 392 724 c 0,6,7
 413 724 413 724 438.5 722 c 128,-1,8
 464 720 464 720 480 715 c 1,9,-1
 480 640 l 1,10,11
 462 646 462 646 439.5 649 c 128,-1,12
 417 652 417 652 394 652 c 0,13,14
 325 652 325 652 279 629 c 128,-1,15
 233 606 233 606 206.5 566 c 128,-1,16
 180 526 180 526 168 474 c 128,-1,17
 156 422 156 422 153 363 c 1,18,-1
 159 363 l 1,19,20
 174 387 174 387 197 406 c 128,-1,21
 220 425 220 425 252.5 436 c 128,-1,22
 285 447 285 447 328 447 c 0,23,24
 390 447 390 447 436.5 421.5 c 128,-1,25
 483 396 483 396 509 347.5 c 128,-1,26
 535 299 535 299 535 230 c 0,27,28
 535 156 535 156 507 102 c 128,-1,29
 479 48 479 48 428.5 19 c 128,-1,30
 378 -10 378 -10 308 -10 c 0,31,32
 257 -10 257 -10 213 9 c 128,-1,33
 169 28 169 28 135.5 67 c 128,-1,34
 102 106 102 106 83.5 165.5 c 128,-1,35
 65 225 65 225 65 305 c 0,0,1
307 64 m 0,36,37
 370 64 370 64 409 104.5 c 128,-1,38
 448 145 448 145 448 230 c 0,39,40
 448 298 448 298 413.5 338 c 128,-1,41
 379 378 379 378 310 378 c 0,42,43
 263 378 263 378 228 358.5 c 128,-1,44
 193 339 193 339 173.5 309 c 128,-1,45
 154 279 154 279 154 247 c 0,46,47
 154 214 154 214 163.5 182 c 128,-1,48
 173 150 173 150 192.5 123 c 128,-1,49
 212 96 212 96 240.5 80 c 128,-1,50
 269 64 269 64 307 64 c 0,36,37
EndSplineSet
EndChar

StartChar: uni0097
Encoding: 151 151 121
Width: 600
Flags: W
LayerCount: 2
Fore
SplineSet
152.5 0 m 1,0,-1
 445.5 634 l 1,1,-1
 60.5 634 l 1,2,-1
 60.5 714 l 1,3,-1
 539.5 714 l 1,4,-1
 539.5 646 l 1,5,-1
 249.5 0 l 1,6,-1
 152.5 0 l 1,0,-1
EndSplineSet
EndChar

StartChar: uni0098
Encoding: 152 152 122
Width: 600
Flags: W
LayerCount: 2
Fore
SplineSet
299.5 724 m 0,0,1
 362.5 724 362.5 724 410.5 704.5 c 128,-1,2
 458.5 685 458.5 685 486 647 c 128,-1,3
 513.5 609 513.5 609 513.5 553 c 0,4,5
 513.5 510 513.5 510 495 478 c 128,-1,6
 476.5 446 476.5 446 445.5 421.5 c 128,-1,7
 414.5 397 414.5 397 377.5 378 c 1,8,9
 421.5 357 421.5 357 457.5 330.5 c 128,-1,10
 493.5 304 493.5 304 515 269 c 128,-1,11
 536.5 234 536.5 234 536.5 185 c 0,12,13
 536.5 125 536.5 125 507.5 81.5 c 128,-1,14
 478.5 38 478.5 38 426 14 c 128,-1,15
 373.5 -10 373.5 -10 302.5 -10 c 0,16,17
 225.5 -10 225.5 -10 172 13 c 128,-1,18
 118.5 36 118.5 36 91 78.5 c 128,-1,19
 63.5 121 63.5 121 63.5 182 c 0,20,21
 63.5 231 63.5 231 84 267 c 128,-1,22
 104.5 303 104.5 303 138.5 329 c 128,-1,23
 172.5 355 172.5 355 211.5 373 c 1,24,25
 176.5 393 176.5 393 148 418.5 c 128,-1,26
 119.5 444 119.5 444 103 477 c 128,-1,27
 86.5 510 86.5 510 86.5 554 c 0,28,29
 86.5 609 86.5 609 114.5 646.5 c 128,-1,30
 142.5 684 142.5 684 190.5 704 c 128,-1,31
 238.5 724 238.5 724 299.5 724 c 0,0,1
149.5 181 m 0,32,33
 149.5 129 149.5 129 186.5 94.5 c 128,-1,34
 223.5 60 223.5 60 300.5 60 c 0,35,36
 373.5 60 373.5 60 412 94.5 c 128,-1,37
 450.5 129 450.5 129 450.5 184 c 0,38,39
 450.5 219 450.5 219 432 245.5 c 128,-1,40
 413.5 272 413.5 272 380 293 c 128,-1,41
 346.5 314 346.5 314 300.5 331 c 2,42,-1
 284.5 337 l 1,43,44
 240.5 318 240.5 318 210.5 296 c 128,-1,45
 180.5 274 180.5 274 165 246 c 128,-1,46
 149.5 218 149.5 218 149.5 181 c 0,32,33
298.5 653 m 0,47,48
 243.5 653 243.5 653 208 626.5 c 128,-1,49
 172.5 600 172.5 600 172.5 550 c 0,50,51
 172.5 513 172.5 513 190 488 c 128,-1,52
 207.5 463 207.5 463 237.5 445.5 c 128,-1,53
 267.5 428 267.5 428 303.5 412 c 1,54,55
 338.5 427 338.5 427 366 445 c 128,-1,56
 393.5 463 393.5 463 410 488.5 c 128,-1,57
 426.5 514 426.5 514 426.5 550 c 0,58,59
 426.5 600 426.5 600 391.5 626.5 c 128,-1,60
 356.5 653 356.5 653 298.5 653 c 0,47,48
EndSplineSet
EndChar

StartChar: uni0099
Encoding: 153 153 123
Width: 600
Flags: W
LayerCount: 2
Fore
SplineSet
535 409 m 0,0,1
 535 348 535 348 526.5 287.5 c 128,-1,2
 518 227 518 227 497 173.5 c 128,-1,3
 476 120 476 120 439 78.5 c 128,-1,4
 402 37 402 37 345 13.5 c 128,-1,5
 288 -10 288 -10 207 -10 c 0,6,7
 187 -10 187 -10 160.5 -7.5 c 128,-1,8
 134 -5 134 -5 117 0 c 1,9,-1
 117 75 l 1,10,11
 135 69 135 69 159 65.5 c 128,-1,12
 183 62 183 62 205 62 c 0,13,14
 275 62 275 62 320.5 85 c 128,-1,15
 366 108 366 108 393 147.5 c 128,-1,16
 420 187 420 187 432 239.5 c 128,-1,17
 444 292 444 292 446 350 c 1,18,-1
 440 350 l 1,19,20
 425 327 425 327 402 308 c 128,-1,21
 379 289 379 289 346.5 278 c 128,-1,22
 314 267 314 267 270 267 c 0,23,24
 209 267 209 267 162.5 292.5 c 128,-1,25
 116 318 116 318 90.5 366 c 128,-1,26
 65 414 65 414 65 483 c 0,27,28
 65 558 65 558 93.5 612 c 128,-1,29
 122 666 122 666 173 695 c 128,-1,30
 224 724 224 724 293 724 c 0,31,32
 344 724 344 724 388 704.5 c 128,-1,33
 432 685 432 685 465 646 c 128,-1,34
 498 607 498 607 516.5 548 c 128,-1,35
 535 489 535 489 535 409 c 0,0,1
293 650 m 0,36,37
 231 650 231 650 191.5 609 c 128,-1,38
 152 568 152 568 152 484 c 0,39,40
 152 415 152 415 185.5 375.5 c 128,-1,41
 219 336 219 336 289 336 c 0,42,43
 337 336 337 336 372 355.5 c 128,-1,44
 407 375 407 375 426.5 405 c 128,-1,45
 446 435 446 435 446 467 c 256,46,47
 446 499 446 499 436.5 531.5 c 128,-1,48
 427 564 427 564 408 591 c 128,-1,49
 389 618 389 618 360 634 c 128,-1,50
 331 650 331 650 293 650 c 0,36,37
EndSplineSet
EndChar

StartChar: uni009A
Encoding: 154 154 124
Width: 600
Flags: W
LayerCount: 2
Fore
SplineSet
350.5 723 m 0,0,1
 405.5 723 405.5 723 449.5 711 c 128,-1,2
 493.5 699 493.5 699 527.5 682 c 1,3,-1
 496.5 612 l 1,4,5
 466.5 626 466.5 626 430 638 c 128,-1,6
 393.5 650 393.5 650 352.5 650 c 0,7,8
 295.5 650 295.5 650 265.5 620.5 c 128,-1,9
 235.5 591 235.5 591 235.5 525 c 2,10,-1
 235.5 386 l 1,11,-1
 439.5 386 l 1,12,-1
 439.5 320 l 1,13,-1
 235.5 320 l 1,14,-1
 235.5 216 l 2,15,16
 235.5 176 235.5 176 226 149.5 c 128,-1,17
 216.5 123 216.5 123 201 107 c 128,-1,18
 185.5 91 185.5 91 167.5 80 c 1,19,-1
 551.5 80 l 1,20,-1
 551.5 0 l 1,21,-1
 48.5 0 l 1,22,-1
 48.5 74 l 1,23,24
 77.5 81 77.5 81 99.5 97.5 c 128,-1,25
 121.5 114 121.5 114 134.5 142.5 c 128,-1,26
 147.5 171 147.5 171 147.5 215 c 2,27,-1
 147.5 320 l 1,28,-1
 51.5 320 l 1,29,-1
 51.5 386 l 1,30,-1
 147.5 386 l 1,31,-1
 147.5 534 l 2,32,33
 147.5 594 147.5 594 172.5 636 c 128,-1,34
 197.5 678 197.5 678 243.5 700.5 c 128,-1,35
 289.5 723 289.5 723 350.5 723 c 0,0,1
EndSplineSet
EndChar

StartChar: uni009B
Encoding: 155 155 125
Width: 600
Flags: W
LayerCount: 2
Fore
SplineSet
249.5 -8 m 4,0,1
 194.5 -8 194.5 -8 150.5 4 c 132,-1,2
 106.5 16 106.5 16 72.5 33 c 5,3,-1
 103.5 103 l 5,4,5
 133.5 89 133.5 89 170 77 c 132,-1,6
 206.5 65 206.5 65 247.5 65 c 4,7,8
 304.5 65 304.5 65 334.5 94.5 c 132,-1,9
 364.5 124 364.5 124 364.5 190 c 6,10,-1
 364.5 329 l 5,11,-1
 160.5 329 l 5,12,-1
 160.5 395 l 5,13,-1
 364.5 395 l 5,14,-1
 364.5 499 l 6,15,16
 364.5 539 364.5 539 374 565.5 c 132,-1,17
 383.5 592 383.5 592 399 608 c 132,-1,18
 414.5 624 414.5 624 432.5 635 c 5,19,-1
 48.5 635 l 5,20,-1
 48.5 715 l 5,21,-1
 551.5 715 l 5,22,-1
 551.5 641 l 5,23,24
 522.5 634 522.5 634 500.5 617.5 c 132,-1,25
 478.5 601 478.5 601 465.5 572.5 c 132,-1,26
 452.5 544 452.5 544 452.5 500 c 6,27,-1
 452.5 395 l 5,28,-1
 548.5 395 l 5,29,-1
 548.5 329 l 5,30,-1
 452.5 329 l 5,31,-1
 452.5 181 l 6,32,33
 452.5 121 452.5 121 427.5 79 c 132,-1,34
 402.5 37 402.5 37 356.5 14.5 c 132,-1,35
 310.5 -8 310.5 -8 249.5 -8 c 4,0,1
EndSplineSet
EndChar

StartChar: uni009C
Encoding: 156 156 126
Width: 600
Flags: W
AnchorPoint: "Anchor-7" 299.5 377 basechar 0
AnchorPoint: "Anchor-5" 280.5 0 basechar 0
AnchorPoint: "Anchor-4" 280.5 765 basechar 0
LayerCount: 2
Fore
SplineSet
486.5 617 m 0,0,1
 486.5 583 486.5 583 472.5 557.5 c 128,-1,2
 458.5 532 458.5 532 437.5 512.5 c 128,-1,3
 416.5 493 416.5 493 395.5 477 c 128,-1,4
 374.5 461 374.5 461 360.5 445.5 c 128,-1,5
 346.5 430 346.5 430 346.5 412 c 0,6,7
 346.5 399 346.5 399 353 388 c 128,-1,8
 359.5 377 359.5 377 378.5 362.5 c 128,-1,9
 397.5 348 397.5 348 434.5 323 c 0,10,11
 470.5 299 470.5 299 496.5 275 c 128,-1,12
 522.5 251 522.5 251 536.5 222 c 128,-1,13
 550.5 193 550.5 193 550.5 153 c 0,14,15
 550.5 96 550.5 96 527 60 c 128,-1,16
 503.5 24 503.5 24 461.5 7 c 128,-1,17
 419.5 -10 419.5 -10 364.5 -10 c 0,18,19
 317.5 -10 317.5 -10 281.5 -1 c 128,-1,20
 245.5 8 245.5 8 219.5 24 c 1,21,-1
 219.5 103 l 1,22,23
 236.5 93 236.5 93 259.5 83 c 128,-1,24
 282.5 73 282.5 73 309 67 c 128,-1,25
 335.5 61 335.5 61 361.5 61 c 0,26,27
 416.5 61 416.5 61 440.5 84 c 128,-1,28
 464.5 107 464.5 107 464.5 147 c 0,29,30
 464.5 171 464.5 171 456 189.5 c 128,-1,31
 447.5 208 447.5 208 427 226 c 128,-1,32
 406.5 244 406.5 244 370.5 267 c 0,33,34
 328.5 294 328.5 294 305 315.5 c 128,-1,35
 281.5 337 281.5 337 271.5 359 c 128,-1,36
 261.5 381 261.5 381 261.5 407 c 0,37,38
 261.5 438 261.5 438 275 460 c 128,-1,39
 288.5 482 288.5 482 309 498.5 c 128,-1,40
 329.5 515 329.5 515 350 531 c 128,-1,41
 370.5 547 370.5 547 384 566 c 128,-1,42
 397.5 585 397.5 585 397.5 612 c 0,43,44
 397.5 654 397.5 654 362 673 c 128,-1,45
 326.5 692 326.5 692 270.5 692 c 0,46,47
 235.5 692 235.5 692 205 682.5 c 128,-1,48
 174.5 673 174.5 673 156 650 c 128,-1,49
 137.5 627 137.5 627 137.5 584 c 2,50,-1
 137.5 0 l 1,51,-1
 49.5 0 l 1,52,-1
 49.5 584 l 2,53,54
 49.5 651 49.5 651 78.5 690.5 c 128,-1,55
 107.5 730 107.5 730 157.5 747.5 c 128,-1,56
 207.5 765 207.5 765 270.5 765 c 0,57,58
 335.5 765 335.5 765 384 748.5 c 128,-1,59
 432.5 732 432.5 732 459.5 699.5 c 128,-1,60
 486.5 667 486.5 667 486.5 617 c 0,0,1
EndSplineSet
EndChar

StartChar: uni009D
Encoding: 157 157 127
Width: 600
Flags: W
AnchorPoint: "Anchor-3" 580 714 basechar 0
AnchorPoint: "Anchor-2" 300 714 basechar 0
AnchorPoint: "Anchor-1" 300 0 basechar 0
LayerCount: 2
Fore
SplineSet
105 0 m 1,0,-1
 25 714 l 1,1,-1
 108 714 l 1,2,3
 112 675 112 675 115.5 635.5 c 128,-1,4
 119 596 119 596 123 556.5 c 128,-1,5
 127 517 127 517 130.5 477.5 c 128,-1,6
 134 438 134 438 138 399 c 0,7,8
 141 368 141 368 144 333 c 128,-1,9
 147 298 147 298 149.5 262.5 c 128,-1,10
 152 227 152 227 154 195 c 128,-1,11
 156 163 156 163 157.5 137.5 c 128,-1,12
 159 112 159 112 159 98 c 1,13,-1
 161 98 l 1,14,15
 164 115 164 115 169 140.5 c 128,-1,16
 174 166 174 166 180 195 c 128,-1,17
 186 224 186 224 192.5 252.5 c 128,-1,18
 199 281 199 281 204 304 c 2,19,-1
 258 536 l 1,20,-1
 344 536 l 1,21,-1
 400 302 l 2,22,23
 406 276 406 276 413 247.5 c 128,-1,24
 420 219 420 219 426 191.5 c 128,-1,25
 432 164 432 164 436.5 139.5 c 128,-1,26
 441 115 441 115 444 98 c 1,27,-1
 446 98 l 1,28,29
 447 112 447 112 448 135.5 c 128,-1,30
 449 159 449 159 450.5 188.5 c 128,-1,31
 452 218 452 218 454 253 c 128,-1,32
 456 288 456 288 459 325.5 c 128,-1,33
 462 363 462 363 465 402 c 0,34,35
 468 433 468 433 470.5 464.5 c 128,-1,36
 473 496 473 496 476 527 c 128,-1,37
 479 558 479 558 481.5 589 c 128,-1,38
 484 620 484 620 486.5 651.5 c 128,-1,39
 489 683 489 683 492 714 c 1,40,-1
 575 714 l 1,41,-1
 503 0 l 1,42,-1
 406 0 l 1,43,-1
 327 328 l 2,44,45
 320 358 320 358 315 382.5 c 128,-1,46
 310 407 310 407 307 424.5 c 128,-1,47
 304 442 304 442 302 450 c 1,48,-1
 300 450 l 1,49,50
 299 442 299 442 296.5 425 c 128,-1,51
 294 408 294 408 289 383.5 c 128,-1,52
 284 359 284 359 277 328 c 2,53,-1
 201 0 l 1,54,-1
 105 0 l 1,0,-1
EndSplineSet
EndChar

StartChar: uni009E
Encoding: 158 158 128
Width: 600
Flags: W
AnchorPoint: "Anchor-7" 299.5 357 basechar 0
AnchorPoint: "Anchor-6" 539.5 714 basechar 0
AnchorPoint: "Anchor-5" 303.5 0 basechar 0
AnchorPoint: "Anchor-4" 308.5 714 basechar 0
LayerCount: 2
Fore
SplineSet
499.5 0 m 1,0,-1
 100.5 0 l 1,1,-1
 100.5 714 l 1,2,-1
 499.5 714 l 1,3,-1
 499.5 635 l 1,4,-1
 190.5 635 l 1,5,-1
 190.5 412 l 1,6,-1
 481.5 412 l 1,7,-1
 481.5 334 l 1,8,-1
 190.5 334 l 1,9,-1
 190.5 79 l 1,10,-1
 499.5 79 l 1,11,-1
 499.5 0 l 1,0,-1
EndSplineSet
EndChar

StartChar: uni009F
Encoding: 159 159 129
Width: 600
Flags: W
AnchorPoint: "Anchor-7" 299.5 357 basechar 0
AnchorPoint: "Anchor-6" 502.5 714 basechar 0
AnchorPoint: "Anchor-5" 263.5 0 basechar 0
AnchorPoint: "Anchor-4" 301.5 714 basechar 0
LayerCount: 2
Fore
SplineSet
190.5 0 m 1,0,-1
 100.5 0 l 1,1,-1
 100.5 714 l 1,2,-1
 499.5 714 l 1,3,-1
 499.5 635 l 1,4,-1
 190.5 635 l 1,5,-1
 190.5 382 l 1,6,-1
 480.5 382 l 1,7,-1
 480.5 303 l 1,8,-1
 190.5 303 l 1,9,-1
 190.5 0 l 1,0,-1
EndSplineSet
EndChar

